<svg viewBox="0 0 800 800" xmlns="http://www.w3.org/2000/svg"><path d="M400,368.1230207226358 L399.99999999999994,113.41143222298876 M179.41329372101748,495.4788149724593 L179.38878680997658,240.7530774011259 M400,368.1230207226358 L179.41329372101748,495.4788149724593 M399.99999999999994,113.41143222298876 L179.38878680997658,240.7530774011259 M841.2224263800468,622.8629073656557 L841.2714510940889,368.12302072263583 M841.2714510940889,368.12302072263583 L399.99999999999994,113.41143222298876 M841.2224263800468,622.8629073656557 L400,368.1230207226358 M620.5943641037751,415.8831015340216 L630.4940940387103,420.2104415013738 M630.4940940387103,420.2104415013738 L639.818879556586,421.5107276193083 M639.818879556586,421.5107276193083 L648.026799256173,419.7083297354012 M648.026799256173,419.7083297354012 L654.6408221443888,414.9079479307178 M654.6408221443888,414.9079479307178 L659.2765201915574,407.38850408735766 M659.2765201915574,407.38850408735766 L661.6644384912772,397.5869444722156 M661.6644384912772,397.5869444722156 L661.6657524766875,386.07289817389903 M661.6657524766875,386.07289817389903 L659.2803505202432,373.51554563958655 M659.2803505202432,373.51554563958655 L654.6468485004577,360.6447215910968 M654.6468485004577,360.6447215910968 L648.0345336407289,348.20848562890325 M648.0345336407289,348.20848562890325 L639.8277262095826,336.9296480794078 M639.8277262095826,336.9296480794078 L630.5034175683994,327.46375490738626 M630.5034175683994,327.46375490738626 L620.603554195391,320.36095019804924 M620.603554195391,320.36095019804924 L610.7035224672001,316.0340123292451 M610.7035224672001,316.0340123292451 L601.3787016688125,314.73437805853445 M601.3787016688125,314.73437805853445 L593.1710212839401,316.53752820814265 M593.1710212839401,316.53752820814265 L586.5574574813794,321.33859036147123 M586.5574574813794,321.33859036147123 L581.9223331187986,328.8584943682436 M581.9223331187986,328.8584943682436 L579.5349716801976,338.660175100327 M579.5349716801976,338.660175100327 L579.5340701614651,350.17398331379553 M579.5340701614651,350.17398331379553 L581.91964569884,362.7307931039326 M581.91964569884,362.7307931039326 L586.5530426491198,375.60088649406595 M586.5530426491198,375.60088649406595 L593.1649978578115,388.03638471176265 M593.1649978578115,388.03638471176265 L601.3712734492613,399.3146388474169 M601.3712734492613,399.3146388474169 L610.6949998995834,408.7802365902873 M610.6949998995834,408.7802365902873 L620.5943641037751,415.8831015340216 M179.38878680997658,240.7530774011259 L620.6602433518614,495.52127162128136 M620.6357255470446,750.2753073349395 L620.6602433518614,495.52127162128136 M179.41329372101748,495.4788149724593 L620.6357255470446,750.2753073349395 M400,543.2627733555045 L390.1005021611245,536.1585613438726 M390.1005021611245,536.1585613438726 L380.7763828150549,526.6915406745496 M380.7763828150549,526.6915406745496 L372.569477894742,515.4118704401262 M372.569477894742,515.4118704401262 L365.9566934923338,502.9750452374068 M365.9566934923338,502.9750452374068 L361.3223156656887,490.10379108296866 M361.3223156656887,490.10379108296866 L358.93566456588644,477.54605419584357 M358.93566456588644,477.54605419584357 L358.9354583410699,466.0316064263468 M358.9354583410699,466.0316064263468 L361.321744233566,456.229610848176 M361.321744233566,456.229610848176 L365.9558877580282,448.70973500933576 M365.9558877580282,448.70973500933576 L372.5686224391324,443.909042412328 M372.5686224391324,443.909042412328 L380.775673612038,442.1065817426086 M380.775673612038,442.1065817426086 L390.1001016840666,443.4071853606406 M390.1001016840666,443.4071853606406 L400.0000000000001,447.7353161177201 M400.0000000000001,447.7353161177201 L409.8999970296377,454.839467932948 M409.8999970296377,454.839467932948 L419.2246986273476,464.3067841366816 M419.2246986273476,464.3067841366816 L427.43213547304623,475.58703793335815 M427.43213547304623,475.58703793335815 L434.04527961746044,488.0246010381393 M434.04527961746044,488.0246010381393 L438.6797625897502,500.89658598197707 M438.6797625897502,500.89658598197707 L441.066240151195,513.454865687032 M441.066240151195,513.454865687032 L441.06603390931866,524.9695515413681 M441.06603390931866,524.9695515413681 L438.67919111310346,534.7714259288273 M438.67919111310346,534.7714259288273 L434.0444738278971,542.2908414732021 M434.0444738278971,542.2908414732021 L427.4312799701653,547.0908535639978 M427.4312799701653,547.0908535639978 L419.22398939686644,548.8925618196104 M419.22398939686644,548.8925618196104 L409.8995965445934,547.5913062491081 M409.8995965445934,547.5913062491081 L400,543.2627733555045 M620.6357255470446,750.2753073349395 L841.2224263800468,622.8629073656557 M620.6602433518614,495.52127162128136 L841.2714510940889,368.12302072263583 M620.5943641037751,415.8831015340216 L400,543.2627733555045" stroke="black"  stroke-width="4"  fill="red"/>
<path d="M399.99999999999994,113.41143222298876 L399.99999999999994,49.7246926650605 M-41.271451094089,368.1230207226358 L-41.28370897489384,304.4292036812229 M399.99999999999994,113.41143222298876 L-41.271451094089,368.1230207226358 M399.99999999999994,49.7246926650605 L-41.28370897489384,304.4292036812229 M841.2714510940889,368.12302072263583 L841.2837089748939,304.429203681223 M841.2714510940889,368.12302072263583 L399.99999999999994,113.41143222298876 M841.2837089748939,304.429203681223 L399.99999999999994,49.7246926650605 M400,622.9478395350188 L400,559.2469450098595 M-41.271451094089,368.1230207226358 L400,622.9478395350188 M-41.28370897489384,304.4292036812229 L400,559.2469450098595 M400,622.9478395350188 L841.2714510940889,368.12302072263583 M400,559.2469450098595 L841.2837089748939,304.429203681223 M446.95381784526404,284.66109326258857 L445.1043054479078,282.41169756923415 M445.03266722437144,287.09708448622115 L446.95381784526404,284.66109326258857 M445.1043054479078,282.41169756923415 L441.31565139680646,281.4062102878522 M440.7772273518167,288.22697415600044 L445.03266722437144,287.09708448622115 M441.31565139680646,281.4062102878522 L437.13205196489037,282.53608795367796 M436.8449103071635,287.18001337908595 L440.7772273518167,288.22697415600044 M437.13205196489037,282.53608795367796 L435.13906090263407,284.9720709321435 M435.13906090263407,284.9720709321435 L436.8449103071635,287.18001337908595 M500.83510188395746,246.2152648420015 L553.1240024416578,276.3995327658941 M507.7653413245594,242.21431152912987 L500.83510188395746,246.2152648420015 M553.1240024416578,276.3995327658941 L560.0542418582838,272.39836875155913 M531.9342494487942,256.1659475050102 L507.7653413245594,242.21431152912987 M560.0542418582838,272.39836875155913 L537.5725484804367,259.42068682580543 M558.2902727619356,240.9497653453298 L531.9342494487942,256.1659475050102 M537.5725484804367,259.42068682580543 L563.928571782428,244.2044182620283 M534.1213646806816,226.99849974303112 L558.2902727619356,240.9497653453298 M563.928571782428,244.2044182620283 L586.4102651115903,257.181755664699 M541.0154673037267,223.01840887238248 L534.1213646806816,226.99849974303112 M586.4102651115903,257.181755664699 L593.3043677047016,253.20145519477387 M593.3043677047016,253.20145519477387 L541.0154673037267,223.01840887238248 M413.79032988896734,322.2179754326085 L422.40938333673165,327.19395445240616 M400.43094317955735,309.90261311348246 L402.3454478398665,313.35750356278135 M402.3454478398665,313.35750356278135 L406.8503231403963,317.648910960715 M406.8503231403963,317.648910960715 L413.79032988896734,322.2179754326085 M422.40938333673165,327.19395445240616 L429.7690124738818,330.86359344433816 M429.7690124738818,330.86359344433816 L436.6957536784884,333.28771289707356 M436.6957536784884,333.28771289707356 L439.9953283755678,334.03096633804626 M439.9953283755678,334.03096633804626 L443.1850239807163,334.4610353863655 M407.21823207686293,299.43269011418425 L403.0492577470846,302.428625716782 M403.0492577470846,302.428625716782 L401.28466995525116,304.4953130662148 M401.28466995525116,304.4953130662148 L400.22230297396754,307.15620848422475 M400.22230297396754,307.15620848422475 L400.43094317955735,309.90261311348246 M443.1850239807163,334.4610353863655 L447.99186391964724,334.5030475716335 M447.99186391964724,334.5030475716335 L452.670541802663,333.7795720922329 M452.670541802663,333.7795720922329 L456.8992093379361,332.4228334919358 M456.8992093379361,332.4228334919358 L461.01546344431404,330.4076303686586 M425.15599210121735,295.48319395410226 L420.27332178195945,295.4103042726587 M420.27332178195945,295.4103042726587 L415.5524176432773,296.1056068409679 M415.5524176432773,296.1056068409679 L411.3146384140236,297.4386815235352 M411.3146384140236,297.4386815235352 L407.21823207686293,299.43269011418425 M461.01546344431404,330.4076303686586 L465.2090922933264,327.40476739729644 M465.2090922933264,327.40476739729644 L466.99372229670564,325.339668125303 M466.99372229670564,325.339668125303 L468.0851770631766,322.6877450398336 M468.0851770631766,322.6877450398336 L467.91005782097443,319.95806620821526 M445.89515811673135,302.64621101209696 L438.6345839973381,299.06159062816334 M438.6345839973381,299.06159062816334 L431.7202437685368,296.672385411039 M431.7202437685368,296.672385411039 L428.3941380364556,295.92757438874196 M428.3941380364556,295.92757438874196 L425.15599210121735,295.48319395410226 M467.91005782097443,319.95806620821526 L466.0450643164571,316.53190588478225 M466.0450643164571,316.53190588478225 L461.614271137297,312.28337074066695 M461.614271137297,312.28337074066695 L454.7655931721269,307.7671482289971 M454.7655931721269,307.7671482289971 L445.89515811673135,302.64621101209696 M387.4845920280138,318.99397906952333 L385.63514093254537,316.7444486393959 M385.5632574970303,321.43011620713116 L387.4845920280138,318.99397906952333 M385.63514093254537,316.7444486393959 L381.8464255771072,315.7389011303182 M381.30763320538034,322.56007260743684 L385.5632574970303,321.43011620713116 M381.8464255771072,315.7389011303182 L377.6626422348449,316.86884647470464 M377.375254348845,321.5130481692026 L381.30763320538034,322.56007260743684 M377.6626422348449,316.86884647470464 L375.6694667547991,319.3049744172971 M375.6694667547991,319.3049744172971 L377.375254348845,321.5130481692026 M383.33630822723944,347.9691335102627 L377.9134873535352,344.8382951842213 M378.34433172941607,350.8511776340774 L383.33630822723944,347.9691335102627 M377.9134873535352,344.8382951842213 L372.92151085601205,347.72032356671656 M373.42409027821463,356.5531080545313 L374.7980714217075,353.6552187830489 M374.7980714217075,353.6552187830489 L378.34433172941607,350.8511776340774 M372.92151085601205,347.72032356671656 L370.2533377920818,349.04831947587877 M370.2533377920818,349.04831947587877 L367.5980900760415,350.02676347016774 M367.5980900760415,350.02676347016774 L362.32703319892374,350.93411693756855 M377.2308056112149,361.86113911624955 L374.2321510392727,359.3523611086085 M374.2321510392727,359.3523611086085 L373.42409027821463,356.5531080545313 M362.32703319892374,350.93411693756855 L357.2539604326551,350.4312249854611 M357.2539604326551,350.4312249854611 L352.5228254272688,348.50822130082906 M395.58263212919076,361.8818762375661 L391.0033187592972,363.8627740369402 M391.0033187592972,363.8627740369402 L386.415604415008,364.5203583326729 M386.415604415008,364.5203583326729 L381.8234407282858,363.8523750673176 M381.8234407282858,363.8523750673176 L377.2308056112149,361.86113911624955 M352.5228254272688,348.50822130082906 L349.0036829367169,345.7404947439707 M349.0036829367169,345.7404947439707 L347.8543758117264,342.8685707105753 M400,356.4909067626079 L398.84165550358784,359.29022215682943 M398.84165550358784,359.29022215682943 L395.58263212919076,361.8818762375661 M347.8543758117264,342.8685707105753 L349.08478008543113,339.98107987064424 M349.08478008543113,339.98107987064424 L352.70286246171605,337.16677522469547 M396.04954615679395,351.24512804290043 L399.06617626800676,353.7279533310157 M399.06617626800676,353.7279533310157 L400,356.4909067626079 M352.70286246171605,337.16677522469547 L357.3892019337951,335.17644369749615 M357.3892019337951,335.17644369749615 L362.3994039540507,334.4299335653993 M402.6934829919772,347.409313424699 L396.04954615679395,351.24512804290043 M362.3994039540507,334.4299335653993 L367.3106250479901,334.9327668713381 M367.3106250479901,334.9327668713381 L371.7007377333208,336.6899003213922 M408.4755588005245,355.9932814838925 L407.92479073636844,352.57824512897076 M407.92479073636844,352.57824512897076 L405.9893101799812,349.849225022643 M405.9893101799812,349.849225022643 L402.6934829919772,347.409313424699 M371.7007377333208,336.6899003213922 L378.38058582119106,332.83344892858076 M401.04149500496646,365.0335420421861 L405.2314043491825,361.999349272456 M405.2314043491825,361.999349272456 L407.5265763213191,359.0940594735551 M407.5265763213191,359.0940594735551 L408.4755588005245,355.9932814838925 M378.38058582119106,332.83344892858076 L373.4075796496791,330.6527749564068 M373.4075796496791,330.6527749564068 L368.5368838520284,329.6141556836265 M368.5368838520284,329.6141556836265 L363.24351218893696,329.4227924353307 M385.52673844926704,369.47078473817965 L389.5411770381514,369.13109132970504 M389.5411770381514,369.13109132970504 L393.4654229246634,368.2780383007793 M393.4654229246634,368.2780383007793 L397.29900414185806,366.9119810317484 M397.29900414185806,366.9119810317484 L401.04149500496646,365.0335420421861 M363.24351218893696,329.4227924353307 L357.2101568585157,330.1881021415507 M357.2101568585157,330.1881021415507 L352.1175198976426,331.71436950604965 M352.1175198976426,331.71436950604965 L347.2801756738463,334.0359955136877 M370.4430428640021,365.6141127998724 L375.0771851414826,367.78059262218414 M375.0771851414826,367.78059262218414 L380.1703752560131,369.10427168914543 M380.1703752560131,369.10427168914543 L385.52673844926704,369.47078473817965 M347.2801756738463,334.0359955136877 L343.1389639581362,336.9563649098924 M343.1389639581362,336.9563649098924 L340.52860996039084,340.05279849154664 M340.52860996039084,340.05279849154664 L339.4507158094911,343.3247179812461 M366.04377041210944,360.5237615284582 L367.63727277320595,363.3565335074412 M367.63727277320595,363.3565335074412 L370.4430428640021,365.6141127998724 M339.4507158094911,343.3247179812461 L339.68633834117503,345.78322304221393 M339.68633834117503,345.78322304221393 L340.86043925386514,348.119983696851 M340.86043925386514,348.119983696851 L342.9727286297995,350.3346609200176 M342.9727286297995,350.3346609200176 L346.02236623916286,352.42697804643126 M367.28296128453024,354.29306630661574 L365.85981525511676,357.40575258653234 M365.85981525511676,357.40575258653234 L366.04377041210944,360.5237615284582 M346.02236623916286,352.42697804643126 L350.82090910348967,354.51846756505984 M350.82090910348967,354.51846756505984 L356.09591636613976,355.52675817743835 M356.09591636613976,355.52675817743835 L361.6493072594032,355.45156322104543 M361.6493072594032,355.45156322104543 L367.28296128453024,354.29306630661574 M337.1134357764584,396.7999909527968 L340.8484506965403,398.95652505796835 M310.2165424327448,356.26282719071196 L337.1134357764584,396.7999909527968 M340.8484506965403,398.95652505796835 L376.18896681982716,378.55272760455193 M317.18402509796704,352.24037268669065 L310.2165424327448,356.26282719071196 M376.18896681982716,378.55272760455193 L370.73010460617877,375.4009855712417 M342.42906298394286,391.740462450863 L317.18402509796704,352.24037268669065 M370.73010460617877,375.4009855712417 L342.42906298394286,391.740462450863 M304.1802742937838,390.0194021543362 L297.49998098934805,392.30032678146347 M297.49998098934805,392.30032678146347 L297.17657992815435,394.1458084586627 M297.17657992815435,394.1458084586627 L295.6587282749215,396.6706285520735 M295.6587282749215,396.6706285520735 L292.25581789041723,399.184614023855 M292.25581789041723,399.184614023855 L287.1918706607875,401.1907684660707 M287.1918706607875,401.1907684660707 L281.4811373330302,401.7351412600358 M281.4811373330302,401.7351412600358 L275.64453353770085,400.8381611234836 M275.64453353770085,400.8381611234836 L272.8747828528927,399.85703808398665 M272.8747828528927,399.85703808398665 L270.20425082989476,398.5210649625368 M270.20425082989476,398.5210649625368 L267.736947779849,396.90601889804327 M267.736947779849,396.90601889804327 L265.89978553517756,395.2737876735937 M265.89978553517756,395.2737876735937 L264.11748571999925,391.95818513580093 M264.11748571999925,391.95818513580093 L264.8856176927244,388.77772589918453 M264.8856176927244,388.77772589918453 L268.2303886761084,385.9345022473815 M268.2303886761084,385.9345022473815 L272.6253301421214,384.05543472909847 M272.6253301421214,384.05543472909847 L277.33493913710544,383.3114776179207 M277.33493913710544,383.3114776179207 L282.2600742143331,383.7392367678928 M282.2600742143331,383.7392367678928 L287.30094371196054,385.3746448459392 M287.30094371196054,385.3746448459392 L293.5862735280565,381.7459593237592 M293.5862735280565,381.7459593237592 L288.1537006004486,379.6809215008319 M288.1537006004486,379.6809215008319 L283.14360932171667,378.68859896666083 M283.14360932171667,378.68859896666083 L277.9639598459151,378.4905201286653 M277.9639598459151,378.4905201286653 L272.2090333679293,379.192989464346 M272.2090333679293,379.192989464346 L267.3753839295159,380.6205955710944 M267.3753839295159,380.6205955710944 L262.80770190967075,382.80345617105735 M262.80770190967075,382.80345617105735 L258.4907644974628,385.89198192935703 M258.4907644974628,385.89198192935703 L255.97559719402733,389.13391901750117 M255.97559719402733,389.13391901750117 L255.2644801976874,392.5284216417563 M255.2644801976874,392.5284216417563 L255.8952431641302,395.09781873011275 M255.8952431641302,395.09781873011275 L257.5005932750018,397.5995598079733 M257.5005932750018,397.5995598079733 L260.07975286884005,400.0332977624201 M260.07975286884005,400.0332977624201 L263.6313898816591,402.3986997370911 M263.6313898816591,402.3986997370911 L269.09002771911486,405.01178574835586 M269.09002771911486,405.01178574835586 L274.7468669297973,406.660782919013 M274.7468669297973,406.660782919013 L280.60062996520765,407.3442695264004 M280.60062996520765,407.3442695264004 L284.9523576279138,407.2178701384972 M284.9523576279138,407.2178701384972 L289.08205206934747,406.5379299982745 M289.08205206934747,406.5379299982745 L292.9890730824843,405.3046162407729 M292.9890730824843,405.3046162407729 L296.6729356191915,403.51844501817317 M296.6729356191915,403.51844501817317 L298.90860300588963,402.06444768244125 M298.90860300588963,402.06444768244125 L300.7314453727727,400.5222147025418 M300.7314453727727,400.5222147025418 L302.14131599646373,398.8917980482825 M302.14131599646373,398.8917980482825 L303.13814726062424,397.17323454219513 M303.13814726062424,397.17323454219513 L315.8153581800596,406.317823010859 M315.8153581800596,406.317823010859 L294.6603249305203,418.53157626145577 M294.6603249305203,418.53157626145577 L300.80154032938594,422.07755263198624 M300.80154032938594,422.07755263198624 L327.5954353074177,406.60813491854105 M327.5954353074177,406.60813491854105 L304.1802742937838,390.0194021543362 M488.59035762993085,253.28437847195676 L474.1191063164381,261.6388951348163 M540.87925822688,283.46901867706885 L488.59035762993085,253.28437847195676 M474.1191063164381,261.6388951348163 L469.9922565534684,264.4497056892002 M469.9922565534684,264.4497056892002 L466.89785882679155,267.4108758762048 M466.89785882679155,267.4108758762048 L464.83676531405774,270.5221824303119 M526.120732087463,291.98983305932387 L540.87925822688,283.46901867706885 M464.83676531405774,270.5221824303119 L463.7883804076837,274.35837711769 M463.7883804076837,274.35837711769 L464.05791849946525,277.2530028204971 M464.05791849946525,277.2530028204971 L465.2323323019818,280.1623107033195 M511.03846252219665,297.2143366369124 L518.0971988499589,295.54732823564547 M518.0971988499589,295.54732823564547 L522.2201553026479,293.9731504527203 M522.2201553026479,293.9731504527203 L526.120732087463,291.98983305932387 M465.2323323019818,280.1623107033195 L468.5690527917635,284.36771417133525 M468.5690527917635,284.36771417133525 L471.5943535777595,286.8770551500144 M471.5943535777595,286.8770551500144 L475.34187926669375,289.29466873087654 M494.3575307724755,296.9344494113829 L501.8109905738023,297.7627058381916 M501.8109905738023,297.7627058381916 L506.4372926753836,297.7084905208805 M506.4372926753836,297.7084905208805 L511.03846252219665,297.2143366369124 M475.34187926669375,289.29466873087654 L478.68176120447237,291.22274472675974 M478.68176120447237,291.22274472675974 L483.64669655346313,293.699805602721 M483.64669655346313,293.699805602721 L488.87207801329237,295.6038723037239 M488.87207801329237,295.6038723037239 L494.3575307724755,296.9344494113829 M478.62870116028915,302.9882965063159 L476.77909498671636,300.73882770344613 M476.70758631244763,305.42436514506676 L478.62870116028915,302.9882965063159 M476.77909498671636,300.73882770344613 L472.99035355970227,299.73330883570424 M472.45211044936076,306.5542914171117 L476.70758631244763,305.42436514506676 M472.99035355970227,299.73330883570424 L468.80671735919776,300.8632219910558 M468.5197028424801,305.5072940796285 L472.45211044936076,306.5542914171117 M468.80671735919776,300.8632219910558 L466.81376284748944,303.2992834964043 M466.81376284748944,303.2992834964043 L468.5197028424801,305.5072940796285 M445.1040548676922,295.15062096456865 L446.9535569894373,297.4000291572424 M446.9535569894373,297.4000291572424 L446.95381784526404,284.66109326258857 M445.1040548676922,295.15062096456865 L445.1043054479078,282.41169756923415 M446.9535569894373,297.4000291572424 L445.0324170411245,299.83603391700296 M445.0324170411245,299.83603391700296 L445.03266722437144,287.09708448622115 M441.31542186493243,294.14512809593396 L445.1040548676922,295.15062096456865 M441.31542186493243,294.14512809593396 L441.31565139680646,281.4062102878522 M445.0324170411245,299.83603391700296 L440.77700080984573,300.96592986524627 M440.77700080984573,300.96592986524627 L440.7772273518167,288.22697415600044 M437.1318456750804,295.27501204021945 L441.31542186493243,294.14512809593396 M437.1318456750804,295.27501204021945 L437.13205196489037,282.53608795367796 M440.77700080984573,300.96592986524627 L436.8447056117606,299.9189632706795 M436.8447056117606,299.9189632706795 L436.8449103071635,287.18001337908595 M435.1388656846158,297.7110085548171 L437.1318456750804,295.27501204021945 M435.1388656846158,297.7110085548171 L435.13906090263407,284.9720709321435 M436.8447056117606,299.9189632706795 L435.1388656846158,297.7110085548171 M553.1231517547016,289.13842275291825 L500.8345417049785,258.9539870962281 M500.8345417049785,258.9539870962281 L500.83510188395746,246.2152648420015 M553.1231517547016,289.13842275291825 L553.1240024416578,276.3995327658941 M500.8345417049785,258.9539870962281 L507.76474264744155,254.95301154955246 M507.76474264744155,254.95301154955246 L507.7653413245594,242.21431152912987 M560.0533526731889,285.1372365047789 L553.1231517547016,289.13842275291825 M560.0533526731889,285.1372365047789 L560.0542418582838,272.39836875155913 M507.76474264744155,254.95301154955246 L531.9335164953553,268.90472505576736 M531.9335164953553,268.90472505576736 L531.9342494487942,256.1659475050102 M537.5717842015689,272.1594824631327 L560.0533526731889,285.1372365047789 M537.5717842015689,272.1594824631327 L537.5725484804367,259.42068682580543 M531.9335164953553,268.90472505576736 L558.2893934007369,253.6884583384769 M558.2893934007369,253.6884583384769 L558.2902727619356,240.9497653453298 M563.9276610958004,256.9431293417453 L537.5717842015689,272.1594824631327 M563.9276610958004,256.9431293417453 L563.928571782428,244.2044182620283 M558.2893934007369,253.6884583384769 L534.120619595803,239.73711520584425 M534.120619595803,239.73711520584425 L534.1213646806816,226.99849974303112 M586.4092295187364,269.9205388603081 L563.9276610958004,256.9431293417453 M586.4092295187364,269.9205388603081 L586.4102651115903,257.181755664699 M534.120619595803,239.73711520584425 L541.014683922736,235.75700221658587 M541.014683922736,235.75700221658587 L541.0154673037267,223.01840887238248 M593.3032938157361,265.9402162717729 L586.4092295187364,269.9205388603081 M593.3032938157361,265.9402162717729 L593.3043677047016,253.20145519477387 M541.014683922736,235.75700221658587 L593.3032938157361,265.9402162717729 M422.409258834926,339.9331266821132 L413.7902532731367,334.95712001405224 M413.7902532731367,334.95712001405224 L413.79032988896734,322.2179754326085 M422.409258834926,339.9331266821132 L422.40938333673165,327.19395445240616 M413.7902532731367,334.95712001405224 L405.38767669042846,329.19688304586606 M405.38767669042846,329.19688304586606 L402.1389706827116,325.8296901532013 M402.1389706827116,325.8296901532013 L400.4309407853641,322.64168926547467 M400.4309407853641,322.64168926547467 L400.43094317955735,309.90261311348246 M443.18478405231394,347.20024799406065 L437.3706966749942,346.20223118047977 M437.3706966749942,346.20223118047977 L430.1341351424791,343.7572434697926 M430.1341351424791,343.7572434697926 L422.409258834926,339.9331266821132 M443.18478405231394,347.20024799406065 L443.1850239807163,334.4610353863655 M400.4309407853641,322.64168926547467 L400.33290081930437,319.3569970198416 M400.33290081930437,319.3569970198416 L401.2838383517969,317.2356304739982 M401.2838383517969,317.2356304739982 L403.6158373552308,314.6609027415362 M403.6158373552308,314.6609027415362 L407.2181919748596,312.17170808962356 M407.2181919748596,312.17170808962356 L407.21823207686293,299.43269011418425 M461.01512445432274,343.1468204545348 L455.8659442859291,345.5580349910854 M455.8659442859291,345.5580349910854 L452.783118980686,346.4914856114156 M452.783118980686,346.4914856114156 L449.64198135501204,347.0763383138798 M449.64198135501204,347.0763383138798 L446.44253439055046,347.3125919128152 M446.44253439055046,347.3125919128152 L443.18478405231394,347.20024799406065 M461.01512445432274,343.1468204545348 L461.01546344431404,330.4076303686586 M407.2181919748596,312.17170808962356 L412.3468535820817,309.7873778927309 M412.3468535820817,309.7873778927309 L415.4385713057937,308.8713126728427 M415.4385713057937,308.8713126728427 L418.60397466329715,308.3050937400599 M418.60397466329715,308.3050937400599 L421.84306747078165,308.0887197017324 M421.84306747078165,308.0887197017324 L425.15585234369894,308.22218998372966 M425.15585234369894,308.22218998372966 L425.15599210121735,295.48319395410226 M467.9096805294031,332.69719823274113 L467.968050923152,335.9626839128951 M467.968050923152,335.9626839128951 L466.99423773840317,338.0774861277974 M466.99423773840317,338.0774861277974 L464.6376445090262,340.65102271813515 M464.6376445090262,340.65102271813515 L461.01512445432274,343.1468204545348 M467.9096805294031,332.69719823274113 L467.91005782097443,319.95806620821526 M425.15585234369894,308.22218998372966 L431.04191723485013,309.2369343709519 M431.04191723485013,309.2369343709519 L437.2156758278826,311.22382120421724 M437.2156758278826,311.22382120421724 L441.4913509212828,313.08849716900266 M441.4913509212828,313.08849716900266 L445.89490313837626,315.3852468437087 M445.89490313837626,315.3852468437087 L445.89515811673135,302.64621101209696 M454.76528891120233,320.506212515278 L463.0545471916297,326.2008358110022 M463.0545471916297,326.2008358110022 L466.24690308866843,329.5353949393245 M466.24690308866843,329.5353949393245 L467.9096805294031,332.69719823274113 M454.76528891120233,320.506212515278 L454.7655931721269,307.7671482289971 M445.89490313837626,315.3852468437087 L454.76528891120233,320.506212515278 M385.63522073994403,329.4835628077513 L387.4846615604825,331.7331057371982 M387.4846615604825,331.7331057371982 L387.4845920280138,318.99397906952333 M385.63522073994403,329.4835628077513 L385.63514093254537,316.7444486393959 M387.4846615604825,331.7331057371982 L385.5633377041223,334.16925641093405 M385.5633377041223,334.16925641093405 L385.5632574970303,321.43011620713116 M381.84652643352865,328.47800971142084 L385.63522073994403,329.4835628077513 M381.84652643352865,328.47800971142084 L381.8464255771072,315.7389011303182 M385.5633377041223,334.16925641093405 L381.3077370558065,335.2992190896986 M381.3077370558065,335.2992190896986 L381.30763320538034,322.56007260743684 M377.66276633537393,329.6079613342671 L381.84652643352865,328.47800971142084 M377.66276633537393,329.6079613342671 L377.6626422348449,316.86884647470464 M381.3077370558065,335.2992190896986 L377.37538004653527,334.2521888338068 M377.37538004653527,334.2521888338068 L377.375254348845,321.5130481692026 M375.66960192917804,332.0441028129867 L377.66276633537393,329.6079613342671 M375.66960192917804,332.0441028129867 L375.6694667547991,319.3049744172971 M377.37538004653527,334.2521888338068 L375.66960192917804,332.0441028129867 M377.9136100634279,357.5775654500639 L383.3364008088727,360.7084211714693 M383.3364008088727,360.7084211714693 L383.33630822723944,347.9691335102627 M377.9136100634279,357.5775654500639 L377.9134873535352,344.8382951842213 M383.3364008088727,360.7084211714693 L378.3444520462225,363.59048130822947 M378.3444520462225,363.59048130822947 L378.34433172941607,350.8511776340774 M372.921661301078,360.45960984550464 L377.9136100634279,357.5775654500639 M372.921661301078,360.45960984550464 L372.92151085601205,347.72032356671656 M378.3444520462225,363.59048130822947 L374.79797799171786,366.394805695816 M374.79797799171786,366.394805695816 L373.4242379321429,369.2924434089817 M373.4242379321429,369.2924434089817 L373.42409027821463,356.5531080545313 M362.3272425063128,363.67342107253904 L367.5975040029663,362.76629605220455 M367.5975040029663,362.76629605220455 L370.252848756094,361.7878959763681 M370.252848756094,361.7878959763681 L372.921661301078,360.45960984550464 M362.3272425063128,363.67342107253904 L362.32703319892374,350.93411693756855 M373.4242379321429,369.2924434089817 L374.2322218712245,372.0916095070021 M374.2322218712245,372.0916095070021 L377.2309321158801,374.60050396218423 M377.2309321158801,374.60050396218423 L377.2308056112149,361.86113911624955 M352.52308920533744,361.24751195727123 L357.25454808707264,363.1706145963872 M357.25454808707264,363.1706145963872 L362.3272425063128,363.67342107253904 M352.52308920533744,361.24751195727123 L352.5228254272688,348.50822130082906 M377.2309321158801,374.60050396218423 L381.8255670981237,376.59233566077927 M381.8255670981237,376.59233566077927 L386.4157423610277,377.25973605483125 M386.4157423610277,377.25973605483125 L391.00144527658796,376.60270241665404 M391.00144527658796,376.60270241665404 L395.5826566718972,374.621241198716 M395.5826566718972,374.621241198716 L395.58263212919076,361.8818762375661 M347.8546655257731,355.6078300323118 L349.00374598750943,358.4794985705916 M349.00374598750943,358.4794985705916 L352.52308920533744,361.24751195727123 M347.8546655257731,355.6078300323118 L347.8543758117264,342.8685707105753 M395.5826566718972,374.621241198716 L398.84179674576785,372.0294075657453 M398.84179674576785,372.0294075657453 L400,369.23024177146544 M400,369.23024177146544 L400,356.4909067626079 M352.7031252369187,349.9060028661272 L349.0848081369193,352.7206240210176 M349.0848081369193,352.7206240210176 L347.8546655257731,355.6078300323118 M352.7031252369187,349.9060028661272 L352.70286246171605,337.16677522469547 M400,369.23024177146544 L399.066260366802,366.46737549652966 M399.066260366802,366.46737549652966 L396.0495681051424,363.9844339058769 M396.0495681051424,363.9844339058769 L396.04954615679395,351.24512804290043 M362.39961285634735,347.16914600028497 L357.38979171292226,347.9155603857935 M357.38979171292226,347.9155603857935 L352.7031252369187,349.9060028661272 M362.39961285634735,347.16914600028497 L362.3994039540507,334.4299335653993 M396.0495681051424,363.9844339058769 L402.6934680272902,360.1485979754759 M402.6934680272902,360.1485979754759 L402.6934829919772,347.409313424699 M371.7008949593533,349.4291253131982 L367.3106332295697,347.6719389153638 M367.3106332295697,347.6719389153638 L362.39961285634735,347.16914600028497 M371.7008949593533,349.4291253131982 L371.7007377333208,336.6899003213922 M402.6934680272902,360.1485979754759 L406.305745421174,362.91398128703383 M406.305745421174,362.91398128703383 L408.0709639276168,365.67891285864664 M408.0709639276168,365.67891285864664 L408.47551171092516,368.7326137279237 M408.47551171092516,368.7326137279237 L408.4755588005245,355.9932814838925 M378.3807059346855,345.57265249298274 L371.7008949593533,349.4291253131982 M378.3807059346855,345.57265249298274 L378.38058582119106,332.83344892858076 M408.47551171092516,368.7326137279237 L407.3134969131524,372.2068635505831 M407.3134969131524,372.2068635505831 L404.85048883534455,375.0875558608512 M404.85048883534455,375.0875558608512 L401.041489218449,377.7729245138994 M401.041489218449,377.7729245138994 L401.04149500496646,365.0335420421861 M363.2437164006249,342.1619770491559 L367.4151583971459,342.23907920317146 M367.4151583971459,342.23907920317146 L371.32846589609545,342.8332254923263 M371.32846589609545,342.8332254923263 L374.98364728429067,343.94441574481465 M374.98364728429067,343.94441574481465 L378.3807059346855,345.57265249298274 M363.2437164006249,342.1619770491559 L363.24351218893696,329.4227924353307 M401.041489218449,377.7729245138994 L396.02955758839306,380.16434433302464 M396.02955758839306,380.16434433302464 L390.85800018163644,381.6434339050748 M390.85800018163644,381.6434339050748 L385.5268188626198,382.2101918629208 M385.5268188626198,382.2101918629208 L385.52673844926704,369.47078473817965 M347.28046857581484,346.7752057597534 L352.32627044829974,344.3735588356199 M352.32627044829974,344.3735588356199 L357.6473515823709,342.8358169693294 M357.6473515823709,342.8358169693294 L363.2437164006249,342.1619770491559 M347.28046857581484,346.7752057597534 L347.2801756738463,334.0359955136877 M385.5268188626198,382.2101918629208 L381.540412351099,382.03135268555644 M381.540412351099,382.03135268555644 L377.6976727116897,381.3289565094568 M377.6976727116897,381.3289565094568 L373.9986016569659,380.10300336085555 M373.9986016569659,380.10300336085555 L370.4432070817229,378.35349849720933 M370.4432070817229,378.35349849720933 L370.4430428640021,365.6141127998724 M339.4510522132719,356.0639798374136 L340.47758543759187,352.88183316058064 M340.47758543759187,352.88183316058064 L343.0913030630816,349.7385004408941 M343.0913030630816,349.7385004408941 L347.28046857581484,346.7752057597534 M339.4510522132719,356.0639798374136 L339.4507158094911,343.3247179812461 M370.4432070817229,378.35349849720933 L367.6375314880833,376.0959977813031 M367.6375314880833,376.0959977813031 L366.04395907124115,373.26311894393274 M366.04395907124115,373.26311894393274 L366.04377041210944,360.5237615284582 M346.02266613410774,365.1662904758649 L342.24948679439444,362.43056876588713 M342.24948679439444,362.43056876588713 L339.99276709907775,359.3585974146747 M339.99276709907775,359.3585974146747 L339.4510522132719,356.0639798374136 M346.02266613410774,365.1662904758649 L346.02236623916286,352.42697804643126 M366.04395907124115,373.26311894393274 L365.8599917821555,370.1451534240384 M365.8599917821555,370.1451534240384 L367.2831430577909,367.03238910416405 M367.2831430577909,367.03238910416405 L367.28296128453024,354.29306630661574 M356.09616029399325,368.2660878294449 L350.82145852247066,367.2578751399144 M350.82145852247066,367.2578751399144 L346.02266613410774,365.1662904758649 M356.09616029399325,368.2660878294449 L356.09591636613976,355.52675817743835 M367.2831430577909,367.03238910416405 L361.64923592440726,368.19092567547534 M361.64923592440726,368.19092567547534 L356.09616029399325,368.2660878294449 M340.8487793506391,411.6960959986909 L337.1137851821538,409.5395499125982 M337.1137851821538,409.5395499125982 L337.1134357764584,396.7999909527968 M340.8487793506391,411.6960959986909 L340.8484506965403,398.95652505796835 M337.1137851821538,409.5395499125982 L310.21704126333947,369.0021609323505 M310.21704126333947,369.0021609323505 L310.2165424327448,356.26282719071196 M376.18909911482996,391.2921851873737 L340.8487793506391,411.6960959986909 M376.18909911482996,391.2921851873737 L376.18896681982716,378.55272760455193 M310.21704126333947,369.0021609323505 L317.18448521610213,364.97968407933024 M317.18448521610213,364.97968407933024 L317.18402509796704,352.24037268669065 M370.73026723037987,388.14042564348966 L376.18909911482996,391.2921851873737 M370.73026723037987,388.14042564348966 L370.73010460617877,375.4009855712417 M317.18448521610213,364.97968407933024 L342.42938285393024,404.4799933015826 M342.42938285393024,404.4799933015826 L342.42906298394286,391.740462450863 M342.42938285393024,404.4799933015826 L370.73026723037987,388.14042564348966 M297.5005504901675,405.03986074261803 L304.18080667713616,402.75892344335256 M304.18080667713616,402.75892344335256 L304.1802742937838,390.0194021543362 M297.5005504901675,405.03986074261803 L297.49998098934805,392.30032678146347 M297.1771512267435,406.8853526727272 L297.5005504901675,405.03986074261803 M297.1771512267435,406.8853526727272 L297.17657992815435,394.1458084586627 M292.25641653194964,411.92418623175445 L295.659548058912,409.4099456920367 M295.659548058912,409.4099456920367 L297.1771512267435,406.8853526727272 M292.25641653194964,411.92418623175445 L292.25581789041723,399.184614023855 M281.48179584163836,414.47472763767536 L287.19227220085196,413.93040402674444 M287.19227220085196,413.93040402674444 L292.25641653194964,411.92418623175445 M281.48179584163836,414.47472763767536 L281.4811373330302,401.7351412600358 M270.204971992557,411.26063348400476 L272.87596592735184,412.596813364321 M272.87596592735184,412.596813364321 L275.64576863577815,413.57788964757856 M275.64576863577815,413.57788964757856 L281.48179584163836,414.47472763767536 M270.204971992557,411.26063348400476 L270.20425082989476,398.5210649625368 M264.1182406972264,404.6977171961216 L265.90009993151637,408.0128616485075 M265.90009993151637,408.0128616485075 L267.737158250687,409.6451693341557 M267.737158250687,409.6451693341557 L270.204971992557,411.26063348400476 M264.1182406972264,404.6977171961216 L264.11748571999925,391.95818513580093 M268.23112079777707,398.6740008417837 L264.8862837172123,401.51737365296384 M264.8862837172123,401.51737365296384 L264.1182406972264,404.6977171961216 M268.23112079777707,398.6740008417837 L268.2303886761084,385.9345022473815 M277.3356206716616,396.0509616394127 L272.6263189795348,396.7948422021698 M272.6263189795348,396.7948422021698 L268.23112079777707,398.6740008417837 M277.3356206716616,396.0509616394127 L277.33493913710544,383.3114776179207 M287.30156987591465,398.1141403299106 L282.26029684096403,396.4786258733599 M282.26029684096403,396.4786258733599 L277.3356206716616,396.0509616394127 M287.30156987591465,398.1141403299106 L287.30094371196054,385.3746448459392 M293.5868647684007,394.4854346475666 L287.30156987591465,398.1141403299106 M293.5868647684007,394.4854346475666 L293.5862735280565,381.7459593237592 M277.9646378827427,391.2299773658732 L283.77904026176907,391.50855931175175 M283.77904026176907,391.50855931175175 L288.7675740990104,392.5999349162766 M288.7675740990104,392.5999349162766 L293.5868647684007,394.4854346475666 M277.9646378827427,391.2299773658732 L277.9639598459151,378.4905201286653 M262.80846415810487,395.5429373700936 L267.96691376590456,393.13988427865945 M267.96691376590456,393.13988427865945 L272.8334217474635,391.80698701460915 M272.8334217474635,391.80698701460915 L277.9646378827427,391.2299773658732 M262.80846415810487,395.5429373700936 L262.80770190967075,382.80345617105735 M255.26528436352385,405.26795687013527 L255.62924800633704,402.70838047522824 M255.62924800633704,402.70838047522824 L257.00776547173575,400.23435496906575 M257.00776547173575,400.23435496906575 L259.40083070582574,397.8458793627061 M259.40083070582574,397.8458793627061 L262.80846415810487,395.5429373700936 M255.26528436352385,405.26795687013527 L255.2644801976874,392.5284216417563 M263.6321475665846,415.1382898011941 L259.1112839126307,411.96796811548165 M259.1112839126307,411.96796811548165 L256.32233391624067,408.6778562926878 M256.32233391624067,408.6778562926878 L255.26528436352385,405.26795687013527 M263.6321475665846,415.1382898011941 L263.6313898816591,402.3986997370911 M280.60129336929265,420.08388706595963 L274.9104580917007,419.4330009398995 M274.9104580917007,419.4330009398995 L272.01542969898054,418.7315527805933 M272.01542969898054,418.7315527805933 L269.17071136368145,417.78194417544364 M269.17071136368145,417.78194417544364 L263.6321475665846,415.1382898011941 M280.60129336929265,420.08388706595963 L280.60062996520765,407.3442695264004 M296.6735097207788,416.25804130311946 L291.8554139528119,418.4672722621192 M291.8554139528119,418.4672722621192 L286.4314081868852,419.7813622226624 M286.4314081868852,419.7813622226624 L280.60129336929265,420.08388706595963 M296.6735097207788,416.25804130311946 L296.6729356191915,403.51844501817317 M303.1386854374899,409.91279557560574 L302.14191232830797,411.6312926917428 M302.14191232830797,411.6312926917428 L300.73212188097443,413.26166904413924 M300.73212188097443,413.26166904413924 L298.90932581158484,414.80391628709367 M298.90932581158484,414.80391628709367 L296.6735097207788,416.25804130311946 M303.1386854374899,409.91279557560574 L303.13814726062424,397.17323454219513 M315.8158259244478,419.0574348479429 L303.1386854374899,409.91279557560574 M315.8158259244478,419.0574348479429 L315.8153581800596,406.317823010859 M294.66091022215653,431.2712559519998 L315.8158259244478,419.0574348479429 M294.66091022215653,431.2712559519998 L294.6603249305203,418.53157626145577 M300.8020915007116,434.8172520219177 L294.66091022215653,431.2712559519998 M300.8020915007116,434.8172520219177 L300.80154032938594,422.07755263198624 M327.5958375997676,419.3477483684684 L300.8020915007116,434.8172520219177 M327.5958375997676,419.3477483684684 L327.5954353074177,406.60813491854105 M304.18080667713616,402.75892344335256 L327.5958375997676,419.3477483684684 M474.1186945498692,274.37770309865726 L488.58986547232723,266.0231400097635 M488.58986547232723,266.0231400097635 L488.59035762993085,253.28437847195676 M474.1186945498692,274.37770309865726 L474.1191063164381,261.6388951348163 M488.58986547232723,266.0231400097635 L540.8784755612982,296.2079479476737 M540.8784755612982,296.2079479476737 L540.87925822688,283.46901867706885 M464.83640511247677,283.26103975782223 L467.8136269652283,279.14651269903516 M467.8136269652283,279.14651269903516 L470.60733733766114,276.7101155994708 M470.60733733766114,276.7101155994708 L474.1186945498692,274.37770309865726 M464.83640511247677,283.26103975782223 L464.83676531405774,270.5221824303119 M540.8784755612982,296.2079479476737 L526.1200314088031,304.72880967757914 M526.1200314088031,304.72880967757914 L526.120732087463,291.98983305932387 M465.23196989977515,292.90122159933475 L463.86713970595144,289.0252291203089 M463.86713970595144,289.0252291203089 L463.89929899159733,286.1356644515111 M463.89929899159733,286.1356644515111 L464.83640511247677,283.26103975782223 M465.23196989977515,292.90122159933475 L465.2323323019818,280.1623107033195 M526.1200314088031,304.72880967757914 L519.7716007564923,307.706058862731 M519.7716007564923,307.706058862731 L515.5155889552855,309.03446096665766 M515.5155889552855,309.03446096665766 L511.0378456320597,309.95334228584403 M511.0378456320597,309.95334228584403 L511.03846252219665,297.2143366369124 M475.34146069694697,302.03363037297527 L470.93020054400955,299.1207817591261 M470.93020054400955,299.1207817591261 L467.5603734796349,296.0766440130994 M467.5603734796349,296.0766440130994 L465.23196989977515,292.90122159933475 M475.34146069694697,302.03363037297527 L475.34187926669375,289.29466873087654 M511.0378456320597,309.95334228584403 L504.40435596453653,310.52555475460576 M504.40435596453653,310.52555475460576 L499.3952434944145,310.35606713275104 M499.3952434944145,310.35606713275104 L494.35700655578023,309.6734535050892 M494.35700655578023,309.6734535050892 L494.3575307724755,296.9344494113829 M478.6813240789245,303.9617170825605 L475.34146069694697,302.03363037297527 M478.6813240789245,303.9617170825605 L478.68176120447237,291.22274472675974 M494.35700655578023,309.6734535050892 L487.10189205385853,307.77222274653354 M487.10189205385853,307.77222274653354 L482.801556881437,306.06613160822974 M482.801556881437,306.06613160822974 L478.6813240789245,303.9617170825605 M476.77866842810806,313.4778529365501 L478.62826432503925,315.7273342387459 M478.62826432503925,315.7273342387459 L478.62870116028915,302.9882965063159 M476.77866842810806,313.4778529365501 L476.77909498671636,300.73882770344613 M478.62826432503925,315.7273342387459 L476.7071601493755,318.16341641362203 M476.7071601493755,318.16341641362203 L476.70758631244763,305.42436514506676 M472.98994805041195,312.4723284815585 L476.77866842810806,313.4778529365501 M472.98994805041195,312.4723284815585 L472.99035355970227,299.73330883570424 M476.7071601493755,318.16341641362203 L472.451707927969,319.29334896413377 M472.451707927969,319.29334896413377 L472.45211044936076,306.5542914171117 M468.80633509237396,313.6022479153664 L472.98994805041195,312.4723284815585 M468.80633509237396,313.6022479153664 L468.80671735919776,300.8632219910558 M472.451707927969,319.29334896413377 L468.5193221686696,318.2463458089811 M468.5193221686696,318.2463458089811 L468.5197028424801,305.5072940796285 M466.81339165205713,316.0383229568507 L468.80633509237396,313.6022479153664 M466.81339165205713,316.0383229568507 L466.81376284748944,303.2992834964043 M468.5193221686696,318.2463458089811 L466.81339165205713,316.0383229568507 M418.6383093598893,330.084821730209 L429.51979824348484,336.3669848566666 M429.51979824348484,336.3669848566666 L436.5852955051917,339.90548212743766 M436.5852955051917,339.90548212743766 L440.55813953711845,341.31219025952555 M440.55813953711845,341.31219025952555 L444.1901363770125,342.0997764276872 M444.1901363770125,342.0997764276872 L450.14709173297894,342.0038839310772 M450.14709173297894,342.0038839310772 L455.5562919124702,339.99532751336676 M455.5562919124702,339.99532751336676 L459.00370838486344,336.89568350954795 M459.00370838486344,336.89568350954795 L459.1471805875928,333.4850593380102 M459.1471805875928,333.4850593380102 L457.9934138662185,331.63462262900345 M457.9934138662185,331.63462262900345 L456.0405994280744,329.64942654691407 M456.0405994280744,329.64942654691407 L449.73786376293924,325.2747638573361 M449.73786376293924,325.2747638573361 L439.10775674433023,319.1378518028533 M439.10775674433023,319.1378518028533 L431.9643471469643,315.5749111067488 M431.9643471469643,315.5749111067488 L427.896003887129,314.1466689241545 M427.896003887129,314.1466689241545 L424.1324871988883,313.33272628626594 M424.1324871988883,313.33272628626594 L418.0095881213247,313.36900806402446 M418.0095881213247,313.36900806402446 L412.6408486392672,315.3023162014274 M412.6408486392672,315.3023162014274 L409.30559255829877,318.32668616347564 M409.30559255829877,318.32668616347564 L409.1395284847302,321.7190792555961 M409.1395284847302,321.7190792555961 L410.265152888363,323.5830900575205 M410.265152888363,323.5830900575205 L412.22348731284217,325.5987161742643 M412.22348731284217,325.5987161742643 L418.6383093598893,330.084821730209 M520.2661799579083,301.55679145930463 L528.30973584013,296.9128306813561 M528.30973584013,296.9128306813561 L487.3335679795629,273.2582270578838 M487.3335679795629,273.2582270578838 L480.0800053019346,277.44591107216985 M480.0800053019346,277.44591107216985 L475.7091308800118,280.6051226292064 M475.7091308800118,280.6051226292064 L473.2255379288738,283.9463295740831 M473.2255379288738,283.9463295740831 L472.6292479320316,287.46953105599994 M472.6292479320316,287.46953105599994 L473.71916417357386,290.7101922648504 M473.71916417357386,290.7101922648504 L476.642385036598,294.1828835350622 M476.642385036598,294.1828835350622 L479.16990268471847,296.18494062174204 M479.16990268471847,296.18494062174204 L482.3079351743508,298.1774754614862 M482.3079351743508,298.1774754614862 L485.3604979316254,299.93969282318056 M485.3604979316254,299.93969282318056 L491.32195990459667,302.84448444712416 M491.32195990459667,302.84448444712416 L497.3312397859383,304.70347020915347 M497.3312397859383,304.70347020915347 L503.38833122446573,305.5166304434944 M503.38833122446573,305.5166304434944 L507.8637582513233,305.4324045963337 M507.8637582513233,305.4324045963337 L512.1685430019332,304.7443588111183 M512.1685430019332,304.7443588111183 L516.3026855557714,303.4524838737589 M516.3026855557714,303.4524838737589 L520.2661799579083,301.55679145930463 M429.51979824348484,336.3669848566666 L429.5199622496564,323.62783244154457 M429.5199622496564,323.62783244154457 L418.6384129100893,317.34570422102456 M418.6383093598893,330.084821730209 L418.6384129100893,317.34570422102456 M444.1901363770125,342.0997764276872 L444.1903818899144,329.3605921594654 M444.1903818899144,329.3605921594654 L440.93449319914487,328.67896595965857 M440.93449319914487,328.67896595965857 L437.403534594098,327.49569269071037 M437.403534594098,327.49569269071037 L429.5199622496564,323.62783244154457 M455.5562919124702,339.99532751336676 L455.55660057323763,327.2561549380538 M455.55660057323763,327.2561549380538 L450.1477106356349,329.26463660594504 M450.1477106356349,329.26463660594504 L444.1903818899144,329.3605921594654 M459.1471805875928,333.4850593380102 L459.14750919682587,320.7459229358462 M459.14750919682587,320.7459229358462 L459.0039301739455,324.15672224607175 M459.0039301739455,324.15672224607175 L455.55660057323763,327.2561549380538 M449.73786376293924,325.2747638573361 L449.738140094018,312.5356730748064 M449.738140094018,312.5356730748064 L455.49617953853317,316.4490000312498 M455.49617953853317,316.4490000312498 L457.81513351668644,318.680302405598 M457.81513351668644,318.680302405598 L459.14750919682587,320.7459229358462 M439.10775674433023,319.1378518028533 L439.10797401604106,306.3987951198499 M439.10797401604106,306.3987951198499 L449.738140094018,312.5356730748064 M424.1324871988883,313.33272628626594 L424.13262127152933,300.5937018595653 M424.13262127152933,300.5937018595653 L429.65210601729115,301.96155661807234 M429.65210601729115,301.96155661807234 L434.2041284626387,303.82300768347073 M434.2041284626387,303.82300768347073 L439.10797401604106,306.3987951198499 M412.6408486392672,315.3023162014274 L412.64091886803635,302.56328083062203 M412.64091886803635,302.56328083062203 L418.0095381711496,300.6300088228851 M418.0095381711496,300.6300088228851 L424.13262127152933,300.5937018595653 M409.1395284847302,321.7190792555961 L409.13957926149743,308.9800082300529 M409.13957926149743,308.9800082300529 L409.30571617757937,305.58750183096424 M409.30571617757937,305.58750183096424 L412.64091886803635,302.56328083062203 M418.6384129100893,317.34570422102456 L412.7743004371516,313.3301800227884 M412.7743004371516,313.3301800227884 L410.442844016944,311.0618695253587 M410.442844016944,311.0618695253587 L409.13957926149743,308.9800082300529 M528.30973584013,296.9128306813561 L528.3104486791595,284.173897493921 M528.3104486791595,284.173897493921 L520.2668481127739,288.8178324668381 M520.2661799579083,301.55679145930463 L520.2668481127739,288.8178324668381 M487.3335679795629,273.2582270578838 L487.3340531609161,260.5194253148954 M487.3340531609161,260.5194253148954 L528.3104486791595,284.173897493921 M480.0800053019346,277.44591107216985 L480.0804501877691,264.70708605856726 M480.0804501877691,264.70708605856726 L487.3340531609161,260.5194253148954 M472.6292479320316,287.46953105599994 L472.6296514285846,274.7306503426595 M472.6296514285846,274.7306503426595 L472.90010146741565,272.07067230382023 M472.90010146741565,272.07067230382023 L474.23257367842285,269.51313302145326 M474.23257367842285,269.51313302145326 L476.62648558002235,267.0584807118305 M476.62648558002235,267.0584807118305 L480.0804501877691,264.70708605856726 M482.3079351743508,298.1774754614862 L482.30839244575714,285.4385352467965 M482.30839244575714,285.4385352467965 L477.16537749558984,281.9012837582691 M477.16537749558984,281.9012837582691 L473.93773713328295,278.3316034483318 M473.93773713328295,278.3316034483318 L473.04359191319145,276.5349592661251 M473.04359191319145,276.5349592661251 L472.6296514285846,274.7306503426595 M485.3604979316254,299.93969282318056 L485.3609721626319,287.20074281639955 M485.3609721626319,287.20074281639955 L482.30839244575714,285.4385352467965 M503.38833122446573,305.5166304434944 L503.38890561416684,292.77764944761145 M503.38890561416684,292.77764944761145 L497.498010696722,292.00090454267377 M497.498010696722,292.00090454267377 L491.6543131943356,290.2359423496491 M491.6543131943356,290.2359423496491 L488.50031306071565,288.8636423039762 M488.50031306071565,288.8636423039762 L485.3609721626319,287.20074281639955 M520.2668481127739,288.8178324668381 L514.9458208075083,291.21069005588083 M514.9458208075083,291.21069005588083 L509.3192959010664,292.5310263205842 M509.3192959010664,292.5310263205842 L503.38890561416684,292.77764944761145" stroke="black"  stroke-width="4"  fill="red"/></svg>