<svg viewBox="0 0 800 800" xmlns="http://www.w3.org/2000/svg"><path d="M400,368.1230207226358 L399.99999999999994,113.41143222298876 M179.41329372101748,495.4788149724593 L179.38878680997658,240.7530774011259 M400,368.1230207226358 L179.41329372101748,495.4788149724593 M399.99999999999994,113.41143222298876 L179.38878680997658,240.7530774011259 M841.2224263800468,622.8629073656557 L841.2714510940889,368.12302072263583 M841.2714510940889,368.12302072263583 L399.99999999999994,113.41143222298876 M841.2224263800468,622.8629073656557 L400,368.1230207226358 M620.5943641037751,415.8831015340216 L630.4940940387103,420.2104415013738 M630.4940940387103,420.2104415013738 L639.818879556586,421.5107276193083 M639.818879556586,421.5107276193083 L648.026799256173,419.7083297354012 M648.026799256173,419.7083297354012 L654.6408221443888,414.9079479307178 M654.6408221443888,414.9079479307178 L659.2765201915574,407.38850408735766 M659.2765201915574,407.38850408735766 L661.6644384912772,397.5869444722156 M661.6644384912772,397.5869444722156 L661.6657524766875,386.07289817389903 M661.6657524766875,386.07289817389903 L659.2803505202432,373.51554563958655 M659.2803505202432,373.51554563958655 L654.6468485004577,360.6447215910968 M654.6468485004577,360.6447215910968 L648.0345336407289,348.20848562890325 M648.0345336407289,348.20848562890325 L639.8277262095826,336.9296480794078 M639.8277262095826,336.9296480794078 L630.5034175683994,327.46375490738626 M630.5034175683994,327.46375490738626 L620.603554195391,320.36095019804924 M620.603554195391,320.36095019804924 L610.7035224672001,316.0340123292451 M610.7035224672001,316.0340123292451 L601.3787016688125,314.73437805853445 M601.3787016688125,314.73437805853445 L593.1710212839401,316.53752820814265 M593.1710212839401,316.53752820814265 L586.5574574813794,321.33859036147123 M586.5574574813794,321.33859036147123 L581.9223331187986,328.8584943682436 M581.9223331187986,328.8584943682436 L579.5349716801976,338.660175100327 M579.5349716801976,338.660175100327 L579.5340701614651,350.17398331379553 M579.5340701614651,350.17398331379553 L581.91964569884,362.7307931039326 M581.91964569884,362.7307931039326 L586.5530426491198,375.60088649406595 M586.5530426491198,375.60088649406595 L593.1649978578115,388.03638471176265 M593.1649978578115,388.03638471176265 L601.3712734492613,399.3146388474169 M601.3712734492613,399.3146388474169 L610.6949998995834,408.7802365902873 M610.6949998995834,408.7802365902873 L620.5943641037751,415.8831015340216 M620.6602433518614,495.52127162128136 L179.38878680997658,240.7530774011259 M620.6357255470446,750.2753073349395 L620.6602433518614,495.52127162128136 M179.41329372101748,495.4788149724593 L620.6357255470446,750.2753073349395 M400,543.2627733555045 L390.1005021611245,536.1585613438726 M390.1005021611245,536.1585613438726 L380.7763828150549,526.6915406745496 M380.7763828150549,526.6915406745496 L372.569477894742,515.4118704401262 M372.569477894742,515.4118704401262 L365.9566934923338,502.9750452374068 M365.9566934923338,502.9750452374068 L361.3223156656887,490.10379108296866 M361.3223156656887,490.10379108296866 L358.93566456588644,477.54605419584357 M358.93566456588644,477.54605419584357 L358.9354583410699,466.0316064263468 M358.9354583410699,466.0316064263468 L361.321744233566,456.229610848176 M361.321744233566,456.229610848176 L365.9558877580282,448.70973500933576 M365.9558877580282,448.70973500933576 L372.5686224391324,443.909042412328 M372.5686224391324,443.909042412328 L380.775673612038,442.1065817426086 M380.775673612038,442.1065817426086 L390.1001016840666,443.4071853606406 M390.1001016840666,443.4071853606406 L400.0000000000001,447.7353161177201 M400.0000000000001,447.7353161177201 L409.8999970296377,454.839467932948 M409.8999970296377,454.839467932948 L419.2246986273476,464.3067841366816 M419.2246986273476,464.3067841366816 L427.43213547304623,475.58703793335815 M427.43213547304623,475.58703793335815 L434.04527961746044,488.0246010381393 M434.04527961746044,488.0246010381393 L438.6797625897502,500.89658598197707 M438.6797625897502,500.89658598197707 L441.066240151195,513.454865687032 M441.066240151195,513.454865687032 L441.06603390931866,524.9695515413681 M441.06603390931866,524.9695515413681 L438.67919111310346,534.7714259288273 M438.67919111310346,534.7714259288273 L434.0444738278971,542.2908414732021 M434.0444738278971,542.2908414732021 L427.4312799701653,547.0908535639978 M427.4312799701653,547.0908535639978 L419.22398939686644,548.8925618196104 M419.22398939686644,548.8925618196104 L409.8995965445934,547.5913062491081 M409.8995965445934,547.5913062491081 L400,543.2627733555045 M620.6357255470446,750.2753073349395 L841.2224263800468,622.8629073656557 M620.6602433518614,495.52127162128136 L841.2714510940889,368.12302072263583 M620.5943641037751,415.8831015340216 L400,543.2627733555045" stroke="black"  stroke-width="4"  fill="red"/>
<path d="M399.99999999999994,113.41143222298876 L399.99999999999994,49.7246926650605 M-41.271451094089,368.1230207226358 L-41.28370897489384,304.4292036812229 M399.99999999999994,113.41143222298876 L-41.271451094089,368.1230207226358 M399.99999999999994,49.7246926650605 L-41.28370897489384,304.4292036812229 M841.2714510940889,368.12302072263583 L841.2837089748939,304.429203681223 M841.2714510940889,368.12302072263583 L399.99999999999994,113.41143222298876 M841.2837089748939,304.429203681223 L399.99999999999994,49.7246926650605 M400,622.9478395350188 L400,559.2469450098595 M-41.271451094089,368.1230207226358 L400,622.9478395350188 M-41.28370897489384,304.4292036812229 L400,559.2469450098595 M400,622.9478395350188 L841.2714510940889,368.12302072263583 M441.3145037628709,345.0993877177623 L445.10305257459663,346.1049029335475 M437.13102053869983,346.22929677379614 L441.3145037628709,345.0993877177623 M445.10305257459663,346.1049029335475 L446.952513595036,348.3543611193363 M435.1380848341751,348.66534742841526 L437.13102053869983,346.22929677379614 M446.952513595036,348.3543611193363 L445.0314163358603,350.7904200191009 M436.8438868528319,350.8733512158714 L435.1380848341751,348.66534742841526 M445.0314163358603,350.7904200191009 L440.77609466706525,351.92034107910996 M440.77609466706525,351.92034107910996 L436.8438868528319,350.8733512158714 M560.0497960313398,336.09129592382783 L553.1197491011408,340.09257109978097 M537.5687271707867,323.11325344262536 L560.0497960313398,336.09129592382783 M553.1197491011408,340.09257109978097 L500.8323010511349,309.90746456775366 M563.924018450201,307.8965621189532 L537.5687271707867,323.11325344262536 M500.8323010511349,309.90746456775366 L507.76234800530807,305.906400093265 M586.4050872620733,320.87426007707074 L563.924018450201,307.8965621189532 M507.76234800530807,305.906400093265 L531.9305847628175,319.8584236950022 M593.2989983788698,316.8938490214601 L586.4050872620733,320.87426007707074 M531.9305847628175,319.8584236950022 L558.285876053381,304.6418187754274 M541.0115504855764,286.7099640909417 L593.2989983788698,316.8938490214601 M558.285876053381,304.6418187754274 L534.1176393388487,290.69016554727443 M534.1176393388487,290.69016554727443 L541.0115504855764,286.7099640909417 M443.1838243652925,398.1556867161699 L437.36986619402387,397.1576477236085 M437.36986619402387,397.1576477236085 L430.1334654794905,394.71260567766666 M430.1334654794905,394.71260567766666 L422.4087608415004,390.8884039057171 M461.01376853192306,394.1021690968688 L455.8647027897388,396.5134372181874 M455.8647027897388,396.5134372181874 L452.7819459924673,397.44690858266483 M452.7819459924673,397.44690858266483 L449.64087817107526,398.0317742823397 M449.64087817107526,398.0317742823397 L446.44150230707834,398.268033131547 M446.44150230707834,398.268033131547 L443.1838243652925,398.1556867161699 M422.4087608415004,390.8884039057171 L413.7899468183044,385.9122866538105 M467.9081714049273,383.65231464900984 L467.96654049723656,386.91787289979146 M467.96654049723656,386.91787289979146 L466.99274895038945,389.0327221128491 M466.99274895038945,389.0327221128491 L464.63620808748243,391.6063158957591 M464.63620808748243,391.6063158957591 L461.01376853192306,394.1021690968688 M413.7899468183044,385.9122866538105 L405.38755696302184,380.15192167230686 M405.38755696302184,380.15192167230686 L402.13892314967,376.78465394783103 M402.13892314967,376.78465394783103 L400.4309312088563,373.596582210215 M454.7640719012206,371.4610580011251 L463.053145968409,377.1558078539192 M463.053145968409,377.1558078539192 L466.2454309193636,380.4904410887606 M466.2454309193636,380.4904410887606 L467.9081714049273,383.65231464900984 M400.4309312088563,373.596582210215 L400.3328934214941,370.311816965419 M400.3328934214941,370.311816965419 L401.2838098220536,368.19040327399824 M401.2838098220536,368.19040327399824 L403.6157570034641,365.6156183201555 M403.6157570034641,365.6156183201555 L407.2180315712902,363.12636834752607 M445.8938832532108,366.3399785203551 L454.7640719012206,371.4610580011251 M407.2180315712902,363.12636834752607 L412.34657920932005,360.74198516023495 M412.34657920932005,360.74198516023495 L415.43822822890917,359.82589958125345 M415.43822822890917,359.82589958125345 L418.60356124482803,359.25966806452067 M418.60356124482803,359.25966806452067 L421.84258207311933,359.0432892173784 M421.84258207311933,359.0432892173784 L425.1552933291118,359.1767624656923 M425.1552933291118,359.1767624656923 L431.04122741922924,360.19152940512663 M431.04122741922924,360.19152940512663 L437.21484881714014,362.17846039589284 M437.21484881714014,362.17846039589284 L441.49042889452977,364.0431778019685 M441.49042889452977,364.0431778019685 L445.8938832532108,366.3399785203551 M381.84692984803803,379.43303236180355 L385.63553996069476,380.4386078052847 M377.6632627237378,380.56300909639816 L381.84692984803803,379.43303236180355 M385.63553996069476,380.4386078052847 L387.484939682652,382.68820072784683 M375.6701426117145,382.99920471511837 L377.6632627237378,380.56300909639816 M387.484939682652,382.68820072784683 L385.56365852360227,385.1244055415869 M377.37588282336725,385.20733980751146 L375.6701426117145,382.99920471511837 M385.56365852360227,385.1244055415869 L381.308152446003,386.2543933320963 M381.308152446003,386.2543933320963 L377.37588282336725,385.20733980751146 M372.9222630646698,411.4153432274508 L377.91410088940046,408.5332347855609 M362.328079712674,414.6292258732679 L367.59822408708305,413.72208069442695 M367.59822408708305,413.72208069442695 L370.25350982963755,412.7436588761445 M370.25350982963755,412.7436588761445 L372.9222630646698,411.4153432274508 M377.91410088940046,408.5332347855609 L383.33677112514613,411.66416008262877 M352.52414428838074,412.20326284837535 L357.25549802413434,414.1264082235471 M357.25549802413434,414.1264082235471 L362.328079712674,414.6292258732679 M383.33677112514613,411.66416008262877 L378.3449333001152,414.54628426583804 M347.85582434985474,406.56345559502955 L349.00487927845177,409.43518794940013 M349.00487927845177,409.43518794940013 L352.52414428838074,412.20326284837535 M378.3449333001152,414.54628426583804 L374.7985380607075,417.3506709720855 M374.7985380607075,417.3506709720855 L373.42482853149335,420.2483730772326 M352.70417630860953,400.8615017181761 L349.08593962073195,403.67618542203843 M349.08593962073195,403.67618542203843 L347.85582434985474,406.56345559502955 M373.42482853149335,420.2483730772326 L374.23279451595783,423.04760137866606 M374.23279451595783,423.04760137866606 L377.2314381205217,425.55655158655105 M362.4004484423844,398.12458403121354 L357.39073863184956,398.87101500430424 M357.39073863184956,398.87101500430424 L352.70417630860953,400.8615017181761 M377.2314381205217,425.55655158655105 L381.82597099535093,427.5484275474961 M381.82597099535093,427.5484275474961 L386.4160442492472,428.2158427724403 M386.4160442492472,428.2158427724403 L391.0016452548406,427.5587945337398 M391.0016452548406,427.5587945337398 L395.58275484000313,425.5772892839051 M371.7015238460601,400.3846135676269 L367.31135967928174,398.62738811987197 M367.31135967928174,398.62738811987197 L362.4004484423844,398.12458403121354 M395.58275484000313,425.5772892839051 L398.84182248484996,422.9853980551533 M398.84182248484996,422.9853980551533 L400,420.1861700574604 M378.38118637535297,396.52805504493097 L371.7015238460601,400.3846135676269 M400,420.1861700574604 L399.0662811174642,417.4232423854661 M399.0662811174642,417.4232423854661 L396.04965589610407,414.94024561805395 M363.2445332247467,393.11730380510824 L367.41588252058307,393.19440767258243 M367.41588252058307,393.19440767258243 L371.3291030555709,393.78856716557783 M371.3291030555709,393.78856716557783 L374.9842032162323,394.8997821122487 M374.9842032162323,394.8997821122487 L378.38118637535297,396.52805504493097 M396.04965589610407,414.94024561805395 L402.69340817020026,411.1043244459527 M347.28164015123053,397.7306350361313 L352.3273298896682,395.32893473996586 M352.3273298896682,395.32893473996586 L357.6482927734217,393.7911587001719 M357.6482927734217,393.7911587001719 L363.2445332247467,393.11730380510824 M402.69340817020026,411.1043244459527 L406.3056052879045,413.8697692111807 M406.3056052879045,413.8697692111807 L408.0707845652708,416.6347622261283 M408.0707845652708,416.6347622261283 L408.4753233577462,419.6885309555342 M339.45239779111574,407.01961553701113 L340.47890819914056,403.8373981441226 M340.47890819914056,403.8373981441226 L343.0925677367387,400.69399557054805 M343.0925677367387,400.69399557054805 L347.28164015123053,397.7306350361313 M408.4753233577462,419.6885309555342 L407.31333438319393,423.16285798343006 M407.31333438319393,423.16285798343006 L404.8503810412566,426.04361430846666 M404.8503810412566,426.04361430846666 L401.0414660730203,428.7290426355098 M346.0238656806535,416.1221284516842 L342.2507701898193,413.38634594743115 M342.2507701898193,413.38634594743115 L339.9941006422366,410.314306329327 M339.9941006422366,410.314306329327 L339.45239779111574,407.01961553701113 M401.0414660730203,428.7290426355098 L396.0296458252963,431.12051559629276 M396.0296458252963,431.12051559629276 L390.8582033486164,432.5996380362676 M390.8582033486164,432.5996380362676 L385.5271405071193,433.1664085884318 M356.09713597837566,419.22199468981984 L350.82255142671306,418.2137595955485 M350.82255142671306,418.2137595955485 L346.0238656806535,416.1221284516842 M385.5271405071193,433.1664085884318 L381.54082258737316,432.98756543696055 M381.54082258737316,432.98756543696055 L377.6981683467071,432.28515365242583 M377.6981683467071,432.28515365242583 L373.99917949754604,431.05917326101957 M373.99917949754604,431.05917326101957 L370.44386393440755,429.3096295202402 M367.2838701306898,417.9882685489887 L361.65008820155117,419.1468308655804 M361.65008820155117,419.1468308655804 L356.09713597837566,419.22199468981984 M370.44386393440755,429.3096295202402 L367.6382506910268,427.0520786384472 M367.6382506910268,427.0520786384472 L366.04471368686126,424.2191368489332 M366.04471368686126,424.2191368489332 L365.86075048407423,421.1011020413482 M365.86075048407423,421.1011020413482 L367.2838701306898,417.9882685489887 M376.1896282801803,442.2486037284021 L340.8500939306121,462.6529679335673 M370.73091770916227,439.0967741480547 L376.1896282801803,442.2486037284021 M340.8500939306121,462.6529679335673 L337.1151827662133,460.49637392778055 M342.4306622984315,455.4367048898 L370.73091770916227,439.0967741480547 M337.1151827662133,460.49637392778055 L310.2190365304385,419.95808414989114 M317.18632563765334,415.93551790831856 L342.4306622984315,455.4367048898 M310.2190365304385,419.95808414989114 L317.18632563765334,415.93551790831856 M297.1794363577876,457.84211770987315 L297.50282843033216,455.996584771539 M292.2588110317363,462.8810632349165 L295.66186692221675,460.3667668273329 M295.66186692221675,460.3667668273329 L297.1794363577876,457.84211770987315 M281.48442980309346,465.4316613150787 L287.1947792508693,464.88732560903975 M287.1947792508693,464.88732560903975 L292.2588110317363,462.8810632349165 M270.2078565632849,462.2174957426682 L272.8787911410792,463.5537053136018 M272.8787911410792,463.5537053136018 L275.6485322955746,464.53480339684467 M275.6485322955746,464.53480339684467 L281.48442980309346,465.4316613150787 M264.12126052246714,455.65443362234004 L265.9030801654787,458.96965173968977 M265.9030801654787,458.96965173968977 L267.74009766208053,460.6019956962665 M267.74009766208053,460.6019956962665 L270.2078565632849,462.2174957426682 M268.234049203317,449.6305834154751 L264.8892864651976,452.4740194091939 M264.8892864651976,452.4740194091939 L264.12126052246714,455.65443362234004 M277.33834673435814,447.0074859263168 L272.629149702419,447.751383018937 M272.629149702419,447.751383018937 L268.234049203317,449.6305834154751 M287.3040744623387,449.0707104629141 L282.2629134598567,447.43515966344705 M282.2629134598567,447.43515966344705 L277.33834673435814,447.0074859263168 M293.5892296642561,445.44192414662905 L287.3040744623387,449.0707104629141 M277.967349954913,442.18639452456136 L283.78162311727607,442.46498266089884 M283.78162311727607,442.46498266089884 L288.7700460933729,443.55638251720274 M288.7700460933729,443.55638251720274 L293.5892296642561,445.44192414662905 M262.8115130673683,446.49945036811437 L267.9698480289659,444.09634387794233 M267.9698480289659,444.09634387794233 L272.83624785544936,442.76341699521083 M272.83624785544936,442.76341699521083 L277.967349954913,442.18639452456136 M255.26850093775073,456.2246859675316 L255.63245648469845,453.66505269670745 M255.63245648469845,453.66505269670745 L257.0109433072321,451.19097221539846 M257.0109433072321,451.19097221539846 L259.4039553517314,448.80244353466526 M259.4039553517314,448.80244353466526 L262.8115130673683,446.49945036811437 M263.6351782223176,466.0952382232225 L259.1144150319293,462.92484609149994 M259.1144150319293,462.92484609149994 L256.32552700816865,459.634661160492 M256.32552700816865,459.634661160492 L255.26850093775073,456.2246859675316 M280.6039469121123,471.04094538066227 L274.91323810730285,470.3900447917687 M274.91323810730285,470.3900447917687 L272.01827405254653,469.6885810461112 M272.01827405254653,469.6885810461112 L269.17361893640356,468.7389513403936 M269.17361893640356,468.7389513403936 L263.6351782223176,466.0952382232225 M296.6758060635047,467.21501460644964 L291.8578173782196,469.42429465525385 M291.8578173782196,469.42429465525385 L286.4339321592994,470.7384138151982 M286.4339321592994,470.7384138151982 L280.6039469121123,471.04094538066227 M303.14083808531075,460.8696278845343 L302.1440871316944,462.58816318665504 M302.1440871316944,462.58816318665504 L300.7343280187565,464.218575766836 M300.7343280187565,464.218575766836 L298.9115724623641,465.76085727920685 M298.9115724623641,465.76085727920685 L296.6758060635047,467.21501460644964 M315.81769685016343,470.0144703546432 L303.14083808531075,460.8696278845343 M294.66325132383713,482.2285628499401 L315.81769685016343,470.0144703546432 M300.80429612493066,485.7746377108466 L294.66325132383713,482.2285628499401 M327.597446724584,470.30479032600545 L300.80429612493066,485.7746377108466 M304.18293615154624,453.71559678794114 L327.597446724584,470.30479032600545 M297.50282843033216,455.996584771539 L304.18293615154624,453.71559678794114 M464.83496434606656,334.21505747750496 L467.81212004569676,330.100438970917 M467.81212004569676,330.100438970917 L470.60576834106956,327.66398772067447 M470.60576834106956,327.66398772067447 L474.1170475292209,325.33152338009984 M465.2305203311068,343.85545357519857 L463.86572047099975,339.97937495141065 M463.86572047099975,339.97937495141065 L463.8978790455915,337.08974606104084 M463.8978790455915,337.08974606104084 L464.83496434606656,334.21505747750496 M474.1170475292209,325.33152338009984 L488.58789689644766,316.97677460252896 M475.3397864643426,352.988065316275 L470.9286243421207,350.07515196482797 M470.9286243421207,350.07515196482797 L467.55887216560075,347.0309465629717 M467.55887216560075,347.0309465629717 L465.2305203311068,343.85545357519857 M488.58789689644766,316.97677460252896 L540.8753449856989,347.1622534157776 M478.679575625172,354.9161948771002 L475.3397864643426,352.988065316275 M540.8753449856989,347.1622534157776 L526.1172287718073,355.68330452051805 M494.3549097470891,360.6280582406822 L487.09995647209234,358.7267852281753 M487.09995647209234,358.7267852281753 L482.7997168646313,357.02065617268624 M482.7997168646313,357.02065617268624 L478.679575625172,354.9161948771002 M526.1172287718073,355.68330452051805 L519.7689391872924,358.6606198739093 M519.7689391872924,358.6606198739093 L515.513021960372,359.9890515009604 M515.513021960372,359.9890515009604 L511.03537813987117,360.90795324182056 M511.03537813987117,360.90795324182056 L504.4020358811459,361.48017842769923 M504.4020358811459,361.48017842769923 L499.3930347243176,361.3106870390738 M499.3930347243176,361.3106870390738 L494.3549097470891,360.6280582406822 M472.9883260581861,363.42699542056465 L476.7769622409432,364.4325422226942 M468.8048060674385,364.55693996610665 L472.9883260581861,363.42699542056465 M476.7769622409432,364.4325422226942 L478.6265170324465,366.68207351803164 M466.81190691146173,366.9930691476268 L468.8048060674385,364.55693996610665 M478.6265170324465,366.68207351803164 L476.7054555443116,369.1182098329014 M468.5177995156113,369.2011410712964 L466.81190691146173,366.9930691476268 M476.7054555443116,369.1182098329014 L472.45009788700656,370.24816749518953 M472.45009788700656,370.24816749518953 L468.5177995156113,369.2011410712964 M400,559.2469450098595 L841.2837089748939,304.429203681223 M430.70066895128093,159.34071354538202 L416.230175138229,167.6938647357636 M482.98375684562006,189.52040467851378 L430.70066895128093,159.34071354538202 M416.230175138229,167.6938647357636 L412.10353628656094,170.5042078778652 M412.10353628656094,170.5042078778652 L409.0092277852496,173.46489935100223 M409.0092277852496,173.46489935100223 L406.9481440269652,176.5756947847637 M468.2260099269346,198.03982250061236 L482.98375684562006,189.52040467851378 M406.9481440269652,176.5756947847637 L405.8996634571699,180.41126013580748 M405.8996634571699,180.41126013580748 L406.16902754652386,183.30540809385894 M406.16902754652386,183.30540809385894 L407.3431998449518,186.21424388964186 M453.1447125861848,203.26346977774156 L460.20295788988375,201.5967364987326 M460.20295788988375,201.5967364987326 L464.32564936808643,200.02282052042398 M464.32564936808643,200.02282052042398 L468.2260099269346,198.03982250061236 M407.3431998449518,186.21424388964186 L410.67943371217075,190.41895762156932 M410.67943371217075,190.41895762156932 L413.7043582148086,192.92788637155326 M413.7043582148086,192.92788637155326 L417.45145470599203,195.34510370581697 M436.46516532568506,202.9836341194057 L443.9179658877162,203.81175479398377 M443.9179658877162,203.81175479398377 L448.54389487034894,203.75754266927726 M448.54389487034894,203.75754266927726 L453.1447125861848,203.26346977774156 M417.45145470599203,195.34510370581697 L420.79096557160966,197.27286368965895 M420.79096557160966,197.27286368965895 L425.75537552248284,199.74951857406757 M425.75537552248284,199.74951857406757 L430.9802293089204,201.6532750947395 M430.9802293089204,201.6532750947395 L436.46516532568506,202.9836341194057 M377.0900184191101,218.18843861973272 L382.7276959649643,221.44296513662965 M399.74863507461157,205.10834197338983 L377.0900184191101,218.18843861973272 M382.7276959649643,221.44296513662965 L405.3863126210334,208.36279421813856 M381.2199475012729,194.4123189446216 L399.74863507461157,205.10834197338983 M405.3863126210334,208.36279421813856 L422.1917958093243,218.06406606915647 M354.89855785954427,209.60653404745133 L381.2199475012729,194.4123189446216 M422.1917958093243,218.06406606915647 L396.2294999584267,233.05161011923593 M349.26102411107854,206.35207853609185 L354.89855785954427,209.60653404745133 M396.2294999584267,233.05161011923593 L401.90320583733507,236.32694602195954 M382.4768512653767,187.17810771533254 L349.26102411107854,206.35207853609185 M401.90320583733507,236.32694602195954 L434.7599392015728,217.35926475316032 M434.7599392015728,217.35926475316032 L382.4768512653767,187.17810771533254 M347.2677014454049,214.8406526459589 L345.4184952292344,212.5915297589795 M345.34645848344974,217.27634857117644 L347.2677014454049,214.8406526459589 M345.4184952292344,212.5915297589795 L341.63016362030385,211.5861674142027 M341.0911770791405,218.4060991884325 L345.34645848344974,217.27634857117644 M341.63016362030385,211.5861674142027 L337.4467229298254,212.71590871329286 M337.1591918032665,217.35926285533043 L341.0911770791405,218.4060991884325 M337.4467229298254,212.71590871329286 L335.45363925507513,215.15159371126313 M335.45363925507513,215.15159371126313 L337.1591918032665,217.35926285533043 M378.93905867119264,233.16562158713077 L377.0897673262778,230.91643058581207 M377.017852293121,235.60139538780328 L378.93905867119264,233.16562158713077 M377.0897673262778,230.91643058581207 L373.301340803886,229.91103230138043 M372.7625373652309,236.73118022825065 L377.017852293121,235.60139538780328 M373.301340803886,229.91103230138043 L369.11786445063115,231.04080972107874 M368.83046359588775,235.68431611872404 L372.7625373652309,236.73118022825065 M369.11786445063115,231.04080972107874 L367.1248194984006,233.4765706961271 M367.1248194984006,233.4765706961271 L368.83046359588775,235.68431611872404 M314.10296875622157,252.39295944616947 L322.72106457168394,257.3683323343072 M300.74546676025653,240.079097150343 L302.6595535890638,243.53356628444084 M302.6595535890638,243.53356628444084 L307.16378178245407,247.8244516553525 M307.16378178245407,247.8244516553525 L314.10296875622157,252.39295944616947 M322.72106457168394,257.3683323343072 L330.0799263693681,261.03752432018246 M330.0799263693681,261.03752432018246 L337.0060346929233,263.46134860392374 M337.0060346929233,263.46134860392374 L340.30534379176623,264.2045115073444 M340.30534379176623,264.2045115073444 L343.4948048464199,264.63452603262067 M307.53325658441094,229.61045224402835 L303.364276200693,232.6060236931101 M303.364276200693,232.6060236931101 L301.5996101623551,234.67245475630398 M301.5996101623551,234.67245475630398 L300.5370795005024,237.3330278904685 M300.5370795005024,237.3330278904685 L300.74546676025653,240.079097150343 M343.4948048464199,264.63452603262067 L348.30135513731125,264.67653677762496 M348.30135513731125,264.67653677762496 L352.9798041782322,263.9531457492643 M352.9798041782322,263.9531457492643 L357.2083325368842,262.59657217935097 M357.2083325368842,262.59657217935097 L361.3245136244775,260.5816169049773 M325.47026190164894,225.66143298548104 L320.58789407170497,225.5885514709189 M320.58789407170497,225.5885514709189 L315.867220089585,226.28377112473135 M315.867220089585,226.28377112473135 L311.62958726727015,227.61668680794594 M311.62958726727015,227.61668680794594 L307.53325658441094,229.61045224402835 M361.3245136244775,260.5816169049773 L365.51814487000513,257.57911782034984 M365.51814487000513,257.57911782034984 L367.3028531405049,255.51427342307124 M367.3028531405049,255.51427342307124 L368.3944687357391,252.86267147428316 M368.3944687357391,252.86267147428316 L368.2195975150767,250.13332514806342 M346.207545632555,232.82357965995845 L338.94772377526243,229.2393968639957 M338.94772377526243,229.2393968639957 L332.03401406237697,226.85048172388468 M332.03401406237697,226.85048172388468 L328.70817238551274,226.10575952805658 M328.70817238551274,226.10575952805658 L325.47026190164894,225.66143298548104 M368.2195975150767,250.13332514806342 L366.3550138753799,246.7075793212502 M366.3550138753799,246.7075793212502 L361.92485669979317,242.45956359102541 M361.92485669979317,242.45956359102541 L355.07699349699243,237.943892149283 M355.07699349699243,237.943892149283 L346.207545632555,232.82357965995845 M287.7991140526442,249.16935544577404 L285.94996914260736,246.92009784657176 M285.8776871903185,251.60519725838822 L287.7991140526442,249.16935544577404 M285.94996914260736,246.92009784657176 L282.1615762420456,245.91467528525237 M281.6222213836814,252.73501459383357 L285.8776871903185,251.60519725838822 M282.1615762420456,245.91467528525237 L277.97795165774363,247.0444842506114 M277.69016937748177,251.68811745771785 L281.6222213836814,252.73501459383357 M277.97795165774363,247.0444842506114 L275.98468357516896,249.48031418608537 M275.98468357516896,249.48031418608537 L277.69016937748177,251.68811745771785 M287.09656719726144,272.5020230000517 L280.4169345222931,274.78247814995336 M280.4169345222931,274.78247814995336 L280.09354075929923,276.62757866405127 M280.09354075929923,276.62757866405127 L278.57581036175236,279.151883076888 M278.57581036175236,279.151883076888 L275.17320146912044,281.66535888412193 M275.17320146912044,281.66535888412193 L270.10974671359395,283.6710963763978 M270.10974671359395,283.6710963763978 L264.399585716215,284.2153623205313 M264.399585716215,284.2153623205313 L258.5636001344285,283.3185584702675 M258.5636001344285,283.3185584702675 L255.7941413992408,282.3376403542561 M255.7941413992408,282.3376403542561 L253.1239013728543,281.00194395022106 M253.1239013728543,281.00194395022106 L250.65688679620553,279.3872242196486 M250.65688679620553,279.3872242196486 L248.8199347152987,277.7553261731255 M248.8199347152987,277.7553261731255 L247.037857938648,274.4404094888655 M247.037857938648,274.4404094888655 L247.80596923735976,271.2605970119919 M247.80596923735976,271.2605970119919 L251.15043109477426,268.4179626119787 M251.15043109477426,268.4179626119787 L255.54495088194508,266.5392807664363 M255.54495088194508,266.5392807664363 L260.25409273541345,265.79546738389 M260.25409273541345,265.79546738389 L265.178721533694,266.22314169274284 M265.178721533694,266.22314169274284 L270.2190401024164,267.8582202154616 M270.2190401024164,267.8582202154616 L276.5037895825649,264.2302728584586 M276.5037895825649,264.2302728584586 L271.07179029729514,262.1656616765382 M271.07179029729514,262.1656616765382 L266.06223268856724,261.17354185012175 M266.06223268856724,261.17354185012175 L260.8831133884836,260.9755052776725 M260.8831133884836,260.9755052776725 L255.12877882019725,261.67782643039305 M255.12877882019725,261.67782643039305 L250.29558872783642,263.10514270454337 M250.29558872783642,263.10514270454337 L245.7283491182884,265.28755971661246 M245.7283491182884,265.28755971661246 L241.41181284668693,268.37544743681076 M241.41181284668693,268.37544743681076 L238.89684604910457,271.61672233199846 M238.89684604910457,271.61672233199846 L238.18576124673072,275.01052340475104 M238.18576124673072,275.01052340475104 L238.81642169733507,277.57939401436914 M238.81642169733507,277.57939401436914 L240.42155724911788,280.08063007371777 M240.42155724911788,280.08063007371777 L243.00043101385867,282.5138624764431 M243.00043101385867,282.5138624764431 L246.5516679138787,284.8787790756558 M246.5516679138787,284.8787790756558 L252.00969578639345,287.4913303592907 M252.00969578639345,287.4913303592907 L257.66593715828316,289.1399856925354 M257.66593715828316,289.1399856925354 L263.5190965503,289.82333598246356 M263.5190965503,289.82333598246356 L267.87037673669073,289.6969644042961 M267.87037673669073,289.6969644042961 L271.9996579960216,289.01716365063066 M271.9996579960216,289.01716365063066 L275.9062968973817,287.78409892398724 M275.9062968973817,287.78409892398724 L279.58980514637324,285.9982957606922 M279.58980514637324,285.9982957606922 L281.8252683194947,284.54459079669437 M281.8252683194947,284.54459079669437 L283.6479402395175,283.0026815625684 M283.6479402395175,283.0026815625684 L285.05769063816103,281.37259913882394 M285.05769063816103,281.37259913882394 L286.05444861695094,279.6543860345405 M286.05444861695094,279.6543860345405 L298.7302139548643,288.7971017847506 M298.7302139548643,288.7971017847506 L277.5771705077084,301.00834932675605 M277.5771705077084,301.00834932675605 L283.71770356642935,304.55359876971653 M283.71770356642935,304.55359876971653 L310.50908911082996,289.08734848481106 M310.50908911082996,289.08734848481106 L287.09656719726144,272.5020230000517 M446.95381784526404,284.66109326258857 L445.1043054479078,282.41169756923415 M445.03266722437144,287.09708448622115 L446.95381784526404,284.66109326258857 M445.1043054479078,282.41169756923415 L441.31565139680646,281.4062102878522 M440.7772273518167,288.22697415600044 L445.03266722437144,287.09708448622115 M441.31565139680646,281.4062102878522 L437.13205196489037,282.53608795367796 M436.8449103071635,287.18001337908595 L440.7772273518167,288.22697415600044 M437.13205196489037,282.53608795367796 L435.13906090263407,284.9720709321435 M435.13906090263407,284.9720709321435 L436.8449103071635,287.18001337908595 M500.83510188395746,246.2152648420015 L553.1240024416578,276.3995327658941 M507.7653413245594,242.21431152912987 L500.83510188395746,246.2152648420015 M553.1240024416578,276.3995327658941 L560.0542418582838,272.39836875155913 M531.9342494487942,256.1659475050102 L507.7653413245594,242.21431152912987 M560.0542418582838,272.39836875155913 L537.5725484804367,259.42068682580543 M558.2902727619356,240.9497653453298 L531.9342494487942,256.1659475050102 M537.5725484804367,259.42068682580543 L563.928571782428,244.2044182620283 M534.1213646806816,226.99849974303112 L558.2902727619356,240.9497653453298 M563.928571782428,244.2044182620283 L586.4102651115903,257.181755664699 M541.0154673037267,223.01840887238248 L534.1213646806816,226.99849974303112 M586.4102651115903,257.181755664699 L593.3043677047016,253.20145519477387 M593.3043677047016,253.20145519477387 L541.0154673037267,223.01840887238248 M488.59035762993085,253.28437847195676 L474.1191063164381,261.6388951348163 M540.87925822688,283.46901867706885 L488.59035762993085,253.28437847195676 M474.1191063164381,261.6388951348163 L469.9922565534684,264.4497056892002 M469.9922565534684,264.4497056892002 L466.89785882679155,267.4108758762048 M466.89785882679155,267.4108758762048 L464.83676531405774,270.5221824303119 M526.120732087463,291.98983305932387 L540.87925822688,283.46901867706885 M464.83676531405774,270.5221824303119 L463.7883804076837,274.35837711769 M463.7883804076837,274.35837711769 L464.05791849946525,277.2530028204971 M464.05791849946525,277.2530028204971 L465.2323323019818,280.1623107033195 M511.03846252219665,297.2143366369124 L518.0971988499589,295.54732823564547 M518.0971988499589,295.54732823564547 L522.2201553026479,293.9731504527203 M522.2201553026479,293.9731504527203 L526.120732087463,291.98983305932387 M465.2323323019818,280.1623107033195 L468.5690527917635,284.36771417133525 M468.5690527917635,284.36771417133525 L471.5943535777595,286.8770551500144 M471.5943535777595,286.8770551500144 L475.34187926669375,289.29466873087654 M494.3575307724755,296.9344494113829 L501.8109905738023,297.7627058381916 M501.8109905738023,297.7627058381916 L506.4372926753836,297.7084905208805 M506.4372926753836,297.7084905208805 L511.03846252219665,297.2143366369124 M475.34187926669375,289.29466873087654 L478.68176120447237,291.22274472675974 M478.68176120447237,291.22274472675974 L483.64669655346313,293.699805602721 M483.64669655346313,293.699805602721 L488.87207801329237,295.6038723037239 M488.87207801329237,295.6038723037239 L494.3575307724755,296.9344494113829 M413.79032988896734,322.2179754326085 L422.40938333673165,327.19395445240616 M400.43094317955735,309.90261311348246 L402.3454478398665,313.35750356278135 M402.3454478398665,313.35750356278135 L406.8503231403963,317.648910960715 M406.8503231403963,317.648910960715 L413.79032988896734,322.2179754326085 M422.40938333673165,327.19395445240616 L429.7690124738818,330.86359344433816 M429.7690124738818,330.86359344433816 L436.6957536784884,333.28771289707356 M436.6957536784884,333.28771289707356 L439.9953283755678,334.03096633804626 M439.9953283755678,334.03096633804626 L443.1850239807163,334.4610353863655 M407.21823207686293,299.43269011418425 L403.0492577470846,302.428625716782 M403.0492577470846,302.428625716782 L401.28466995525116,304.4953130662148 M401.28466995525116,304.4953130662148 L400.22230297396754,307.15620848422475 M400.22230297396754,307.15620848422475 L400.43094317955735,309.90261311348246 M443.1850239807163,334.4610353863655 L447.99186391964724,334.5030475716335 M447.99186391964724,334.5030475716335 L452.670541802663,333.7795720922329 M452.670541802663,333.7795720922329 L456.8992093379361,332.4228334919358 M456.8992093379361,332.4228334919358 L461.01546344431404,330.4076303686586 M425.15599210121735,295.48319395410226 L420.27332178195945,295.4103042726587 M420.27332178195945,295.4103042726587 L415.5524176432773,296.1056068409679 M415.5524176432773,296.1056068409679 L411.3146384140236,297.4386815235352 M411.3146384140236,297.4386815235352 L407.21823207686293,299.43269011418425 M461.01546344431404,330.4076303686586 L465.2090922933264,327.40476739729644 M465.2090922933264,327.40476739729644 L466.99372229670564,325.339668125303 M466.99372229670564,325.339668125303 L468.0851770631766,322.6877450398336 M468.0851770631766,322.6877450398336 L467.91005782097443,319.95806620821526 M445.89515811673135,302.64621101209696 L438.6345839973381,299.06159062816334 M438.6345839973381,299.06159062816334 L431.7202437685368,296.672385411039 M431.7202437685368,296.672385411039 L428.3941380364556,295.92757438874196 M428.3941380364556,295.92757438874196 L425.15599210121735,295.48319395410226 M467.91005782097443,319.95806620821526 L466.0450643164571,316.53190588478225 M466.0450643164571,316.53190588478225 L461.614271137297,312.28337074066695 M461.614271137297,312.28337074066695 L454.7655931721269,307.7671482289971 M454.7655931721269,307.7671482289971 L445.89515811673135,302.64621101209696 M478.62870116028915,302.9882965063159 L476.77909498671636,300.73882770344613 M476.70758631244763,305.42436514506676 L478.62870116028915,302.9882965063159 M476.77909498671636,300.73882770344613 L472.99035355970227,299.73330883570424 M472.45211044936076,306.5542914171117 L476.70758631244763,305.42436514506676 M472.99035355970227,299.73330883570424 L468.80671735919776,300.8632219910558 M468.5197028424801,305.5072940796285 L472.45211044936076,306.5542914171117 M468.80671735919776,300.8632219910558 L466.81376284748944,303.2992834964043 M466.81376284748944,303.2992834964043 L468.5197028424801,305.5072940796285 M387.4845920280138,318.99397906952333 L385.63514093254537,316.7444486393959 M385.5632574970303,321.43011620713116 L387.4845920280138,318.99397906952333 M385.63514093254537,316.7444486393959 L381.8464255771072,315.7389011303182 M381.30763320538034,322.56007260743684 L385.5632574970303,321.43011620713116 M381.8464255771072,315.7389011303182 L377.6626422348449,316.86884647470464 M377.375254348845,321.5130481692026 L381.30763320538034,322.56007260743684 M377.6626422348449,316.86884647470464 L375.6694667547991,319.3049744172971 M375.6694667547991,319.3049744172971 L377.375254348845,321.5130481692026 M383.33630822723944,347.9691335102627 L377.9134873535352,344.8382951842213 M378.34433172941607,350.8511776340774 L383.33630822723944,347.9691335102627 M377.9134873535352,344.8382951842213 L372.92151085601205,347.72032356671656 M373.42409027821463,356.5531080545313 L374.7980714217075,353.6552187830489 M374.7980714217075,353.6552187830489 L378.34433172941607,350.8511776340774 M372.92151085601205,347.72032356671656 L370.2533377920818,349.04831947587877 M370.2533377920818,349.04831947587877 L367.5980900760415,350.02676347016774 M367.5980900760415,350.02676347016774 L362.32703319892374,350.93411693756855 M377.2308056112149,361.86113911624955 L374.2321510392727,359.3523611086085 M374.2321510392727,359.3523611086085 L373.42409027821463,356.5531080545313 M362.32703319892374,350.93411693756855 L357.2539604326551,350.4312249854611 M357.2539604326551,350.4312249854611 L352.5228254272688,348.50822130082906 M395.58263212919076,361.8818762375661 L391.0033187592972,363.8627740369402 M391.0033187592972,363.8627740369402 L386.415604415008,364.5203583326729 M386.415604415008,364.5203583326729 L381.8234407282858,363.8523750673176 M381.8234407282858,363.8523750673176 L377.2308056112149,361.86113911624955 M352.5228254272688,348.50822130082906 L349.0036829367169,345.7404947439707 M349.0036829367169,345.7404947439707 L347.8543758117264,342.8685707105753 M400,356.4909067626079 L398.84165550358784,359.29022215682943 M398.84165550358784,359.29022215682943 L395.58263212919076,361.8818762375661 M347.8543758117264,342.8685707105753 L349.08478008543113,339.98107987064424 M349.08478008543113,339.98107987064424 L352.70286246171605,337.16677522469547 M396.04954615679395,351.24512804290043 L399.06617626800676,353.7279533310157 M399.06617626800676,353.7279533310157 L400,356.4909067626079 M352.70286246171605,337.16677522469547 L357.3892019337951,335.17644369749615 M357.3892019337951,335.17644369749615 L362.3994039540507,334.4299335653993 M402.6934829919772,347.409313424699 L396.04954615679395,351.24512804290043 M362.3994039540507,334.4299335653993 L367.3106250479901,334.9327668713381 M367.3106250479901,334.9327668713381 L371.7007377333208,336.6899003213922 M408.4755588005245,355.9932814838925 L407.92479073636844,352.57824512897076 M407.92479073636844,352.57824512897076 L405.9893101799812,349.849225022643 M405.9893101799812,349.849225022643 L402.6934829919772,347.409313424699 M371.7007377333208,336.6899003213922 L378.38058582119106,332.83344892858076 M401.04149500496646,365.0335420421861 L405.2314043491825,361.999349272456 M405.2314043491825,361.999349272456 L407.5265763213191,359.0940594735551 M407.5265763213191,359.0940594735551 L408.4755588005245,355.9932814838925 M378.38058582119106,332.83344892858076 L373.4075796496791,330.6527749564068 M373.4075796496791,330.6527749564068 L368.5368838520284,329.6141556836265 M368.5368838520284,329.6141556836265 L363.24351218893696,329.4227924353307 M385.52673844926704,369.47078473817965 L389.5411770381514,369.13109132970504 M389.5411770381514,369.13109132970504 L393.4654229246634,368.2780383007793 M393.4654229246634,368.2780383007793 L397.29900414185806,366.9119810317484 M397.29900414185806,366.9119810317484 L401.04149500496646,365.0335420421861 M363.24351218893696,329.4227924353307 L357.2101568585157,330.1881021415507 M357.2101568585157,330.1881021415507 L352.1175198976426,331.71436950604965 M352.1175198976426,331.71436950604965 L347.2801756738463,334.0359955136877 M370.4430428640021,365.6141127998724 L375.0771851414826,367.78059262218414 M375.0771851414826,367.78059262218414 L380.1703752560131,369.10427168914543 M380.1703752560131,369.10427168914543 L385.52673844926704,369.47078473817965 M347.2801756738463,334.0359955136877 L343.1389639581362,336.9563649098924 M343.1389639581362,336.9563649098924 L340.52860996039084,340.05279849154664 M340.52860996039084,340.05279849154664 L339.4507158094911,343.3247179812461 M366.04377041210944,360.5237615284582 L367.63727277320595,363.3565335074412 M367.63727277320595,363.3565335074412 L370.4430428640021,365.6141127998724 M339.4507158094911,343.3247179812461 L339.68633834117503,345.78322304221393 M339.68633834117503,345.78322304221393 L340.86043925386514,348.119983696851 M340.86043925386514,348.119983696851 L342.9727286297995,350.3346609200176 M342.9727286297995,350.3346609200176 L346.02236623916286,352.42697804643126 M367.28296128453024,354.29306630661574 L365.85981525511676,357.40575258653234 M365.85981525511676,357.40575258653234 L366.04377041210944,360.5237615284582 M346.02236623916286,352.42697804643126 L350.82090910348967,354.51846756505984 M350.82090910348967,354.51846756505984 L356.09591636613976,355.52675817743835 M356.09591636613976,355.52675817743835 L361.6493072594032,355.45156322104543 M361.6493072594032,355.45156322104543 L367.28296128453024,354.29306630661574 M337.1134357764584,396.7999909527968 L340.8484506965403,398.95652505796835 M310.2165424327448,356.26282719071196 L337.1134357764584,396.7999909527968 M340.8484506965403,398.95652505796835 L376.18896681982716,378.55272760455193 M317.18402509796704,352.24037268669065 L310.2165424327448,356.26282719071196 M376.18896681982716,378.55272760455193 L370.73010460617877,375.4009855712417 M342.42906298394286,391.740462450863 L317.18402509796704,352.24037268669065 M370.73010460617877,375.4009855712417 L342.42906298394286,391.740462450863 M304.1802742937838,390.0194021543362 L297.49998098934805,392.30032678146347 M327.5954353074177,406.60813491854105 L304.1802742937838,390.0194021543362 M297.49998098934805,392.30032678146347 L297.17657992815435,394.1458084586627 M300.80154032938594,422.07755263198624 L327.5954353074177,406.60813491854105 M297.17657992815435,394.1458084586627 L295.6587282749215,396.6706285520735 M295.6587282749215,396.6706285520735 L292.25581789041723,399.184614023855 M294.6603249305203,418.53157626145577 L300.80154032938594,422.07755263198624 M292.25581789041723,399.184614023855 L287.1918706607875,401.1907684660707 M287.1918706607875,401.1907684660707 L281.4811373330302,401.7351412600358 M315.8153581800596,406.317823010859 L294.6603249305203,418.53157626145577 M281.4811373330302,401.7351412600358 L275.64453353770085,400.8381611234836 M275.64453353770085,400.8381611234836 L272.8747828528927,399.85703808398665 M272.8747828528927,399.85703808398665 L270.20425082989476,398.5210649625368 M303.13814726062424,397.17323454219513 L315.8153581800596,406.317823010859 M270.20425082989476,398.5210649625368 L267.736947779849,396.90601889804327 M267.736947779849,396.90601889804327 L265.89978553517756,395.2737876735937 M265.89978553517756,395.2737876735937 L264.11748571999925,391.95818513580093 M296.6729356191915,403.51844501817317 L298.90860300588963,402.06444768244125 M298.90860300588963,402.06444768244125 L300.7314453727727,400.5222147025418 M300.7314453727727,400.5222147025418 L302.14131599646373,398.8917980482825 M302.14131599646373,398.8917980482825 L303.13814726062424,397.17323454219513 M264.11748571999925,391.95818513580093 L264.8856176927244,388.77772589918453 M264.8856176927244,388.77772589918453 L268.2303886761084,385.9345022473815 M280.60062996520765,407.3442695264004 L284.9523576279138,407.2178701384972 M284.9523576279138,407.2178701384972 L289.08205206934747,406.5379299982745 M289.08205206934747,406.5379299982745 L292.9890730824843,405.3046162407729 M292.9890730824843,405.3046162407729 L296.6729356191915,403.51844501817317 M268.2303886761084,385.9345022473815 L272.6253301421214,384.05543472909847 M272.6253301421214,384.05543472909847 L277.33493913710544,383.3114776179207 M263.6313898816591,402.3986997370911 L269.09002771911486,405.01178574835586 M269.09002771911486,405.01178574835586 L274.7468669297973,406.660782919013 M274.7468669297973,406.660782919013 L280.60062996520765,407.3442695264004 M277.33493913710544,383.3114776179207 L282.2600742143331,383.7392367678928 M282.2600742143331,383.7392367678928 L287.30094371196054,385.3746448459392 M255.2644801976874,392.5284216417563 L255.8952431641302,395.09781873011275 M255.8952431641302,395.09781873011275 L257.5005932750018,397.5995598079733 M257.5005932750018,397.5995598079733 L260.07975286884005,400.0332977624201 M260.07975286884005,400.0332977624201 L263.6313898816591,402.3986997370911 M287.30094371196054,385.3746448459392 L293.5862735280565,381.7459593237592 M262.80770190967075,382.80345617105735 L258.4907644974628,385.89198192935703 M258.4907644974628,385.89198192935703 L255.97559719402733,389.13391901750117 M255.97559719402733,389.13391901750117 L255.2644801976874,392.5284216417563 M293.5862735280565,381.7459593237592 L288.1537006004486,379.6809215008319 M288.1537006004486,379.6809215008319 L283.14360932171667,378.68859896666083 M283.14360932171667,378.68859896666083 L277.9639598459151,378.4905201286653 M277.9639598459151,378.4905201286653 L272.2090333679293,379.192989464346 M272.2090333679293,379.192989464346 L267.3753839295159,380.6205955710944 M267.3753839295159,380.6205955710944 L262.80770190967075,382.80345617105735 M445.10305257459663,346.1049029335475 L445.1043054479078,282.41169756923415 M441.3145037628709,345.0993877177623 L441.31565139680646,281.4062102878522 M437.13102053869983,346.22929677379614 L437.13205196489037,282.53608795367796 M446.952513595036,348.3543611193363 L446.95381784526404,284.66109326258857 M435.1380848341751,348.66534742841526 L435.13906090263407,284.9720709321435 M445.0314163358603,350.7904200191009 L445.03266722437144,287.09708448622115 M436.8438868528319,350.8733512158714 L436.8449103071635,287.18001337908595 M440.77609466706525,351.92034107910996 L440.7772273518167,288.22697415600044 M553.1197491011408,340.09257109978097 L553.1240024416578,276.3995327658941 M560.0497960313398,336.09129592382783 L560.0542418582838,272.39836875155913 M537.5687271707867,323.11325344262536 L537.5725484804367,259.42068682580543 M500.8323010511349,309.90746456775366 L500.83510188395746,246.2152648420015 M563.924018450201,307.8965621189532 L563.928571782428,244.2044182620283 M507.76234800530807,305.906400093265 L507.7653413245594,242.21431152912987 M586.4050872620733,320.87426007707074 L586.4102651115903,257.181755664699 M531.9305847628175,319.8584236950022 L531.9342494487942,256.1659475050102 M593.2989983788698,316.8938490214601 L593.3043677047016,253.20145519477387 M558.285876053381,304.6418187754274 L558.2902727619356,240.9497653453298 M541.0115504855764,286.7099640909417 L541.0154673037267,223.01840887238248 M534.1176393388487,290.69016554727443 L534.1213646806816,226.99849974303112 M422.4087608415004,390.8884039057171 L422.40938333673165,327.19395445240616 M443.1838243652925,398.1556867161699 L443.1850239807163,334.4610353863655 M461.01376853192306,394.1021690968688 L461.01546344431404,330.4076303686586 M413.7899468183044,385.9122866538105 L413.79032988896734,322.2179754326085 M467.9081714049273,383.65231464900984 L467.91005782097443,319.95806620821526 M400.4309312088563,373.596582210215 L400.43094317955735,309.90261311348246 M454.7640719012206,371.4610580011251 L454.7655931721269,307.7671482289971 M407.2180315712902,363.12636834752607 L407.21823207686293,299.43269011418425 M445.8938832532108,366.3399785203551 L445.89515811673135,302.64621101209696 M425.1552933291118,359.1767624656923 L425.15599210121735,295.48319395410226 M385.63553996069476,380.4386078052847 L385.63514093254537,316.7444486393959 M381.84692984803803,379.43303236180355 L381.8464255771072,315.7389011303182 M377.6632627237378,380.56300909639816 L377.6626422348449,316.86884647470464 M387.484939682652,382.68820072784683 L387.4845920280138,318.99397906952333 M375.6701426117145,382.99920471511837 L375.6694667547991,319.3049744172971 M385.56365852360227,385.1244055415869 L385.5632574970303,321.43011620713116 M377.37588282336725,385.20733980751146 L377.375254348845,321.5130481692026 M381.308152446003,386.2543933320963 L381.30763320538034,322.56007260743684 M377.91410088940046,408.5332347855609 L377.9134873535352,344.8382951842213 M372.9222630646698,411.4153432274508 L372.92151085601205,347.72032356671656 M362.328079712674,414.6292258732679 L362.32703319892374,350.93411693756855 M383.33677112514613,411.66416008262877 L383.33630822723944,347.9691335102627 M352.52414428838074,412.20326284837535 L352.5228254272688,348.50822130082906 M378.3449333001152,414.54628426583804 L378.34433172941607,350.8511776340774 M347.85582434985474,406.56345559502955 L347.8543758117264,342.8685707105753 M373.42482853149335,420.2483730772326 L373.42409027821463,356.5531080545313 M352.70417630860953,400.8615017181761 L352.70286246171605,337.16677522469547 M377.2314381205217,425.55655158655105 L377.2308056112149,361.86113911624955 M362.4004484423844,398.12458403121354 L362.3994039540507,334.4299335653993 M395.58275484000313,425.5772892839051 L395.58263212919076,361.8818762375661 M371.7015238460601,400.3846135676269 L371.7007377333208,336.6899003213922 M400,420.1861700574604 L400,356.4909067626079 M378.38118637535297,396.52805504493097 L378.38058582119106,332.83344892858076 M396.04965589610407,414.94024561805395 L396.04954615679395,351.24512804290043 M363.2445332247467,393.11730380510824 L363.24351218893696,329.4227924353307 M402.69340817020026,411.1043244459527 L402.6934829919772,347.409313424699 M347.28164015123053,397.7306350361313 L347.2801756738463,334.0359955136877 M408.4753233577462,419.6885309555342 L408.4755588005245,355.9932814838925 M339.45239779111574,407.01961553701113 L339.4507158094911,343.3247179812461 M401.0414660730203,428.7290426355098 L401.04149500496646,365.0335420421861 M346.0238656806535,416.1221284516842 L346.02236623916286,352.42697804643126 M385.5271405071193,433.1664085884318 L385.52673844926704,369.47078473817965 M356.09713597837566,419.22199468981984 L356.09591636613976,355.52675817743835 M370.44386393440755,429.3096295202402 L370.4430428640021,365.6141127998724 M367.2838701306898,417.9882685489887 L367.28296128453024,354.29306630661574 M366.04471368686126,424.2191368489332 L366.04377041210944,360.5237615284582 M340.8500939306121,462.6529679335673 L340.8484506965403,398.95652505796835 M376.1896282801803,442.2486037284021 L376.18896681982716,378.55272760455193 M370.73091770916227,439.0967741480547 L370.73010460617877,375.4009855712417 M337.1151827662133,460.49637392778055 L337.1134357764584,396.7999909527968 M342.4306622984315,455.4367048898 L342.42906298394286,391.740462450863 M310.2190365304385,419.95808414989114 L310.2165424327448,356.26282719071196 M317.18632563765334,415.93551790831856 L317.18402509796704,352.24037268669065 M297.50282843033216,455.996584771539 L297.49998098934805,392.30032678146347 M297.1794363577876,457.84211770987315 L297.17657992815435,394.1458084586627 M292.2588110317363,462.8810632349165 L292.25581789041723,399.184614023855 M281.48442980309346,465.4316613150787 L281.4811373330302,401.7351412600358 M270.2078565632849,462.2174957426682 L270.20425082989476,398.5210649625368 M264.12126052246714,455.65443362234004 L264.11748571999925,391.95818513580093 M268.234049203317,449.6305834154751 L268.2303886761084,385.9345022473815 M277.33834673435814,447.0074859263168 L277.33493913710544,383.3114776179207 M287.3040744623387,449.0707104629141 L287.30094371196054,385.3746448459392 M293.5892296642561,445.44192414662905 L293.5862735280565,381.7459593237592 M277.967349954913,442.18639452456136 L277.9639598459151,378.4905201286653 M262.8115130673683,446.49945036811437 L262.80770190967075,382.80345617105735 M255.26850093775073,456.2246859675316 L255.2644801976874,392.5284216417563 M263.6351782223176,466.0952382232225 L263.6313898816591,402.3986997370911 M280.6039469121123,471.04094538066227 L280.60062996520765,407.3442695264004 M296.6758060635047,467.21501460644964 L296.6729356191915,403.51844501817317 M303.14083808531075,460.8696278845343 L303.13814726062424,397.17323454219513 M315.81769685016343,470.0144703546432 L315.8153581800596,406.317823010859 M294.66325132383713,482.2285628499401 L294.6603249305203,418.53157626145577 M300.80429612493066,485.7746377108466 L300.80154032938594,422.07755263198624 M327.597446724584,470.30479032600545 L327.5954353074177,406.60813491854105 M304.18293615154624,453.71559678794114 L304.1802742937838,390.0194021543362 M474.1170475292209,325.33152338009984 L474.1191063164381,261.6388951348163 M464.83496434606656,334.21505747750496 L464.83676531405774,270.5221824303119 M465.2305203311068,343.85545357519857 L465.2323323019818,280.1623107033195 M488.58789689644766,316.97677460252896 L488.59035762993085,253.28437847195676 M475.3397864643426,352.988065316275 L475.34187926669375,289.29466873087654 M540.8753449856989,347.1622534157776 L540.87925822688,283.46901867706885 M478.679575625172,354.9161948771002 L478.68176120447237,291.22274472675974 M526.1172287718073,355.68330452051805 L526.120732087463,291.98983305932387 M494.3549097470891,360.6280582406822 L494.3575307724755,296.9344494113829 M511.03537813987117,360.90795324182056 L511.03846252219665,297.2143366369124 M476.7769622409432,364.4325422226942 L476.77909498671636,300.73882770344613 M472.9883260581861,363.42699542056465 L472.99035355970227,299.73330883570424 M468.8048060674385,364.55693996610665 L468.80671735919776,300.8632219910558 M478.6265170324465,366.68207351803164 L478.62870116028915,302.9882965063159 M466.81190691146173,366.9930691476268 L466.81376284748944,303.2992834964043 M476.7054555443116,369.1182098329014 L476.70758631244763,305.42436514506676 M468.5177995156113,369.2011410712964 L468.5197028424801,305.5072940796285 M472.45009788700656,370.24816749518953 L472.45211044936076,306.5542914171117 M416.2300849793458,180.43215060827148 L430.7004984098152,172.0789529918378 M430.7004984098152,172.0789529918378 L430.70066895128093,159.34071354538202 M416.2300849793458,180.43215060827148 L416.230175138229,167.6938647357636 M430.7004984098152,172.0789529918378 L482.9832958607423,202.2588118577469 M482.9832958607423,202.2588118577469 L482.98375684562006,189.52040467851378 M406.9481054296147,189.31403002093074 L409.92530892457034,185.2001724545469 M409.92530892457034,185.2001724545469 L412.7189011709409,182.76417521857203 M412.7189011709409,182.76417521857203 L416.2300849793458,180.43215060827148 M406.9481054296147,189.31403002093074 L406.9481440269652,176.5756947847637 M482.9832958607423,202.2588118577469 L468.22563092032175,210.77827702749352 M468.22563092032175,210.77827702749352 L468.2260099269346,198.03982250061236 M407.3431590526997,198.95263269431527 L405.97863806303013,195.0772726344384 M405.97863806303013,195.0772726344384 L406.01093856055235,192.18818037080365 M406.01093856055235,192.18818037080365 L406.9481054296147,189.31403002093074 M407.3431590526997,198.95263269431527 L407.3431998449518,186.21424388964186 M468.22563092032175,210.77827702749352 L461.8775767756026,213.755042037802 M461.8775767756026,213.755042037802 L457.62183682677744,215.08322831433807 M457.62183682677744,215.08322831433807 L453.14441735729315,216.00195333529757 M453.14441735729315,216.00195333529757 L453.1447125861848,203.26346977774156 M417.45135776054275,208.08354325656342 L413.04060620247105,205.17116826000873 M413.04060620247105,205.17116826000873 L409.6712090123316,202.12753323916198 M409.6712090123316,202.12753323916198 L407.3431590526997,198.95263269431527 M417.45135776054275,208.08354325656342 L417.45145470599203,195.34510370581697 M453.14441735729315,216.00195333529757 L446.5114391459688,216.57407771163312 M446.5114391459688,216.57407771163312 L441.5027556111381,216.4046159710639 M441.5027556111381,216.4046159710639 L436.46496275487056,215.72211612176812 M436.46496275487056,215.72211612176812 L436.46516532568506,202.9836341194057 M420.79085007448214,210.01131395410684 L417.45135776054275,208.08354325656342 M420.79085007448214,210.01131395410684 L420.79096557160966,197.27286368965895 M436.46496275487056,215.72211612176812 L429.21052897376927,213.82119507734623 M429.21052897376927,213.82119507734623 L424.91064552574346,212.11538356712407 M424.91064552574346,212.11538356712407 L420.79085007448214,210.01131395410684 M382.7277919173893,234.1815497255571 L377.0901456900314,230.9270051220746 M377.0901456900314,230.9270051220746 L377.0900184191101,218.18843861973272 M382.7277919173893,234.1815497255571 L382.7276959649643,221.44296513662965 M377.0901456900314,230.9270051220746 L399.74863647099335,217.84683578384994 M399.74863647099335,217.84683578384994 L399.74863507461157,205.10834197338983 M405.3862826989189,221.101306115184 L382.7277919173893,234.1815497255571 M405.3862826989189,221.101306115184 L405.3863126210334,208.36279421813856 M399.74863647099335,217.84683578384994 L381.22005182719744,207.15075331131902 M381.22005182719744,207.15075331131902 L381.2199475012729,194.4123189446216 M422.1916725281255,230.80263188031284 L405.3862826989189,221.101306115184 M422.1916725281255,230.80263188031284 L422.1917958093243,218.06406606915647 M381.22005182719744,207.15075331131902 L354.89880840793955,222.3450528565412 M354.89880840793955,222.3450528565412 L354.89855785954427,209.60653404745133 M396.22952090480914,245.79025922078227 L422.1916725281255,230.80263188031284 M396.22952090480914,245.79025922078227 L396.2294999584267,233.05161011923593 M354.89880840793955,222.3450528565412 L349.261305976409,219.09057925861748 M349.261305976409,219.09057925861748 L349.26102411107854,206.35207853609185 M401.90319526436315,249.06561332526456 L396.22952090480914,245.79025922078227 M401.90319526436315,249.06561332526456 L401.90320583733507,236.32694602195954 M349.261305976409,219.09057925861748 L382.47694860840363,199.91650187685664 M382.47694860840363,199.91650187685664 L382.4768512653767,187.17810771533254 M434.75974610118675,230.09782664746552 L401.90319526436315,249.06561332526456 M434.75974610118675,230.09782664746552 L434.7599392015728,217.35926475316032 M382.47694860840363,199.91650187685664 L434.75974610118675,230.09782664746552 M345.41879844224474,225.33006515702652 L347.2679943862175,227.5792005433314 M347.2679943862175,227.5792005433314 L347.2677014454049,214.8406526459589 M345.41879844224474,225.33006515702652 L345.4184952292344,212.5915297589795 M347.2679943862175,227.5792005433314 L345.3467620978819,230.01491000468428 M345.3467620978819,230.01491000468428 L345.34645848344974,217.27634857117644 M341.6304878780969,224.32469722501088 L345.41879844224474,225.33006515702652 M341.6304878780969,224.32469722501088 L341.63016362030385,211.5861674142027 M345.3467620978819,230.01491000468428 L341.0915043330741,231.14466690039632 M341.0915043330741,231.14466690039632 L341.0911770791405,218.4060991884325 M337.44707042793095,225.4544448025676 L341.6304878780969,224.32469722501088 M337.44707042793095,225.4544448025676 L337.4467229298254,212.71590871329286 M341.0915043330741,231.14466690039632 L337.15954090008887,230.09782474962503 M337.15954090008887,230.09782474962503 L337.1591918032665,217.35926285533043 M335.4539978259892,227.89014333666262 L337.44707042793095,225.4544448025676 M335.4539978259892,227.89014333666262 L335.45363925507513,215.15159371126313 M337.15954090008887,230.09782474962503 L335.4539978259892,227.89014333666262 M377.0898946000072,243.65506782164226 L378.93917567174185,245.90427132226552 M378.93917567174185,245.90427132226552 L378.93905867119264,233.16562158713077 M377.0898946000072,243.65506782164226 L377.0897673262778,230.91643058581207 M378.93917567174185,245.90427132226552 L377.0179799668834,248.34005865907352 M377.0179799668834,248.34005865907352 L377.017852293121,235.60139538780328 M373.3014891234161,242.64966394995065 L377.0898946000072,243.65506782164226 M373.3014891234161,242.64966394995065 L373.301340803886,229.91103230138043 M377.0179799668834,248.34005865907352 L372.76268867888547,249.46984977796637 M372.76268867888547,249.46984977796637 L372.7625373652309,236.73118022825065 M369.11803601086996,243.7794476481156 L373.3014891234161,242.64966394995065 M369.11803601086996,243.7794476481156 L369.11786445063115,231.04080972107874 M372.76268867888547,249.46984977796637 L368.83063675343254,248.42297985080222 M368.83063675343254,248.42297985080222 L368.83046359588775,235.68431611872404 M367.12500213103596,246.21522215927837 L369.11803601086996,243.7794476481156 M367.12500213103596,246.21522215927837 L367.1248194984006,233.4765706961271 M368.83063675343254,248.42297985080222 L367.12500213103596,246.21522215927837 M322.7214938909935,270.10711656672277 L314.10344595086576,265.1317160303224 M314.10344595086576,265.1317160303224 L314.10296875622157,252.39295944616947 M322.7214938909935,270.10711656672277 L322.72106457168394,257.3683323343072 M314.10344595086576,265.1317160303224 L305.7018824021448,259.3721804810379 M305.7018824021448,259.3721804810379 L302.4536643647589,256.00539644066544 M302.4536643647589,256.00539644066544 L300.7460181555983,252.8177853050455 M300.7460181555983,252.8177853050455 L300.74546676025653,240.079097150343 M343.495118760231,277.3733506430123 L337.6814718733567,276.3754556369538 M337.6814718733567,276.3754556369538 L330.4455639011233,273.93076563566746 M330.4455639011233,273.93076563566746 L322.7214938909935,270.10711656672277 M343.495118760231,277.3733506430123 L343.4948048464199,264.63452603262067 M300.7460181555983,252.8177853050455 L300.6482714038684,249.53349411381953 M300.6482714038684,249.53349411381953 L301.5993339785661,247.4123849312316 M301.5993339785661,247.4123849312316 L303.9314150750068,244.8379706744215 M303.9314150750068,244.8379706744215 L307.5337702663991,242.34908222219497 M307.5337702663991,242.34908222219497 L307.53325658441094,229.61045224402835 M361.32472848483445,273.3204189935623 L356.1756526927554,275.73133957897426 M356.1756526927554,275.73133957897426 L353.09293357958296,276.66467673127823 M353.09293357958296,276.66467673127823 L349.9519331323349,277.24945629375395 M349.9519331323349,277.24945629375395 L346.75266070213667,277.4856809955648 M346.75266070213667,277.4856809955648 L343.495118760231,277.3733506430123 M361.32472848483445,273.3204189935623 L361.3245136244775,260.5816169049773 M307.5337702663991,242.34908222219497 L312.6623279019972,239.96504307864285 M312.6623279019972,239.96504307864285 L315.7539303986237,239.04908469803172 M315.7539303986237,239.04908469803172 L318.9191925600001,238.48293799709154 M318.9191925600001,238.48293799709154 L322.1581040254293,238.2665867562976 M322.1581040254293,238.2665867562976 L325.47067593647637,238.40004101781312 M325.47067593647637,238.40004101781312 L325.47026190164894,225.66143298548104 M368.219774068419,262.8720691752969 L368.27785860966395,266.1371599318444 M368.27785860966395,266.1371599318444 L367.303919206863,268.2517016940209 M367.303919206863,268.2517016940209 L364.94724491518065,270.82492527361615 M364.94724491518065,270.82492527361615 L361.32472848483445,273.3204189935623 M368.219774068419,262.8720691752969 L368.2195975150767,250.13332514806342 M325.47067593647637,238.40004101781312 L331.3562994425216,239.41466298740966 M331.3562994425216,239.41466298740966 L337.5295076131991,241.40130875096014 M337.5295076131991,241.40130875096014 L341.80475851403884,243.26575663402923 M341.80475851403884,243.26575663402923 L346.2078444674803,245.56222749428565 M346.2078444674803,245.56222749428565 L346.207545632555,232.82357965995845 M355.0772430603078,250.68256843827322 L363.365496382158,256.3764971265845 M363.365496382158,256.3764971265845 L366.55737611549466,259.71065291967864 M366.55737611549466,259.71065291967864 L368.219774068419,262.8720691752969 M355.0772430603078,250.68256843827322 L355.07699349699243,237.943892149283 M346.2078444674803,245.56222749428565 L355.0772430603078,250.68256843827322 M285.95060273614695,259.65882401762855 L287.79973737466713,261.9080941161566 M287.79973737466713,261.9080941161566 L287.7991140526442,249.16935544577404 M285.95060273614695,259.65882401762855 L285.94996914260736,246.92009784657176 M287.79973737466713,261.9080941161566 L285.87832118800435,264.3439494649064 M285.87832118800435,264.3439494649064 L285.8776871903185,251.60519725838822 M282.1622308810489,258.65339586907015 L285.95060273614695,259.65882401762855 M282.1622308810489,258.65339586907015 L282.1615762420456,245.91467528525237 M285.87832118800435,264.3439494649064 L281.62287902292667,265.4737730788027 M281.62287902292667,265.4737730788027 L281.6222213836814,252.73501459383357 M277.97862953910254,259.7832111128959 L282.1622308810489,258.65339586907015 M277.97862953910254,259.7832111128959 L277.97795165774363,247.0444842506114 M281.62287902292667,265.4737730788027 L277.690848860339,264.4268701250281 M277.690848860339,264.4268701250281 L277.69016937748177,251.68811745771785 M275.9853725313945,262.21905458448964 L277.97862953910254,259.7832111128959 M275.9853725313945,262.21905458448964 L275.98468357516896,249.48031418608537 M277.690848860339,264.4268701250281 L275.9853725313945,262.21905458448964 M280.4175988702,287.52135915129213 L287.0971944349874,285.2408913292629 M287.0971944349874,285.2408913292629 L287.09656719726144,272.5020230000517 M280.4175988702,287.52135915129213 L280.4169345222931,274.78247814995336 M280.0942069049037,289.36646991828405 L280.4175988702,287.52135915129213 M280.0942069049037,289.36646991828405 L280.09354075929923,276.62757866405127 M275.17389495293355,294.4042781322315 L278.57671181909643,291.8905511025444 M278.57671181909643,291.8905511025444 L280.0942069049037,289.36646991828405 M275.17389495293355,294.4042781322315 L275.17320146912044,281.66535888412193 M264.40033905526263,296.9542957383757 L270.11023818064416,296.41008371169755 M270.11023818064416,296.41008371169755 L275.17389495293355,294.4042781322315 M264.40033905526263,296.9542957383757 L264.399585716215,284.2153623205313 M253.12471735258933,293.7408595118886 L255.79541924171116,295.07676643002213 M255.79541924171116,295.07676643002213 L258.5649217779703,296.05764064756994 M258.5649217779703,296.05764064756994 L264.40033905526263,296.9542957383757 M253.12471735258933,293.7408595118886 L253.1239013728543,281.00194395022106 M247.03870772492982,287.1792885893862 L248.82033739801278,290.49375487804787 M248.82033739801278,290.49375487804787 L250.6571806331494,292.125726524915 M250.6571806331494,292.125726524915 L253.12471735258933,293.7408595118886 M247.03870772492982,287.1792885893862 L247.037857938648,274.4404094888655 M251.15125802917447,281.1568082465882 L247.80671939214668,283.99959699815594 M247.80671939214668,283.99959699815594 L247.03870772492982,287.1792885893862 M251.15125802917447,281.1568082465882 L251.15043109477426,268.4179626119787 M260.2548690926074,278.5342984455434 L255.5460295779847,279.2780324492519 M255.5460295779847,279.2780324492519 L251.15125802917447,281.1568082465882 M260.2548690926074,278.5342984455434 L260.25409273541345,265.79546738389 M270.21976110072774,280.5970627396415 L265.17902670495175,278.9618821288364 M265.17902670495175,278.9618821288364 L260.2548690926074,278.5342984455434 M270.21976110072774,280.5970627396415 L270.2190401024164,267.8582202154616 M276.50447566377005,276.9690952224434 L270.21976110072774,280.5970627396415 M276.50447566377005,276.9690952224434 L276.5037895825649,264.2302728584586 M260.8838862479092,273.7143095550819 L266.6976897258738,273.99283510561116 M266.6976897258738,273.99283510561116 L271.6856980273726,275.08398817288656 M271.6856980273726,275.08398817288656 L276.50447566377005,276.9690952224434 M260.8838862479092,273.7143095550819 L260.8831133884836,260.9755052776725 M245.72920617274724,278.0263879558637 L250.88715363221058,275.62382216411504 M250.88715363221058,275.62382216411504 L255.7531965148911,274.291198548908 M255.7531965148911,274.291198548908 L260.8838862479092,273.7143095550819 M245.72920617274724,278.0263879558637 L245.7283491182884,265.28755971661246 M238.1866602115781,287.7494056732984 L238.55061254777237,285.19035836627046 M238.55061254777237,285.19035836627046 L239.92902782274697,282.71684132511336 M239.92902782274697,282.71684132511336 L242.3218932034499,280.328849646603 M242.3218932034499,280.328849646603 L245.72920617274724,278.0263879558637 M238.1866602115781,287.7494056732984 L238.18576124673072,275.01052340475104 M246.5525204089679,297.61771617993173 L242.03216245040804,294.44804155059046 M242.03216245040804,294.44804155059046 L239.2435514455786,291.15860655842386 M239.2435514455786,291.15860655842386 L238.1866602115781,287.7494056732984 M246.5525204089679,297.61771617993173 L246.5516679138787,284.8787790756558 M263.51985478468555,302.56230056220085 L257.8295993846812,301.91154786595234 M257.8295993846812,301.91154786595234 L254.93488969969246,301.21024255240866 M254.93488969969246,301.21024255240866 L252.09047217190812,300.2608333592612 M252.09047217190812,300.2608333592612 L246.5525204089679,297.61771617993173 M263.51985478468555,302.56230056220085 L263.5190965503,289.82333598246356 M279.59047409597105,298.73723908581667 L274.77283599840695,300.94601905775033 M274.77283599840695,300.94601905775033 L269.34936663681873,302.25983583756926 M269.34936663681873,302.25983583756926 L263.51985478468555,302.56230056220085 M279.59047409597105,298.73723908581667 L279.58980514637324,285.9982957606922 M286.05508164814114,292.39329410812974 L285.0583851071609,294.1114389399877 M285.0583851071609,294.1114389399877 L283.64871816479865,295.74147917392463 M283.64871816479865,295.74147917392463 L281.8260826724224,297.28341216020027 M281.8260826724224,297.28341216020027 L279.59047409597105,298.73723908581667 M286.05508164814114,292.39329410812974 L286.05444861695094,279.6543860345405 M298.7307765695841,301.53606066202315 L286.05508164814114,292.39329410812974 M298.7307765695841,301.53606066202315 L298.7302139548643,288.7971017847506 M277.5778506475831,313.74737605747777 L298.7307765695841,301.53606066202315 M277.5778506475831,313.74737605747777 L277.5771705077084,301.00834932675605 M283.71834959357506,317.29264519982576 L277.5778506475831,313.74737605747777 M283.71834959357506,317.29264519982576 L283.71770356642935,304.55359876971653 M310.5095862869224,301.82630897489537 L283.71834959357506,317.29264519982576 M310.5095862869224,301.82630897489537 L310.50908911082996,289.08734848481106 M287.0971944349874,285.2408913292629 L310.5095862869224,301.82630897489537 M462.37242596275615,207.60678249637 L470.4155571599473,202.96358285779525 M470.4155571599473,202.96358285779525 L429.44393648489284,179.3128530627627 M429.44393648489284,179.3128530627627 L422.190750215828,183.49985453051372 M422.190750215828,183.49985453051372 L417.8200781706348,186.6585504407595 M417.8200781706348,186.6585504407595 L415.3365307285096,189.9992007599946 M415.3365307285096,189.9992007599946 L414.74010348173545,193.52182764694103 M414.74010348173545,193.52182764694103 L415.8297725235052,196.76196104117366 M415.8297725235052,196.76196104117366 L418.7525751860006,200.23408124725015 M418.7525751860006,200.23408124725015 L421.279786250257,202.2358111492997 M421.279786250257,202.2358111492997 L424.4174510966624,204.22802131340762 M424.4174510966624,204.22802131340762 L427.4696796376898,205.98995269656464 M427.4696796376898,205.98995269656464 L433.4305096629912,208.89426253460024 M433.4305096629912,208.89426253460024 L439.43920648341975,210.75293791664245 M439.43920648341975,210.75293791664245 L445.4957538888049,211.56597626101683 M445.4957538888049,211.56597626101683 L449.9708249680781,211.4817604228842 M449.9708249680781,211.4817604228842 L454.275285096422,210.79382361253676 M454.275285096422,210.79382361253676 L458.4091540798763,209.5021680038626 M458.4091540798763,209.5021680038626 L462.37242596275615,207.60678249637 M318.95162916771284,260.26001005657025 L329.83190741489733,266.541407001146 M329.83190741489733,266.541407001146 L336.8966667653295,270.0794731849305 M336.8966667653295,270.0794731849305 L340.86915236324,271.48601417534775 M340.86915236324,271.48601417534775 L344.5008567834942,272.2735021824103 M344.5008567834942,272.2735021824103 L350.4574574998615,272.1776214555629 M350.4574574998615,272.1776214555629 L355.8664991668071,270.169308041873 M355.8664991668071,270.169308041873 L359.3139825823856,267.07004493013557 M359.3139825823856,267.07004493013557 L359.4577426062018,263.65983620884134 M359.4577426062018,263.65983620884134 L358.3042021244653,261.80962395318664 M358.3042021244653,261.80962395318664 L356.3516825297732,259.82467158604476 M356.3516825297732,259.82467158604476 L350.0497094830449,255.45053892635366 M350.0497094830449,255.45053892635366 L339.42078187322664,249.31437345553292 M339.42078187322664,249.31437345553292 L332.2781237283294,245.7518686546013 M332.2781237283294,245.7518686546013 L328.210149153637,244.3238004439895 M328.210149153637,244.3238004439895 L324.44693328037584,243.50995742557558 M324.44693328037584,243.50995742557558 L318.3244035585119,243.54623454667677 M318.3244035585119,243.54623454667677 L312.9558221433348,245.47930766537172 M312.9558221433348,245.47930766537172 L309.62050500099264,248.50330757228068 M309.62050500099264,248.50330757228068 L309.4541555113236,251.89528776655607 M309.4541555113236,251.89528776655607 L310.5795471000263,253.75906992810644 M310.5795471000263,253.75906992810644 L312.537589226437,255.77445207933482 M312.537589226437,255.77445207933482 L318.95162916771284,260.26001005657025 M470.4155571599473,202.96358285779525 L470.41594832935834,190.22517176171098 M470.41594832935834,190.22517176171098 L462.3727724527215,194.86834559525562 M462.37242596275615,207.60678249637 L462.3727724527215,194.86834559525562 M429.44393648489284,179.3128530627627 L429.4441000471811,166.57457341113457 M429.4441000471811,166.57457341113457 L470.41594832935834,190.22517176171098 M422.190750215828,183.49985453051372 L422.19087348681603,170.7615516082518 M422.19087348681603,170.7615516082518 L429.4441000471811,166.57457341113457 M414.74010348173545,193.52182764694103 L414.74018536463655,180.78346902496702 M414.74018536463655,180.78346902496702 L415.0107418000071,178.12393122049008 M415.0107418000071,178.12393122049008 L416.3432368298259,175.56681277268126 M416.3432368298259,175.56681277268126 L418.7370719717907,173.11256016402675 M418.7370719717907,173.11256016402675 L422.19087348681603,170.7615516082518 M424.4174510966624,204.22802131340762 L424.4175867395641,191.48960319006397 M424.4175867395641,191.48960319006397 L419.27518010604444,187.95292860782618 M419.27518010604444,187.95292860782618 L416.0479762879814,184.38383621062263 M416.0479762879814,184.38383621062263 L415.1539958874909,182.5874869698883 M415.1539958874909,182.5874869698883 L414.74018536463655,180.78346902496702 M427.4696796376898,205.98995269656464 L427.4698322364508,193.25152478111423 M427.4698322364508,193.25152478111423 L424.4175867395641,191.48960319006397 M445.4957538888049,211.56597626101683 L445.49600662671577,198.82751735646616 M445.49600662671577,198.82751735646616 L439.6056304244464,198.05089786263915 M439.6056304244464,198.05089786263915 L433.7625075316888,196.2862211519616 M433.7625075316888,196.2862211519616 L430.6088351740524,194.91414602640603 M430.6088351740524,194.91414602640603 L427.4698322364508,193.25152478111423 M462.3727724527215,194.86834559525562 L457.05205052836516,197.26081289230808 M457.05205052836516,197.26081289230808 L451.4259200626613,198.58093275333374 M451.4259200626613,198.58093275333374 L445.49600662671577,198.82751735646616 M329.83190741489733,266.541407001146 L329.83151759857094,253.80264258332681 M329.83151759857094,253.80264258332681 L318.95117890885734,247.52128054468255 M318.95162916771284,260.26001005657025 L318.95117890885734,247.52128054468255 M344.5008567834942,272.2735021824103 L344.5005484584492,259.5347059114814 M344.5005484584492,259.5347059114814 L341.244920171067,258.85316490679224 M341.244920171067,258.85316490679224 L337.71427345558686,257.6700316821189 M337.71427345558686,257.6700316821189 L329.83151759857094,253.80264258332681 M355.8664991668071,270.169308041873 L355.8662539839472,257.4305234638614 M355.8662539839472,257.4305234638614 L350.4575258330423,259.4387640334382 M350.4575258330423,259.4387640334382 L344.5005484584492,259.5347059114814 M359.4577426062018,263.65983620884134 L359.4575173757084,250.9210878039592 M359.4575173757084,250.9210878039592 L359.3136464085795,254.33147021683544 M359.3136464085795,254.33147021683544 L355.8662539839472,257.4305234638614 M350.0497094830449,255.45053892635366 L350.04943198867886,242.71183614111538 M350.04943198867886,242.71183614111538 L355.8067755215959,246.62468546446223 M355.8067755215959,246.62468546446223 L358.1253975277412,248.8557179400575 M358.1253975277412,248.8557179400575 L359.4575173757084,250.9210878039592 M339.42078187322664,249.31437345553292 L339.42044533260656,236.57570476982534 M339.42044533260656,236.57570476982534 L350.04943198867886,242.71183614111538 M324.44693328037584,243.50995742557558 L324.44651355645135,230.77132099615648 M324.44651355645135,230.77132099615648 L329.96554237145335,232.13901056098746 M329.96554237145335,232.13901056098746 L334.5171224253527,234.00023298660489 M334.5171224253527,234.00023298660489 L339.42044533260656,236.57570476982534 M312.9558221433348,245.47930766537172 L312.9553385814055,232.740660291847 M312.9553385814055,232.740660291847 L318.32380023374054,230.8076235369623 M318.32380023374054,230.8076235369623 L324.44651355645135,230.77132099615648 M309.4541555113236,251.89528776655607 L309.45365249355285,239.15660473830178 M309.45365249355285,239.15660473830178 L309.6200736031367,235.764511490394 M309.6200736031367,235.764511490394 L312.9553385814055,232.740660291847 M318.95117890885734,247.52128054468255 L313.08777594016715,243.50624743686484 M313.08777594016715,243.50624743686484 L310.75665623591664,241.23821184903187 M310.75665623591664,241.23821184903187 L309.45365249355285,239.15660473830178 M409.13932538328794,372.67395169624825 L410.26492477257455,374.5380039239214 M410.26492477257455,374.5380039239214 L412.22321567778926,376.55367483575907 M412.22321567778926,376.55367483575907 L418.6378951705642,381.0398800899455 M412.6405677319727,366.2570460350008 L409.30538576714105,369.28148321128737 M409.30538576714105,369.28148321128737 L409.13932538328794,372.67395169624825 M424.1319509231812,364.28741234706547 L418.00918790957564,364.3236949311628 M418.00918790957564,364.3236949311628 L412.6405677319727,366.2570460350008 M439.10688768156325,370.0926668781217 L431.9636368291155,366.52964699854374 M431.9636368291155,366.52964699854374 L427.8953839775561,365.10137307428454 M427.8953839775561,365.10137307428454 L424.1319509231812,364.28741234706547 M449.73675846924584,376.2297153193544 L439.10688768156325,370.0926668781217 M459.14586618707517,384.4401932633737 L457.9921251074068,382.5897154309994 M457.9921251074068,382.5897154309994 L456.0393540678439,380.6044752305562 M456.0393540678439,380.6044752305562 L449.73675846924584,376.2297153193544 M455.5550573036047,390.9506061192793 L459.0023971687616,387.8508932309153 M459.0023971687616,387.8508932309153 L459.14586618707517,384.4401932633737 M444.1891543526116,393.05510180134075 L450.1459773290048,392.95920717368955 M450.1459773290048,392.95920717368955 L455.5550573036047,390.9506061192793 M429.51914223697287,387.32218282852944 L436.5844824824884,390.8607587366879 M436.5844824824884,390.8607587366879 L440.557238226134,392.2674981304574 M440.557238226134,392.2674981304574 L444.1891543526116,393.05510180134075 M418.6378951705642,381.0398800899455 L429.51914223697287,387.32218282852944 M418.6378951705642,381.0398800899455 L418.6384129100893,317.34570422102456 M418.6384129100893,317.34570422102456 L412.7743004371516,313.3301800227884 M412.7743004371516,313.3301800227884 L410.442844016944,311.0618695253587 M410.442844016944,311.0618695253587 L409.13957926149743,308.9800082300529 M409.13932538328794,372.67395169624825 L409.13957926149743,308.9800082300529 M409.13957926149743,308.9800082300529 L409.30571617757937,305.58750183096424 M409.30571617757937,305.58750183096424 L412.64091886803635,302.56328083062203 M412.6405677319727,366.2570460350008 L412.64091886803635,302.56328083062203 M412.64091886803635,302.56328083062203 L418.0095381711496,300.6300088228851 M418.0095381711496,300.6300088228851 L424.13262127152933,300.5937018595653 M424.1319509231812,364.28741234706547 L424.13262127152933,300.5937018595653 M424.13262127152933,300.5937018595653 L429.65210601729115,301.96155661807234 M429.65210601729115,301.96155661807234 L434.2041284626387,303.82300768347073 M434.2041284626387,303.82300768347073 L439.10797401604106,306.3987951198499 M439.10688768156325,370.0926668781217 L439.10797401604106,306.3987951198499 M439.10797401604106,306.3987951198499 L449.738140094018,312.5356730748064 M449.73675846924584,376.2297153193544 L449.738140094018,312.5356730748064 M449.738140094018,312.5356730748064 L455.49617953853317,316.4490000312498 M455.49617953853317,316.4490000312498 L457.81513351668644,318.680302405598 M457.81513351668644,318.680302405598 L459.14750919682587,320.7459229358462 M459.14586618707517,384.4401932633737 L459.14750919682587,320.7459229358462 M459.14750919682587,320.7459229358462 L459.0039301739455,324.15672224607175 M459.0039301739455,324.15672224607175 L455.55660057323763,327.2561549380538 M455.5550573036047,390.9506061192793 L455.55660057323763,327.2561549380538 M455.55660057323763,327.2561549380538 L450.1477106356349,329.26463660594504 M450.1477106356349,329.26463660594504 L444.1903818899144,329.3605921594654 M444.1891543526116,393.05510180134075 L444.1903818899144,329.3605921594654 M444.1903818899144,329.3605921594654 L440.93449319914487,328.67896595965857 M440.93449319914487,328.67896595965857 L437.403534594098,327.49569269071037 M437.403534594098,327.49569269071037 L429.5199622496564,323.62783244154457 M429.51914223697287,387.32218282852944 L429.5199622496564,323.62783244154457 M429.5199622496564,323.62783244154457 L418.6384129100893,317.34570422102456 M503.38603372931044,356.4711427954859 L507.8613613034194,356.3869150764351 M507.8613613034194,356.3869150764351 L512.1660503946199,355.69885399963164 M512.1660503946199,355.69885399963164 L516.3001010825302,354.4069503507334 M516.3001010825302,354.4069503507334 L520.2635074124853,352.5112158049578 M485.35860106014974,350.894081229084 L491.3199305530351,353.7989374114685 M491.3199305530351,353.7989374114685 L497.32907689298304,355.6579644889308 M497.32907689298304,355.6579644889308 L503.38603372931044,356.4711427954859 M482.3061061393961,349.13182470228486 L485.35860106014974,350.894081229084 M472.62763399053097,338.42364231121553 L473.71752600770867,341.66437554468996 M473.71752600770867,341.66437554468996 L476.6406819066083,345.13714399600866 M476.6406819066083,345.13714399600866 L479.1681433857227,347.13924557850794 M479.1681433857227,347.13924557850794 L482.3061061393961,349.13182470228486 M480.07822580789394,328.3997995469814 L475.70744850851366,331.55908131963287 M475.70744850851366,331.55908131963287 L473.2239107418282,334.90036252467416 M473.2239107418282,334.90036252467416 L472.62763399053097,338.42364231121553 M487.3316273079123,324.21202245798776 L480.07822580789394,328.3997995469814 M528.3068845630023,347.8671518154767 L487.3316273079123,324.21202245798776 M520.2635074124853,352.5112158049578 L528.3068845630023,347.8671518154767 M520.2635074124853,352.5112158049578 L520.2668481127739,288.8178324668381 M520.2668481127739,288.8178324668381 L514.9458208075083,291.21069005588083 M514.9458208075083,291.21069005588083 L509.3192959010664,292.5310263205842 M509.3192959010664,292.5310263205842 L503.38890561416684,292.77764944761145 M503.38603372931044,356.4711427954859 L503.38890561416684,292.77764944761145 M503.38890561416684,292.77764944761145 L497.498010696722,292.00090454267377 M497.498010696722,292.00090454267377 L491.6543131943356,290.2359423496491 M491.6543131943356,290.2359423496491 L488.50031306071565,288.8636423039762 M488.50031306071565,288.8636423039762 L485.3609721626319,287.20074281639955 M485.35860106014974,350.894081229084 L485.3609721626319,287.20074281639955 M485.3609721626319,287.20074281639955 L482.30839244575714,285.4385352467965 M482.3061061393961,349.13182470228486 L482.30839244575714,285.4385352467965 M482.30839244575714,285.4385352467965 L477.16537749558984,281.9012837582691 M477.16537749558984,281.9012837582691 L473.93773713328295,278.3316034483318 M473.93773713328295,278.3316034483318 L473.04359191319145,276.5349592661251 M473.04359191319145,276.5349592661251 L472.6296514285846,274.7306503426595 M472.62763399053097,338.42364231121553 L472.6296514285846,274.7306503426595 M472.6296514285846,274.7306503426595 L472.90010146741565,272.07067230382023 M472.90010146741565,272.07067230382023 L474.23257367842285,269.51313302145326 M474.23257367842285,269.51313302145326 L476.62648558002235,267.0584807118305 M476.62648558002235,267.0584807118305 L480.0804501877691,264.70708605856726 M480.07822580789394,328.3997995469814 L480.0804501877691,264.70708605856726 M480.0804501877691,264.70708605856726 L487.3340531609161,260.5194253148954 M487.3316273079123,324.21202245798776 L487.3340531609161,260.5194253148954 M487.3340531609161,260.5194253148954 L528.3104486791595,284.173897493921 M528.3068845630023,347.8671518154767 L528.3104486791595,284.173897493921 M528.3104486791595,284.173897493921 L520.2668481127739,288.8178324668381" stroke="black"  stroke-width="4"  fill="red"/></svg>