<svg viewBox="0 0 800 800" xmlns="http://www.w3.org/2000/svg"><path d="M400,368.1230207226358 L399.99999999999994,113.41143222298876 M179.41329372101748,495.4788149724593 L179.38878680997658,240.7530774011259 M400,368.1230207226358 L179.41329372101748,495.4788149724593 M399.99999999999994,113.41143222298876 L179.38878680997658,240.7530774011259 M841.2224263800468,622.8629073656557 L841.2714510940889,368.12302072263583 M841.2714510940889,368.12302072263583 L399.99999999999994,113.41143222298876 M841.2224263800468,622.8629073656557 L400,368.1230207226358 M620.5928324962813,431.80268633415085 L633.7924047993448,437.57255692656406 M633.7924047993448,437.57255692656406 L646.2254437670971,439.3064213414837 M646.2254437670971,439.3064213414837 L657.1693909742013,436.9034020832277 M657.1693909742013,436.9034020832277 L665.9881879878014,430.50303281322505 M665.9881879878014,430.50303281322505 L672.1692473042935,420.47720383661954 M672.1692473042935,420.47720383661954 L675.3532643187159,407.4084757454024 M675.3532643187159,407.4084757454024 L675.3551079658573,392.05637375892724 M675.3551079658573,392.05637375892724 L672.1746084110864,375.3131202265195 M672.1746084110864,375.3131202265195 L665.9965812742088,358.1518576398852 M665.9965812742088,358.1518576398852 L657.1800837258553,341.57004447040043 M657.1800837258553,341.57004447040043 L646.2375545260462,326.5314666471378 M646.2375545260462,326.5314666471378 L633.8050141669182,313.9102154765261 M633.8050141669182,313.9102154765261 L620.6050859517733,304.43981784320727 M620.6050859517733,304.43981784320727 L607.4049771274396,298.67066209314453 M607.4049771274396,298.67066209314453 L594.9718754387014,296.9379565171838 M594.9718754387014,296.9379565171838 L584.0283536790495,299.3423207277593 M584.0283536790495,299.3423207277593 L575.2103728185259,305.7438919152998 M575.2103728185259,305.7438919152998 L569.0303333865235,315.77053305588555 M569.0303333865235,315.77053305588555 L565.847306349222,328.8394612832842 M565.847306349222,328.8394612832842 L565.8461959755855,344.1911400081477 M565.8461959755855,344.1911400081477 L569.0270041170851,360.9334438447283 M569.0270041170851,360.9334438447283 L575.204844463199,378.09341338733896 M575.204844463199,378.09341338733896 L584.0207026316717,394.67392260190235 M584.0207026316717,394.67392260190235 L594.9622863391041,409.71145565422466 M594.9622863391041,409.71145565422466 L607.3937916922644,422.33218161804655 M607.3937916922644,422.33218161804655 L620.5928324962813,431.80268633415085 M179.38878680997658,240.7530774011259 L620.6602433518614,495.52127162128136 M620.6357255470446,750.2753073349395 L620.6602433518614,495.52127162128136 M179.41329372101748,495.4788149724593 L620.6357255470446,750.2753073349395 M400,559.1832423436525 L386.80078102079386,549.7109415452512 M386.80078102079386,549.7109415452512 L374.36875182062875,537.0883183699007 M374.36875182062875,537.0883183699007 L363.42632902805923,522.048897219285 M363.42632902805923,522.048897219285 L354.609365287204,505.46661872608763 M354.609365287204,505.46661872608763 L348.43021712220605,488.30510152633985 M348.43021712220605,488.30510152633985 L345.2479749059572,471.5615615759874 M345.2479749059572,471.5615615759874 L345.24760828941027,456.2090301104544 M345.24760828941027,456.2090301104544 L348.42920125626057,443.1396820724435 M348.42920125626057,443.1396820724435 L354.60793288710136,433.11307846007304 M354.60793288710136,433.11307846007304 L363.4248082318901,426.7119999788574 M363.4248082318901,426.7119999788574 L374.3674910234563,424.30855504210115 M374.3674910234563,424.30855504210115 L386.8000690640337,426.0425530579775 M386.8000690640337,426.0425530579775 L400.0000000000001,431.8132993169478 M400.0000000000001,431.8132993169478 L413.20010642934795,441.28549310010754 M413.20010642934795,441.28549310010754 L425.63317074353296,453.90864166937604 M425.63317074353296,453.90864166937604 L436.5765391815459,468.9491078551968 M436.5765391815459,468.9491078551968 L445.3941424632739,485.5326905830093 M445.3941424632739,485.5326905830093 L451.5734775538257,502.6955010594187 M451.5734775538257,502.6955010594187 L454.75541125757076,519.4399908358739 M454.75541125757076,519.4399908358739 L454.75504460058573,534.792945563003 M454.75504460058573,534.792945563003 L451.5724615823416,547.8620933345287 M451.5724615823416,547.8620933345287 L445.39270993219014,557.8878845502634 M445.39270993219014,557.8878845502634 L436.5750182733262,564.2877608342436 M436.5750182733262,564.2877608342436 L425.63190988126,566.6898605544264 M425.63190988126,566.6898605544264 L413.1993944536572,564.9547035124868 M413.1993944536572,564.9547035124868 L400,559.1832423436525 M620.6357255470446,750.2753073349395 L841.2224263800468,622.8629073656557 M620.6602433518614,495.52127162128136 L841.2714510940889,368.12302072263583 M620.5928324962813,431.80268633415085 L400,559.1832423436525" stroke="black"  stroke-width="4"  fill="red"/>
<path d="M399.99999999999994,113.41143222298876 L399.99999999999994,49.7246926650605 M-41.271451094089,368.1230207226358 L-41.28370897489384,304.4292036812229 M399.99999999999994,113.41143222298876 L-41.271451094089,368.1230207226358 M399.99999999999994,49.7246926650605 L-41.28370897489384,304.4292036812229 M400,622.9478395350188 L400,559.2469450098595 M-41.271451094089,368.1230207226358 L400,622.9478395350188 M-41.28370897489384,304.4292036812229 L400,559.2469450098595 M841.2714510940889,368.12302072263583 L841.2837089748939,304.429203681223 M400,622.9478395350188 L841.2714510940889,368.12302072263583 M400,559.2469450098595 L841.2837089748939,304.429203681223 M841.2714510940889,368.12302072263583 L399.99999999999994,113.41143222298876 M841.2837089748939,304.429203681223 L399.99999999999994,49.7246926650605" stroke="black"  stroke-width="4"  fill="red"/></svg>