<svg viewBox="0 0 800 800" xmlns="http://www.w3.org/2000/svg"><path d="M400,368.1230207226358 L399.99999999999994,113.41143222298876 M179.41329372101748,495.4788149724593 L179.38878680997658,240.7530774011259 M400,368.1230207226358 L179.41329372101748,495.4788149724593 M399.99999999999994,113.41143222298876 L179.38878680997658,240.7530774011259 M841.2224263800468,622.8629073656557 L841.2714510940889,368.12302072263583 M841.2714510940889,368.12302072263583 L399.99999999999994,113.41143222298876 M841.2224263800468,622.8629073656557 L400,368.1230207226358 M620.5928324962813,431.80268633415085 L633.7924047993448,437.57255692656406 M633.7924047993448,437.57255692656406 L646.2254437670971,439.3064213414837 M646.2254437670971,439.3064213414837 L657.1693909742013,436.9034020832277 M657.1693909742013,436.9034020832277 L665.9881879878014,430.50303281322505 M665.9881879878014,430.50303281322505 L672.1692473042935,420.47720383661954 M672.1692473042935,420.47720383661954 L675.3532643187159,407.4084757454024 M675.3532643187159,407.4084757454024 L675.3551079658573,392.05637375892724 M675.3551079658573,392.05637375892724 L672.1746084110864,375.3131202265195 M672.1746084110864,375.3131202265195 L665.9965812742088,358.1518576398852 M665.9965812742088,358.1518576398852 L657.1800837258553,341.57004447040043 M657.1800837258553,341.57004447040043 L646.2375545260462,326.5314666471378 M646.2375545260462,326.5314666471378 L633.8050141669182,313.9102154765261 M633.8050141669182,313.9102154765261 L620.6050859517733,304.43981784320727 M620.6050859517733,304.43981784320727 L607.4049771274396,298.67066209314453 M607.4049771274396,298.67066209314453 L594.9718754387014,296.9379565171838 M594.9718754387014,296.9379565171838 L584.0283536790495,299.3423207277593 M584.0283536790495,299.3423207277593 L575.2103728185259,305.7438919152998 M575.2103728185259,305.7438919152998 L569.0303333865235,315.77053305588555 M569.0303333865235,315.77053305588555 L565.847306349222,328.8394612832842 M565.847306349222,328.8394612832842 L565.8461959755855,344.1911400081477 M565.8461959755855,344.1911400081477 L569.0270041170851,360.9334438447283 M569.0270041170851,360.9334438447283 L575.204844463199,378.09341338733896 M575.204844463199,378.09341338733896 L584.0207026316717,394.67392260190235 M584.0207026316717,394.67392260190235 L594.9622863391041,409.71145565422466 M594.9622863391041,409.71145565422466 L607.3937916922644,422.33218161804655 M607.3937916922644,422.33218161804655 L620.5928324962813,431.80268633415085 M179.38878680997658,240.7530774011259 L620.6602433518614,495.52127162128136 M620.6357255470446,750.2753073349395 L620.6602433518614,495.52127162128136 M179.41329372101748,495.4788149724593 L620.6357255470446,750.2753073349395 M400,559.1832423436525 L386.80078102079386,549.7109415452512 M386.80078102079386,549.7109415452512 L374.36875182062875,537.0883183699007 M374.36875182062875,537.0883183699007 L363.42632902805923,522.048897219285 M363.42632902805923,522.048897219285 L354.609365287204,505.46661872608763 M354.609365287204,505.46661872608763 L348.43021712220605,488.30510152633985 M348.43021712220605,488.30510152633985 L345.2479749059572,471.5615615759874 M345.2479749059572,471.5615615759874 L345.24760828941027,456.2090301104544 M345.24760828941027,456.2090301104544 L348.42920125626057,443.1396820724435 M348.42920125626057,443.1396820724435 L354.60793288710136,433.11307846007304 M354.60793288710136,433.11307846007304 L363.4248082318901,426.7119999788574 M363.4248082318901,426.7119999788574 L374.3674910234563,424.30855504210115 M374.3674910234563,424.30855504210115 L386.8000690640337,426.0425530579775 M386.8000690640337,426.0425530579775 L400.0000000000001,431.8132993169478 M400.0000000000001,431.8132993169478 L413.20010642934795,441.28549310010754 M413.20010642934795,441.28549310010754 L425.63317074353296,453.90864166937604 M425.63317074353296,453.90864166937604 L436.5765391815459,468.9491078551968 M436.5765391815459,468.9491078551968 L445.3941424632739,485.5326905830093 M445.3941424632739,485.5326905830093 L451.5734775538257,502.6955010594187 M451.5734775538257,502.6955010594187 L454.75541125757076,519.4399908358739 M454.75541125757076,519.4399908358739 L454.75504460058573,534.792945563003 M454.75504460058573,534.792945563003 L451.5724615823416,547.8620933345287 M451.5724615823416,547.8620933345287 L445.39270993219014,557.8878845502634 M445.39270993219014,557.8878845502634 L436.5750182733262,564.2877608342436 M436.5750182733262,564.2877608342436 L425.63190988126,566.6898605544264 M425.63190988126,566.6898605544264 L413.1993944536572,564.9547035124868 M413.1993944536572,564.9547035124868 L400,559.1832423436525 M620.6357255470446,750.2753073349395 L841.2224263800468,622.8629073656557 M620.6602433518614,495.52127162128136 L841.2714510940889,368.12302072263583 M620.5928324962813,431.80268633415085 L400,559.1832423436525" stroke="black"  stroke-width="4"  fill="red"/>
<path d="M399.99999999999994,113.41143222298876 L399.99999999999994,49.7246926650605 M-41.271451094089,368.1230207226358 L-41.28370897489384,304.4292036812229 M399.99999999999994,113.41143222298876 L-41.271451094089,368.1230207226358 M399.99999999999994,49.7246926650605 L-41.28370897489384,304.4292036812229 M841.2714510940889,368.12302072263583 L841.2837089748939,304.429203681223 M841.2714510940889,368.12302072263583 L399.99999999999994,113.41143222298876 M841.2837089748939,304.429203681223 L399.99999999999994,49.7246926650605 M400,622.9478395350188 L400,559.2469450098595 M-41.271451094089,368.1230207226358 L400,622.9478395350188 M-41.28370897489384,304.4292036812229 L400,559.2469450098595 M400,622.9478395350188 L841.2714510940889,368.12302072263583 M400,559.2469450098595 L841.2837089748939,304.429203681223 M493.9146907986643,261.2190932512846 L493.1267440512503,259.43491352837856 M493.1267440512503,259.43491352837856 L491.1403436444093,257.845141130981 M491.03317082639387,264.8729347678498 L493.28859151052404,263.0732983740153 M493.28859151052404,263.0732983740153 L493.9146907986643,261.2190932512846 M491.1403436444093,257.845141130981 L485.45742609913026,256.33697540809857 M484.650200858853,266.56770320843515 L487.9024492943747,266.1828482794916 M487.9024492943747,266.1828482794916 L491.03317082639387,264.8729347678498 M485.45742609913026,256.33697540809857 L482.28599411526494,256.72182626170144 M482.28599411526494,256.72182626170144 L479.1822263374965,258.03171860964545 M478.7517811771214,264.99732127199206 L481.51918411699563,266.1362250676983 M481.51918411699563,266.1362250676983 L484.650200858853,266.56770320843515 M479.1822263374965,258.03171860964545 L476.8998615668789,259.831339700528 M476.8998615668789,259.831339700528 L476.1929361559388,261.6855398075217 M476.1929361559388,261.6855398075217 L476.87311945537283,263.4541671125 M476.87311945537283,263.4541671125 L478.7517811771214,264.99732127199206 M556.3654457111312,214.15658707127628 L534.6599681720779,226.68755414848192 M634.7998271649635,259.4310516355297 L556.3654457111312,214.15658707127628 M534.6599681720779,226.68755414848192 L528.4713779759737,230.90249618174545 M528.4713779759737,230.90249618174545 L523.8295956476511,235.344147328779 M523.8295956476511,235.344147328779 L520.7375308365818,240.0117241320603 M612.6634670186627,272.21178469827055 L634.7998271649635,259.4310516355297 M520.7375308365818,240.0117241320603 L519.2597294898169,244.8039872514728 M519.2597294898169,244.8039872514728 L519.4578679866264,249.6242304398632 M519.4578679866264,249.6242304398632 L521.3315720082402,254.47120887113874 M590.040993039499,280.0482875142455 L598.062889725893,278.32007765040555 M598.062889725893,278.32007765040555 L605.6041595758957,275.7074315108202 M605.6041595758957,275.7074315108202 L612.6634670186627,272.21178469827055 M521.3315720082402,254.47120887113874 L524.8262269388281,259.23614921120446 M524.8262269388281,259.23614921120446 L529.8822617251309,263.80240454425723 M529.8822617251309,263.80240454425723 L536.4962829414528,268.1691862480444 M565.0199458533549,279.62847214729993 L573.4132992286906,280.7185380833023 M573.4132992286906,280.7185380833023 L581.7543544189693,280.85856408076427 M581.7543544189693,280.85856408076427 L590.040993039499,280.0482875142455 M536.4962829414528,268.1691862480444 L541.5061720189439,271.0611960828357 M541.5061720189439,271.0611960828357 L548.9518309340597,274.77587114224247 M548.9518309340597,274.77587114224247 L556.7901747715957,277.6321820076558 M556.7901747715957,277.6321820076558 L565.0199458533549,279.62847214729993 M404.7134525981683,312.71708546984445 L403.9256068267456,310.9327468640586 M403.9256068267456,310.9327468640586 L401.93924336108114,309.34283020405513 M401.83151884754585,316.3712552806229 L404.0871825391202,314.5714562419495 M404.0871825391202,314.5714562419495 L404.7134525981683,312.71708546984445 M401.93924336108114,309.34283020405513 L396.2561878813826,307.8345289746093 M395.4481302520607,318.066175994909 L398.70055638266274,317.6812855379317 M398.70055638266274,317.6812855379317 L401.83151884754585,316.3712552806229 M396.2561878813826,307.8345289746093 L393.08458101255985,308.2194158300998 M393.08458101255985,308.2194158300998 L389.98057433692924,309.5294244464553 M389.54956779472076,316.4956529607935 L392.3170031420528,317.63466098431843 M392.3170031420528,317.63466098431843 L395.4481302520607,318.066175994909 M389.98057433692924,309.5294244464553 L387.6979669930104,311.3292072310147 M387.6979669930104,311.3292072310147 L386.99086553543987,313.1835739358063 M386.99086553543987,313.1835739358063 L387.6709417610282,314.95236015021334 M387.6709417610282,314.95236015021334 L389.54956779472076,316.4956529607935 M444.17197068160783,317.55303433225123 L457.100724108606,325.01695831608265 M424.1325902336307,299.0802404142925 L426.60104053960623,303.73732482638326 M426.60104053960623,303.73732482638326 L431.2554083872295,308.64170958156654 M431.2554083872295,308.64170958156654 L436.9327438751442,313.01101387439826 M436.9327438751442,313.01101387439826 L444.17197068160783,317.55303433225123 M457.100724108606,325.01695831608265 L468.12462811597425,330.5147076051346 M468.12462811597425,330.5147076051346 L478.5176255025978,334.15410743494306 M478.5176255025978,334.15410743494306 L483.47270885677125,335.271149699028 M483.47270885677125,335.271149699028 L488.2645528846962,335.917571917362 M434.3130566729566,283.37572389191797 L428.06243916205824,287.8670102850202 M428.06243916205824,287.8670102850202 L425.0044298331506,291.6445693949313 M425.0044298331506,291.6445693949313 L423.77852483525754,295.25199447343743 M423.77852483525754,295.25199447343743 L423.75023657912277,297.15245805369716 M423.75023657912277,297.15245805369716 L424.1325902336307,299.0802404142925 M488.2645528846962,335.917571917362 L494.3614898075332,336.046409986478 M494.3614898075332,336.046409986478 L500.1568003549165,335.3879823257187 M500.1568003549165,335.3879823257187 L503.9597795007228,334.5167300443337 M503.9597795007228,334.5167300443337 L507.70335572911307,333.3006788836858 M507.70335572911307,333.3006788836858 L515.0099609300274,329.83746087631107 M461.2191324748312,277.4516566567995 L455.023385637022,277.28346403892215 M455.023385637022,277.28346403892215 L449.16617475786387,277.906298396124 M449.16617475786387,277.906298396124 L445.340599134971,278.755293471242 M445.340599134971,278.755293471242 L441.5895122154077,279.95038605275283 M441.5895122154077,279.95038605275283 L434.3130566729566,283.37572389191797 M515.0099609300274,329.83746087631107 L521.2973821603151,325.3357853828778 M521.2973821603151,325.3357853828778 L524.3924424720573,321.5620436215153 M524.3924424720573,321.5620436215153 L525.658331800347,317.96792516922056 M525.658331800347,317.96792516922056 L525.7093230931489,316.0779804916173 M525.7093230931489,316.0779804916173 L525.3510632189475,314.1632009500643 M492.32782798552404,288.1958762671405 L481.4510731710705,282.8250632767703 M481.4510731710705,282.8250632767703 L471.07723740803385,279.2385326292062 M471.07723740803385,279.2385326292062 L466.0829799153646,278.1194225138488 M466.0829799153646,278.1194225138488 L461.2191324748312,277.4516566567995 M525.3510632189475,314.1632009500643 L522.9486964671819,309.5446436938811 M522.9486964671819,309.5446436938811 L518.3761388426489,304.68766669988344 M518.3761388426489,304.68766669988344 L512.780507157058,300.36563930827833 M512.780507157058,300.36563930827833 L505.63365450811125,295.8771060744366 M505.63365450811125,295.8771060744366 L492.32782798552404,288.1958762671405 M403.6631378628436,347.7203245158474 L393.6433594453938,351.14145765570703 M393.6433594453938,351.14145765570703 L393.1585144101267,353.9094803213332 M393.1585144101267,353.9094803213332 L392.37370807357655,355.805246501201 M392.37370807357655,355.805246501201 L390.8817022950347,357.6968882617042 M390.8817022950347,357.6968882617042 L388.68297692425733,359.58425179961034 M388.68297692425733,359.58425179961034 L385.7782354138736,361.46718330975534 M385.7782354138736,361.46718330975534 L380.96767529440507,363.66684328156083 M380.96767529440507,363.66684328156083 L375.5139309972329,364.98087698325213 M375.5139309972329,364.98087698325213 L369.6170379099721,365.29272527569873 M369.6170379099721,365.29272527569873 L363.87555205231956,364.66377621541477 M363.87555205231956,364.66377621541477 L360.97980406218613,363.9805967678194 M360.97980406218613,363.9805967678194 L358.15217909053695,363.05409050762376 M358.15217909053695,363.05409050762376 L352.70189974761126,360.4719245443133 M352.70189974761126,360.4719245443133 L347.97826731863915,357.23716135624846 M347.97826731863915,357.23716135624846 L344.93377667149707,353.95568261038306 M344.93377667149707,353.95568261038306 L343.57137287775265,350.6282863830609 M343.57137287775265,350.6282863830609 L343.6641254966243,348.1798582335785 M343.6641254966243,348.1798582335785 L344.72338986334637,345.8576797326648 M344.72338986334637,345.8576797326648 L346.7489220626828,343.6621128605426 M346.7489220626828,343.6621128605426 L349.7398623409289,341.59343710211334 M349.7398623409289,341.59343710211334 L352.97629977799915,339.97169926326325 M352.97629977799915,339.97169926326325 L356.3312799058306,338.775211097544 M356.3312799058306,338.775211097544 L359.8045677006611,338.00431447069417 M359.8045677006611,338.00431447069417 L363.39587744928957,337.6592012849071 M363.39587744928957,337.6592012849071 L369.29263817510804,338.0276437104221 M369.29263817510804,338.0276437104221 L373.7878403345186,339.0649131612404 M373.7878403345186,339.0649131612404 L378.3445224653873,340.7537165187704 M378.3445224653873,340.7537165187704 L387.77171626136845,335.3111129333033 M387.77171626136845,335.3111129333033 L380.2396057025189,332.39217928475824 M380.2396057025189,332.39217928475824 L373.22125288553093,330.8685268810965 M373.22125288553093,330.8685268810965 L368.82163071761863,330.4528493917831 M368.82163071761863,330.4528493917831 L364.33881340558924,330.42836397936657 M364.33881340558924,330.42836397936657 L357.1091882121006,331.20695310379796 M357.1091882121006,331.20695310379796 L350.22986680852125,332.98236513903345 M350.22986680852125,332.98236513903345 L345.8392963621154,334.71903389254334 M345.8392963621154,334.71903389254334 L341.6058241755487,336.8972377854783 M341.6058241755487,336.8972377854783 L335.13310431531175,341.5277025378581 M335.13310431531175,341.5277025378581 L331.8682490620711,345.44901835404045 M331.8682490620711,345.44901835404045 L330.6009554984359,348.4258634543787 M330.6009554984359,348.4258634543787 L330.29241243840806,351.4835720927008 M330.29241243840806,351.4835720927008 L331.3783549637768,355.6428398887084 M331.3783549637768,355.6428398887084 L334.1700136020555,359.6830479271265 M334.1700136020555,359.6830479271265 L337.8909343432624,363.0296668214648 M337.8909343432624,363.0296668214648 L342.8433497114787,366.28799241125665 M342.8433497114787,366.28799241125665 L351.0273856257074,370.20587692887585 M351.0273856257074,370.20587692887585 L359.5133588060101,372.6800899270686 M359.5133588060101,372.6800899270686 L363.8682609593684,373.37420852373015 M363.8682609593684,373.37420852373015 L368.2969780073804,373.70589721633274 M368.2969780073804,373.70589721633274 L375.33298114402885,373.46519058487036 M375.33298114402885,373.46519058487036 L381.98053705455465,372.2557740809138 M381.98053705455465,372.2557740809138 L387.3349074213186,370.46207262045766 M387.3349074213186,370.46207262045766 L392.4042417559208,367.967509620972 M392.4042417559208,367.967509620972 L396.7373008925695,365.0305237151368 M396.7373008925695,365.0305237151368 L399.96979986196453,361.85801639894305 M399.96979986196453,361.85801639894305 L402.1009369670676,358.45031049688134 M402.1009369670676,358.45031049688134 L421.1173626715833,372.16632417414536 M421.1173626715833,372.16632417414536 L389.38727826000905,390.485956381051 M389.38727826000905,390.485956381051 L398.59932971913895,395.8046689416325 M398.59932971913895,395.8046689416325 L438.7870073936802,372.60175855459613 M438.7870073936802,372.60175855459613 L403.6631378628436,347.7203245158474 M541.427550103044,288.7089916490782 L540.6395113315895,286.92472682914087 M540.6395113315895,286.92472682914087 L538.6529965752884,285.33487770981856 M538.5461124753288,292.36300840898167 L540.8015159420314,290.56328760007665 M540.8015159420314,290.56328760007665 L541.427550103044,288.7089916490782 M538.6529965752884,285.33487770981856 L532.9698802416348,283.82663965357915 M532.1630596858664,294.05785813321603 L535.4153685164251,293.67298379699815 M535.4153685164251,293.67298379699815 L538.5461124753288,292.36300840898167 M532.9698802416348,283.82663965357915 L529.7983886966415,284.21150927646016 M529.7983886966415,284.21150927646016 L526.6946002423377,285.52146413695937 M526.2644334683667,292.48740087888393 L529.031949976886,293.62635929812575 M529.031949976886,293.62635929812575 L532.1630596858664,294.05785813321603 M526.6946002423377,285.52146413695937 L524.4122544182052,287.32117101345557 M524.4122544182052,287.32117101345557 L523.7053898191883,289.17546057671194 M523.7053898191883,289.17546057671194 L524.3856615022487,290.94417199571114 M524.3856615022487,290.94417199571114 L526.2644334683667,292.48740087888393 M491.1398373185204,270.58392801302165 L493.12624395161356,272.17373439299524 M493.12624395161356,272.17373439299524 L493.91416905848473,273.95789888230337 M493.91416905848473,273.95789888230337 L493.9146907986643,261.2190932512846 M491.1398373185204,270.58392801302165 L491.1403436444093,257.845141130981 M493.91416905848473,273.95789888230337 L493.2881357074253,275.8120364911001 M493.2881357074253,275.8120364911001 L491.03266509279797,277.6117607030616 M491.03266509279797,277.6117607030616 L491.03317082639387,264.8729347678498 M485.4569513450468,269.07575390925945 L491.1398373185204,270.58392801302165 M485.4569513450468,269.07575390925945 L485.45742609913026,256.33697540809857 M491.03266509279797,277.6117607030616 L487.90183437931285,278.9217147088249 M487.90183437931285,278.9217147088249 L484.6497305850685,279.30653856133637 M484.6497305850685,279.30653856133637 L484.650200858853,266.56770320843515 M479.1817864442938,270.7705065284959 L482.2856723108171,269.4605711514224 M482.2856723108171,269.4605711514224 L485.4569513450468,269.07575390925945 M479.1817864442938,270.7705065284959 L479.1822263374965,258.03171860964545 M484.6497305850685,279.30653856133637 L481.5187641154574,278.8750694109253 M481.5187641154574,278.8750694109253 L478.7513436725785,277.73614789841037 M478.7513436725785,277.73614789841037 L478.7517811771214,264.99732127199206 M476.19251286825045,274.42434803056506 L476.89937098014684,272.5702149106749 M476.89937098014684,272.5702149106749 L479.1817864442938,270.7705065284959 M476.19251286825045,274.42434803056506 L476.1929361559388,261.6855398075217 M478.7513436725785,277.73614789841037 L476.8726812914143,276.1929711660156 M476.8726812914143,276.1929711660156 L476.19251286825045,274.42434803056506 M534.6592200952965,239.4261678832787 L556.3645770633642,226.89513116701278 M556.3645770633642,226.89513116701278 L556.3654457111312,214.15658707127628 M534.6592200952965,239.4261678832787 L534.6599681720779,226.68755414848192 M556.3645770633642,226.89513116701278 L634.7985227437714,272.169847330454 M634.7985227437714,272.169847330454 L634.7998271649635,259.4310516355297 M520.7368600953472,252.75041191235965 L523.8275663545415,248.0843881046435 M523.8275663545415,248.0843881046435 L528.4683580321084,243.64297511919165 M528.4683580321084,243.64297511919165 L534.6592200952965,239.4261678832787 M520.7368600953472,252.75041191235965 L520.7375308365818,240.0117241320603 M634.7985227437714,272.169847330454 L612.6622855619758,284.9506514146699 M612.6622855619758,284.9506514146699 L612.6634670186627,272.21178469827055 M521.3308979583869,267.2099770042011 L519.457087582168,262.3624411617573 M519.457087582168,262.3624411617573 L519.259079272259,257.54258731270727 M519.259079272259,257.54258731270727 L520.7368600953472,252.75041191235965 M521.3308979583869,267.2099770042011 L521.3315720082402,254.47120887113874 M612.6622855619758,284.9506514146699 L605.6004991295454,288.447369162605 M605.6004991295454,288.447369162605 L598.0597116335973,291.0595553143828 M598.0597116335973,291.0595553143828 L590.0399372552591,292.78719777665896 M590.0399372552591,292.78719777665896 L590.040993039499,280.0482875142455 M536.4955246359489,280.90803050023027 L529.8785349613937,276.5389203656212 M529.8785349613937,276.5389203656212 L524.8236658517121,271.972901597547 M524.8236658517121,271.972901597547 L521.3308979583869,267.2099770042011 M536.4955246359489,280.90803050023027 L536.4962829414528,268.1691862480444 M590.0399372552591,292.78719777665896 L581.7536537149225,293.5974598651957 M581.7536537149225,293.5974598651957 L573.4133418774308,293.45752419605725 M573.4133418774308,293.45752419605725 L565.0190290753928,292.3673800768912 M565.0190290753928,292.3673800768912 L565.0199458533549,279.62847214729993 M541.5053858790029,283.8000564055743 L536.4955246359489,280.90803050023027 M541.5053858790029,283.8000564055743 L541.5061720189439,271.0611960828357 M565.0190290753928,292.3673800768912 L556.7921904583651,290.3719557387661 M556.7921904583651,290.3719557387661 L548.9543110547472,287.5161756297906 M548.9543110547472,287.5161756297906 L541.5053858790029,283.8000564055743 M401.93923258722197,322.08190324561775 L403.9256047442143,323.67185246685216 M403.9256047442143,323.67185246685216 L404.7134264115508,325.4561772603855 M404.7134264115508,325.4561772603855 L404.7134525981683,312.71708546984445 M401.93923258722197,322.08190324561775 L401.93924336108114,309.34283020405513 M404.7134264115508,325.4561772603855 L404.0872206564395,327.31048146064086 M404.0872206564395,327.31048146064086 L401.83150867210975,329.1103673753573 M401.83150867210975,329.1103673753573 L401.83151884754585,316.3712552806229 M396.2562086808615,320.57359363529207 L401.93923258722197,322.08190324561775 M396.2562086808615,320.57359363529207 L396.2561878813826,307.8345289746093 M401.83150867210975,329.1103673753573 L398.7004353762551,330.42043907885306 M398.7004353762551,330.42043907885306 L395.44815554108726,330.805297507333 M395.44815554108726,330.805297507333 L395.4481302520607,318.066175994909 M389.9806300018865,322.26849852482775 L393.0847572383332,320.9584454525325 M393.0847572383332,320.9584454525325 L396.2562086808615,320.57359363529207 M389.9806300018865,322.26849852482775 L389.98057433692924,309.5294244464553 M395.44815554108726,330.805297507333 L392.3170819929766,330.3737895899293 M392.3170819929766,330.3737895899293 L389.5496258545753,329.2347657467345 M389.5496258545753,329.2347657467345 L389.54956779472076,316.4956529607935 M386.9909378105628,325.92266831837196 L387.69797195827226,324.0683686076282 M387.69797195827226,324.0683686076282 L389.9806300018865,322.26849852482775 M386.9909378105628,325.92266831837196 L386.99086553543987,313.1835739358063 M389.5496258545753,329.2347657467345 L387.67099916166137,327.6914503619939 M387.67099916166137,327.6914503619939 L386.9909378105628,325.92266831837196 M457.10040686963316,337.7561184496745 L444.1717252735226,330.2921529934481 M444.1717252735226,330.2921529934481 L444.17197068160783,317.55303433225123 M457.10040686963316,337.7561184496745 L457.100724108606,325.01695831608265 M444.1717252735226,330.2921529934481 L431.56771437279104,321.65188956514 M431.56771437279104,321.65188956514 L426.6945798644432,316.6011732948469 M426.6945798644432,316.6011732948469 L424.1324561613391,311.8192564313123 M424.1324561613391,311.8192564313123 L424.1325902336307,299.0802404142925 M488.26406250173216,348.6567926179307 L480.43920272105635,347.3778604893633 M480.43920272105635,347.3778604893633 L472.1783915964453,344.8678333030613 M472.1783915964453,344.8678333030613 L464.79755425787977,341.75863630879826 M464.79755425787977,341.75863630879826 L457.10040686963316,337.7561184496745 M488.26406250173216,348.6567926179307 L488.2645528846962,335.917571917362 M424.1324561613391,311.8192564313123 L423.7541273073826,308.2092670131941 M423.7541273073826,308.2092670131941 L424.783979586101,304.7944644708793 M424.783979586101,304.7944644708793 L427.455017982558,301.1991379817236 M427.455017982558,301.1991379817236 L430.44755195323097,298.627511830852 M430.44755195323097,298.627511830852 L434.3128660441399,296.11465264410737 M434.3128660441399,296.11465264410737 L434.3130566729566,283.37572389191797 M515.0093219574775,342.57664779415796 L507.28571674016365,346.1934703980662 M507.28571674016365,346.1934703980662 L500.84110984356454,347.9966492425565 M500.84110984356454,347.9966492425565 L494.89672690738473,348.75748724523726 M494.89672690738473,348.75748724523726 L491.60066998720833,348.8283388099326 M491.60066998720833,348.8283388099326 L488.26406250173216,348.6567926179307 M515.0093219574775,342.57664779415796 L515.0099609300274,329.83746087631107 M434.3128660441399,296.11465264410737 L442.00565658343737,292.53826223405883 M442.00565658343737,292.53826223405883 L448.47493556170195,290.7718549391276 M448.47493556170195,290.7718549391276 L454.6550475827525,290.0384398350456 M454.6550475827525,290.0384398350456 L457.91263244883675,289.9992140150683 M457.91263244883675,289.9992140150683 L461.21879236900554,290.19055249027576 M461.21879236900554,290.19055249027576 L461.2191324748312,277.4516566567995 M525.3503668028043,326.90230077588177 L525.684471498737,330.48966354107284 M525.684471498737,330.48966354107284 L524.6165366045459,333.89106654406135 M524.6165366045459,333.89106654406135 L521.9096537761326,337.48143043732955 M521.9096537761326,337.48143043732955 L518.8943680506561,340.05574308998956 M518.8943680506561,340.05574308998956 L515.0093219574775,342.57664779415796 M525.3503668028043,326.90230077588177 L525.3510632189475,314.1632009500643 M461.21879236900554,290.19055249027576 L470.04780323837963,291.7126212693157 M470.04780323837963,291.7126212693157 L479.3084089939896,294.6928620362577 M479.3084089939896,294.6928620362577 L485.7219345994303,297.48979996591885 M485.7219345994303,297.48979996591885 L492.3273150490416,300.9348318035847 M492.3273150490416,300.9348318035847 L492.32782798552404,288.1958762671405 M505.6330676458466,308.616104292887 L518.0672351801348,317.15788184095 M518.0672351801348,317.15788184095 L522.8559741283101,322.1596512712401 M522.8559741283101,322.1596512712401 L525.3503668028043,326.90230077588177 M505.6330676458466,308.616104292887 L505.63365450811125,295.8771060744366 M492.3273150490416,300.9348318035847 L505.6330676458466,308.616104292887 M393.64339476228525,363.8807629426815 L403.66311751085817,360.4596107946407 M403.66311751085817,360.4596107946407 L403.6631378628436,347.7203245158474 M393.64339476228525,363.8807629426815 L393.6433594453938,351.14145765570703 M393.15855242086286,366.6488009876542 L393.64339476228525,363.8807629426815 M393.15855242086286,366.6488009876542 L393.1585144101267,353.9094803213332 M385.77831442935906,374.2065459668763 L388.68394728455144,372.3229319929284 M388.68394728455144,372.3229319929284 L390.8825289192559,370.43543647948013 M390.8825289192559,370.43543647948013 L392.37406280329714,368.54405946490476 M392.37406280329714,368.54405946490476 L393.15855242086286,366.6488009876542 M385.77831442935906,374.2065459668763 L385.7782354138736,361.46718330975534 M369.61720671690864,378.03210918742224 L374.0210986762771,377.89798077678154 M374.0210986762771,377.89798077678154 L378.1825841899455,377.21567586941273 M378.1825841899455,377.21567586941273 L382.1016577213419,375.98519642275494 M382.1016577213419,375.98519642275494 L385.77831442935906,374.2065459668763 M369.61720671690864,378.03210918742224 L369.6170379099721,365.29272527569873 M352.70216253350446,373.21128167178165 L358.07709839832097,375.765104834858 M358.07709839832097,375.765104834858 L363.71544855512144,377.3720487289224 M363.71544855512144,377.3720487289224 L369.61720671690864,378.03210918742224 M352.70216253350446,373.21128167178165 L352.70189974761126,360.4719245443133 M343.57168638970734,363.3675888188082 L344.8722195343532,366.6012041498159 M344.8722195343532,366.6012041498159 L347.9225005356745,369.9293286171532 M347.9225005356745,369.9293286171532 L352.70216253350446,373.21128167178165 M343.57168638970734,363.3675888188082 L343.57137287775265,350.6282863830609 M349.7401415791564,354.33268933898245 L346.04847425596546,357.0385958078342 M346.04847425596546,357.0385958078342 L343.926952735603,360.0876079524185 M343.926952735603,360.0876079524185 L343.57168638970734,363.3675888188082 M349.7401415791564,354.33268933898245 L349.7398623409289,341.59343710211334 M363.3960808159277,350.39843166236807 L357.7074956684556,351.1548029692355 M357.7074956684556,351.1548029692355 L353.6389917761909,352.4372453131921 M353.6389917761909,352.4372453131921 L349.7401415791564,354.33268933898245 M363.3960808159277,350.39843166236807 L363.39587744928957,337.6592012849071 M378.34464278007437,353.492964089995 L374.54185695172,352.0399701818461 M374.54185695172,352.0399701818461 L370.782837710672,351.03988487595575 M370.782837710672,351.03988487595575 L367.06758048735287,350.49270580179353 M367.06758048735287,350.49270580179353 L363.3960808159277,350.39843166236807 M378.34464278007437,353.492964089995 L378.3445224653873,340.7537165187704 M387.7717841996138,348.05033026423996 L378.34464278007437,353.492964089995 M387.7717841996138,348.05033026423996 L387.77171626136845,335.3111129333033 M364.33901153217664,343.16755418044477 L371.6290381865827,343.41107004645477 M371.6290381865827,343.41107004645477 L378.6960309295871,344.7014263030898 M378.6960309295871,344.7014263030898 L383.2834638574606,346.1432433701187 M383.2834638574606,346.1432433701187 L387.7717841996138,348.05033026423996 M364.33901153217664,343.16755418044477 L364.33881340558924,330.42836397936657 M341.6061486040147,349.6364639292989 L348.7529026119784,346.24995314970624 M348.7529026119784,346.24995314970624 L356.3305162329336,344.0936545080262 M356.3305162329336,344.0936545080262 L360.2809010615163,343.4768308844212 M360.2809010615163,343.4768308844212 L364.33901153217664,343.16755418044477 M341.6061486040147,349.6364639292989 L341.6058241755487,336.8972377854783 M330.29279972726215,364.22287928049343 L330.9478577120606,360.08221710041596 M330.9478577120606,360.08221710041596 L333.37792767620783,356.09122806477217 M333.37792767620783,356.09122806477217 L336.8480265771349,352.809544359325 M336.8480265771349,352.809544359325 L341.6061486040147,349.6364639292989 M330.29279972726215,364.22287928049343 L330.29241243840806,351.4835720927008 M342.8436672725968,379.0273818526328 L336.0622670319545,374.2722059303452 M336.0622670319545,374.2722059303452 L332.18011542660497,369.83893853138795 M332.18011542660497,369.83893853138795 L330.8435463041558,367.05808298701413 M330.8435463041558,367.05808298701413 L330.29279972726215,364.22287928049343 M342.8436672725968,379.0273818526328 L342.8433497114787,366.28799241125665 M368.29715414982746,386.44532787090145 L361.1644965207949,385.7267788716784 M361.1644965207949,385.7267788716784 L354.2243223146546,384.0581949005079 M354.2243223146546,384.0581949005079 L348.46414807141326,381.8874753473662 M348.46414807141326,381.8874753473662 L342.8436672725968,379.0273818526328 M368.29715414982746,386.44532787090145 L368.2969780073804,373.70589721633274 M392.4042839578519,380.70690839363704 L384.96115825170267,384.0953513114574 M384.96115825170267,384.0953513114574 L378.49782614640696,385.7582782901869 M378.49782614640696,385.7582782901869 L373.5023793919955,386.3630093714536 M373.5023793919955,386.3630093714536 L368.29715414982746,386.44532787090145 M392.4042839578519,380.70690839363704 L392.4042417559208,367.967509620972 M402.1009252943868,371.1896563922427 L399.97007293096476,374.59704902171455 M399.97007293096476,374.59704902171455 L396.7378615372201,377.76946765597967 M396.7378615372201,377.76946765597967 L392.4042839578519,380.70690839363704 M402.1009252943868,371.1896563922427 L402.1009369670676,358.45031049688134 M421.1172453433695,384.9057462750327 L402.1009252943868,371.1896563922427 M421.1172453433695,384.9057462750327 L421.1173626715833,372.16632417414536 M389.387337225307,403.22548026210785 L421.1172453433695,384.9057462750327 M389.387337225307,403.22548026210785 L389.38727826000905,390.485956381051 M398.59933750143324,408.5442223717707 L389.387337225307,403.22548026210785 M398.59933750143324,408.5442223717707 L398.59932971913895,395.8046689416325 M438.78679189271566,385.3411830747064 L398.59933750143324,408.5442223717707 M438.78679189271566,385.3411830747064 L438.7870073936802,372.60175855459613 M403.66311751085817,360.4596107946407 L438.78679189271566,385.3411830747064 M538.652226276621,298.0738173485115 L540.6387464373686,299.6636999771011 M540.6387464373686,299.6636999771011 L541.426764387793,301.4479500367495 M541.426764387793,301.4479500367495 L541.427550103044,288.7089916490782 M538.652226276621,298.0738173485115 L538.6529965752884,285.33487770981856 M541.426764387793,301.4479500367495 L540.8007928734334,303.30217657200967 M540.8007928734334,303.30217657200967 L538.5453427657465,305.10198710084615 M538.5453427657465,305.10198710084615 L538.5461124753288,292.36300840898167 M532.9691415169817,296.56557091139234 L538.652226276621,298.0738173485115 M532.9691415169817,296.56557091139234 L532.9698802416348,283.82663965357915 M538.5453427657465,305.10198710084615 L535.4144912679558,306.41200393361856 M535.4144912679558,306.41200393361856 L532.1623254370156,306.79684624277013 M532.1623254370156,306.79684624277013 L532.1630596858664,294.05785813321603 M526.6938963794569,298.26040481246224 L529.7978023846218,296.95040660971983 M529.7978023846218,296.95040660971983 L532.9691415169817,296.56557091139234 M526.6938963794569,298.26040481246224 L526.6946002423377,285.52146413695937 M532.1623254370156,306.79684624277013 L529.031266002575,306.3653563985517 M529.031266002575,306.3653563985517 L526.2637319910524,305.22638026195506 M526.2637319910524,305.22638026195506 L526.2644334683667,292.48740087888393 M523.7047025609357,301.914421556408 L524.411500775158,300.0601995103774 M524.411500775158,300.0601995103774 L526.6938963794569,298.26040481246224 M523.7047025609357,301.914421556408 L523.7053898191883,289.17546057671194 M526.2637319910524,305.22638026195506 L524.3849605988789,303.68312951698573 M524.3849605988789,303.68312951698573 L523.7047025609357,301.914421556408 M603.881309555509,280.1928005376803 L615.9458925996778,273.2271293132158 M615.9458925996778,273.2271293132158 L554.4808310133615,237.74705525641838 M554.4808310133615,237.74705525641838 L543.6011688071287,244.02820548414843 M543.6011688071287,244.02820548414843 L537.0452950586573,248.76675674730035 M537.0452950586573,248.76675674730035 L533.8102005477916,252.80509133346783 M533.8102005477916,252.80509133346783 L532.6170738792077,255.8856297166845 M532.6170738792077,255.8856297166845 L532.4261454688547,259.0628223478824 M532.4261454688547,259.0628223478824 L533.7927984122098,263.43913769779505 M533.7927984122098,263.43913769779505 L537.0482206012967,267.7860233979507 M537.0482206012967,267.7860233979507 L541.3111598379071,271.4657010716675 M541.3111598379071,271.4657010716675 L546.9447168372315,275.1240224646922 M546.9447168372315,275.1240224646922 L551.5236222710048,277.76724470146524 M551.5236222710048,277.76724470146524 L560.4658968556816,282.1242719599358 M560.4658968556816,282.1242719599358 L569.4798440411575,284.912641625926 M569.4798440411575,284.912641625926 L574.0136711536409,285.71857647504027 M574.0136711536409,285.71857647504027 L578.5654010472153,286.1323459903208 M578.5654010472153,286.1323459903208 L585.0939321356005,286.0218770926149 M585.0939321356005,286.0218770926149 L591.3805868038144,285.0557069459557 M591.3805868038144,285.0557069459557 L597.42535816165,283.23384367350405 M597.42535816165,283.23384367350405 L600.6909431272595,281.8463536178872 M600.6909431272595,281.8463536178872 L603.881309555509,280.1928005376803 M451.4435716037116,322.9837809911761 L467.76601573112686,332.40693333850993 M467.76601573112686,332.40693333850993 L478.36442229634946,337.7146523391749 M478.36442229634946,337.7146523391749 L484.3237572518727,339.8247079154852 M484.3237572518727,339.8247079154852 L489.77179038483223,341.00608378121024 M489.77179038483223,341.00608378121024 L494.3422162229413,341.2927891431927 M494.3422162229413,341.2927891431927 L498.70720898152763,340.86224521294645 M498.70720898152763,340.86224521294645 L502.8667606993464,339.7144536066556 M502.8667606993464,339.7144536066556 L506.8208641863615,337.84941863291385 M506.8208641863615,337.84941863291385 L510.518122428189,335.115728800827 M510.518122428189,335.115728800827 L512.5766288279807,331.7141856583852 M512.5766288279807,331.7141856583852 L512.2067396690152,328.0840818416008 M512.2067396690152,328.0840818416008 L509.9859831447298,324.72907190502514 M509.9859831447298,324.72907190502514 L505.21372238355127,320.44701997742203 M505.21372238355127,320.44701997742203 L498.0923081883873,315.7687987587032 M498.0923081883873,315.7687987587032 L482.1469351073827,306.5636084488035 M482.1469351073827,306.5636084488035 L471.4317542480778,301.2193219986108 M471.4317542480778,301.2193219986108 L465.32924828823246,299.0770132388286 M465.32924828823246,299.0770132388286 L459.6840083693119,297.8561320506691 M459.6840083693119,297.8561320506691 L454.9504797765958,297.5276606416637 M454.9504797765958,297.5276606416637 L450.4997838469939,297.91055336737924 M450.4997838469939,297.91055336737924 L446.33191257855964,299.00481165338965 M446.33191257855964,299.00481165338965 L442.4468590223313,300.8104395738105 M442.4468590223313,300.8104395738105 L439.3512899327142,303.00965930396234 M439.3512899327142,303.00965930396234 L437.4441492859784,305.3468861625225 M437.4441492859784,305.3468861625225 L436.72544366220416,307.82212183762846 M436.72544366220416,307.82212183762846 L437.1951804998874,310.43536811711044 M437.1951804998874,310.43536811711044 L439.3712545319835,313.81781425052736 M439.3712545319835,313.81781425052736 L444.1833116010511,318.17791624455214 M444.1833116010511,318.17791624455214 L451.4435716037116,322.9837809911761 M615.9458925996778,273.2271293132158 L615.9470922863502,260.48832774303565 M615.9470922863502,260.48832774303565 L603.8824422243139,267.4539602599322 M603.881309555509,280.1928005376803 L603.8824422243139,267.4539602599322 M554.4808310133615,237.74705525641838 L554.481689204531,225.00845085291024 M554.481689204531,225.00845085291024 L615.9470922863502,260.48832774303565 M543.6011688071287,244.02820548414843 L543.6019665626137,231.28956617470908 M543.6019665626137,231.28956617470908 L554.481689204531,225.00845085291024 M532.4261454688547,259.0628223478824 L532.4268811527655,246.32409948884998 M532.4268811527655,246.32409948884998 L532.7995826424269,242.44301521329317 M532.7995826424269,242.44301521329317 L534.6780821292374,238.70716699600922 M534.6780821292374,238.70716699600922 L538.0606759374851,235.11796023075772 M538.0606759374851,235.11796023075772 L540.5986223301944,233.18069504247433 M540.5986223301944,233.18069504247433 L543.6019665626137,231.28956617470908 M546.9447168372315,275.1240224646922 L546.9455331894573,262.3852103536119 M546.9455331894573,262.3852103536119 L539.2355040693736,257.0834849073395 M539.2355040693736,257.0834849073395 L534.3912875244213,251.72848671874004 M534.3912875244213,251.72848671874004 L533.0485652098607,249.03222015261684 M533.0485652098607,249.03222015261684 L532.4268811527655,246.32409948884998 M551.5236222710048,277.76724470146524 L551.5244640633073,265.02841790224534 M551.5244640633073,265.02841790224534 L546.9455331894573,262.3852103536119 M578.5654010472153,286.1323459903208 L578.5663930778617,273.3934727074589 M578.5663930778617,273.3934727074589 L571.1935992863456,272.52473271989203 M571.1935992863456,272.52473271989203 L563.8719053360329,270.6258919748231 M563.8719053360329,270.6258919748231 L557.6775705317334,268.19823511028306 M557.6775705317334,268.19823511028306 L551.5244640633073,265.02841790224534 M603.8824422243139,267.4539602599322 L595.9042408864523,271.04212110562213 M595.9042408864523,271.04212110562213 L589.1027640951355,272.77077593698516 M589.1027640951355,272.77077593698516 L583.914994340664,273.3673825878482 M583.914994340664,273.3673825878482 L578.5663930778617,273.3934727074589 M467.76601573112686,332.40693333850993 L467.7663922244321,319.66780292680113 M467.7663922244321,319.66780292680113 L451.4438574107034,310.24470293836583 M451.4435716037116,322.9837809911761 L451.4438574107034,310.24470293836583 M489.77179038483223,341.00608378121024 L489.7722891411961,328.26690558984643 M489.7722891411961,328.26690558984643 L483.8568823133255,326.94808813243935 M483.8568823133255,326.94808813243935 L476.2094019509032,324.0407380236758 M476.2094019509032,324.0407380236758 L467.7663922244321,319.66780292680113 M506.8208641863615,337.84941863291385 L506.821457662763,325.110257980917 M506.821457662763,325.110257980917 L502.05325778013065,327.2617541352459 M502.05325778013065,327.2617541352459 L496.1140619875166,328.467409342384 M496.1140619875166,328.467409342384 L492.993292854586,328.5429139617323 M492.993292854586,328.5429139617323 L489.7722891411961,328.26690558984643 M512.2067396690152,328.0840818416008 L512.207363063006,315.34497544932066 M512.207363063006,315.34497544932066 L512.7193579116467,317.9613954883898 M512.7193579116467,317.9613954883898 L511.99202861615413,320.46149233584805 M511.99202861615413,320.46149233584805 L510.02557107626797,322.8446228849747 M510.02557107626797,322.8446228849747 L506.821457662763,325.110257980917 M498.0923081883873,315.7687987587032 L498.0928531600954,303.0297607958746 M498.0928531600954,303.0297607958746 L506.7258918275365,308.89619743652713 M506.7258918275365,308.89619743652713 L510.2066442804452,312.2442044341978 M510.2066442804452,312.2442044341978 L512.207363063006,315.34497544932066 M482.1469351073827,306.5636084488035 L482.14739148767285,293.82462163526174 M482.14739148767285,293.82462163526174 L498.0928531600954,303.0297607958746 M459.6840083693119,297.8561320506691 L459.6843399507414,285.11719362158766 M459.6843399507414,285.11719362158766 L465.8104290473198,286.47834973584645 M465.8104290473198,286.47834973584645 L473.62385015535955,289.4243390634313 M473.62385015535955,289.4243390634313 L482.14739148767285,293.82462163526174 M442.4468590223313,300.8104395738105 L442.44709484138644,288.07148472857295 M442.44709484138644,288.07148472857295 L447.1422432553047,285.9903894035758 M447.1422432553047,285.9903894035758 L450.06997310935725,285.2491373531255 M450.06997310935725,285.2491373531255 L453.1365057739162,284.85652107756044 M453.1365057739162,284.85652107756044 L456.3414485527928,284.8125849392303 M456.3414485527928,284.8125849392303 L459.6843399507414,285.11719362158766 M437.1951804998874,310.43536811711044 L437.19538714429325,297.6963597897639 M437.19538714429325,297.6963597897639 L436.725650160809,295.083082002404 M436.725650160809,295.083082002404 L437.44459977234095,292.6074614848244 M437.44459977234095,292.6074614848244 L439.35215540476617,290.27010525985156 M439.35215540476617,290.27010525985156 L442.44709484138644,288.07148472857295 M451.4438574107034,310.24470293836583 L442.65218875434505,304.22532114621663 M442.65218875434505,304.22532114621663 L439.1525127635472,300.8216866792369 M439.1525127635472,300.8216866792369 L437.19538714429325,297.6963597897639" stroke="black"  stroke-width="4"  fill="red"/></svg>